<svg width="359" height="29" viewBox="0 0 359 29" fill="none" xmlns="http://www.w3.org/2000/svg">
<path d="M107.489 18.3971C107.489 20.0613 107.094 21.5219 106.294 22.7805C105.499 24.0391 104.364 25.0195 102.888 25.7234C101.418 26.4273 99.7033 26.7785 97.7458 26.7785C96.0369 26.7785 94.4599 26.4879 93.024 25.899C91.5881 25.3039 90.3654 24.4726 89.3652 23.3834L91.6295 21.1303L93.2648 19.5066C93.6054 20.0069 94.0932 20.4326 94.7145 20.7776C94.8342 20.846 94.9615 20.9128 95.095 20.9734C95.9034 21.3587 96.7517 21.5483 97.64 21.5483C98.3947 21.5483 99.062 21.4131 99.6434 21.149C100.225 20.8848 100.679 20.4995 101.012 20.0053C101.339 19.5112 101.506 18.9161 101.506 18.22C101.506 17.5239 101.332 16.935 100.992 16.4347C100.651 15.9406 100.163 15.5692 99.5422 15.3113C98.9148 15.0549 98.1661 14.9321 97.2979 14.9321C96.8438 14.9321 96.3698 14.9585 95.8819 15.0129C95.3941 15.0735 95.0075 15.1621 94.713 15.2693C94.713 15.2693 94.7084 15.2714 94.6992 15.2755V11.8804L94.713 11.8664L98.8196 7.37588H94.713V2.21875H106.979V5.57967L101.704 11.2604C102.652 11.3552 103.52 11.6318 104.309 12.1057C105.29 12.6946 106.065 13.5259 106.633 14.6012C107.206 15.6764 107.487 16.9412 107.487 18.3956L107.489 18.3971Z" fill="#FF6700"/>
<path d="M124.745 13.9796C124.004 12.7443 123.011 11.7623 121.769 11.0351C120.526 10.3079 119.141 9.94435 117.613 9.94435C117.582 9.94435 117.556 9.94746 117.527 9.94746L123.324 2.21875H116.484L109.541 12.1259C108.172 14.1583 107.488 16.1783 107.488 18.1874C107.488 19.8049 107.893 21.2655 108.703 22.5692C109.512 23.8744 110.607 24.9014 111.986 25.6519C113.365 26.4024 114.921 26.7785 116.654 26.7785C118.388 26.7785 119.977 26.3978 121.356 25.6348C122.735 24.8735 123.829 23.8464 124.639 22.5521C125.448 21.2593 125.853 19.7925 125.853 18.1532C125.853 16.6071 125.481 15.2149 124.742 13.9796H124.745ZM119.581 19.8344C119.296 20.3767 118.903 20.7994 118.402 21.0992C117.9 21.3991 117.319 21.5498 116.657 21.5498C115.996 21.5498 115.449 21.3991 114.947 21.0992C114.445 20.7994 114.053 20.3783 113.767 19.8344C113.482 19.2921 113.339 18.6862 113.339 18.0165C113.339 17.3468 113.482 16.747 113.767 16.2156C114.053 15.6842 114.445 15.2631 114.947 14.9508C115.449 14.6384 116.018 14.4831 116.657 14.4831C117.297 14.4831 117.9 14.6338 118.402 14.9337C118.903 15.2336 119.296 15.6562 119.581 16.1985C119.867 16.7423 120.009 17.3483 120.009 18.018C120.009 18.6877 119.867 19.2937 119.581 19.836V19.8344Z" fill="#FF6700"/>
<path d="M141.333 14.222C140.695 12.9867 139.755 11.9938 138.512 11.2433C137.269 10.4929 135.725 10.1184 133.878 10.1184C133.147 10.1184 132.515 10.1759 131.98 10.2909C131.834 10.3219 131.692 10.3592 131.55 10.4012L131.931 7.38055H140.957V2.21875H127.037L125.841 13.5119L128.235 15.7292C128.76 15.3361 129.346 15.03 129.996 14.8109C130.647 14.5918 131.359 14.4815 132.133 14.4815C132.999 14.4815 133.741 14.6322 134.356 14.9321C134.971 15.232 135.445 15.6484 135.775 16.1798C136.105 16.7112 136.271 17.3343 136.271 18.0506C136.271 18.767 136.105 19.3854 135.775 19.9044C135.444 20.4233 134.988 20.8273 134.407 21.1163C133.825 21.4053 133.135 21.5498 132.337 21.5498C131.448 21.5498 130.598 21.3587 129.789 20.978C128.979 20.5974 128.37 20.1063 127.959 19.505L124.06 23.3849C125.04 24.471 126.287 25.307 127.804 25.8959C129.32 26.4848 130.911 26.7785 132.575 26.7785C134.559 26.7785 136.274 26.4195 137.722 25.7048C139.17 24.9885 140.293 23.9893 141.091 22.7074C141.888 21.4255 142.287 19.9541 142.287 18.2899C142.287 16.8122 141.968 15.4558 141.33 14.2205L141.333 14.222Z" fill="#FF6700"/>
<path d="M64.9109 14.9492C64.4093 14.4442 63.8141 14.0262 63.1314 13.6844C63.5993 13.4187 64.0212 13.1157 64.3802 12.7661C65.4847 11.694 66.0416 10.3344 66.0416 8.69508C66.0416 7.47377 65.7424 6.37522 65.1518 5.40564C64.5566 4.43605 63.7098 3.66225 62.6037 3.08578C61.4992 2.50776 60.1906 2.21875 58.6857 2.21875H47.6758V26.7816H58.4495C60.137 26.7816 61.6004 26.4692 62.8446 25.8462C64.0841 25.2231 65.0459 24.3716 65.7347 23.2994C66.4174 22.2227 66.7595 20.9967 66.7595 19.6076C66.7595 17.7399 66.1443 16.1861 64.9125 14.9508L64.9109 14.9492ZM53.6954 6.82738H57.2176C58.0154 6.82738 58.6689 7.02783 59.1828 7.43027C59.6967 7.83582 59.9498 8.46356 59.9498 9.31816C59.9498 10.1728 59.6967 10.8052 59.1828 11.2061C58.6689 11.6116 58.0138 11.812 57.2176 11.812H53.6954V6.82738ZM59.867 21.3587C59.3101 21.901 58.5507 22.1698 57.5935 22.1698H53.6954V16.2824H57.5935C58.2301 16.2824 58.7824 16.402 59.2518 16.646C59.7197 16.8899 60.0787 17.2349 60.3318 17.6839C60.5803 18.1361 60.7076 18.6489 60.7076 19.2269C60.7076 20.1063 60.43 20.8164 59.8685 21.3587H59.867Z" fill="#0F1FEA"/>
<path d="M67.8184 26.7765V9.42188H73.8043V26.7765H67.8184Z" fill="#0F1FEA"/>
<path d="M75.6152 26.7785V2.21875H81.5659V26.7785H75.6152Z" fill="#0F1FEA"/>
<path d="M83.4131 26.7785V2.21875H89.3637V26.7785H83.4131Z" fill="#0F1FEA"/>
<path d="M70.8103 8.28176C72.4633 8.28176 73.8033 6.92451 73.8033 5.25026C73.8033 3.576 72.4633 2.21875 70.8103 2.21875C69.1574 2.21875 67.8174 3.576 67.8174 5.25026C67.8174 6.92451 69.1574 8.28176 70.8103 8.28176Z" fill="#FF6700"/>
<path d="M27.7358 2.21875L23.5033 16.6677L19.323 2.21875H14.4324L10.269 16.6102L6.0534 2.21875H0L7.69485 26.7785H12.6529L16.8639 12.1617L21.101 26.7785H26.0269L33.7555 2.21875H27.7358Z" fill="#0F1FEA"/>
<path d="M43.0208 18.5214C42.9871 18.8524 42.9134 19.1709 42.7999 19.4817C42.6127 20.01 42.3121 20.4901 41.8979 20.9081C40.8363 21.9771 39.3268 22.3081 37.9845 21.8963L41.3241 18.5214L46.3528 13.442C46.026 12.9137 45.6379 12.4211 45.1915 11.9612C44.7374 11.5012 44.2496 11.1097 43.7295 10.7772C43.2693 10.4788 42.7815 10.2287 42.2799 10.0329C39.2087 8.79449 35.5622 9.43156 33.0709 11.9534C31.5614 13.4824 30.7269 15.4433 30.5873 17.4462C30.5336 18.1159 30.5612 18.7995 30.667 19.4692C30.848 20.6129 31.2546 21.7347 31.8897 22.7431C32.2241 23.2714 32.6107 23.764 33.0586 24.2239C33.5127 24.6777 34.0005 25.0754 34.5144 25.408C37.8265 27.5522 42.2814 27.1669 45.1792 24.2379C46.5016 22.8985 47.3024 21.2282 47.5831 19.4894C47.6368 19.1647 47.6629 18.8462 47.6767 18.523H43.0223L43.0208 18.5214ZM35.2477 17.4524C35.3751 16.6537 35.7417 15.8892 36.3492 15.2739C37.4046 14.2049 38.9203 13.8739 40.2564 14.2857L35.3612 19.23C35.194 18.655 35.1541 18.0397 35.2477 17.4508V17.4524Z" fill="#0F1FEA"/>
<g opacity="0.5">
<path d="M153.652 19.8972L151.287 12.0389H152.904L154.479 17.8099H154.558L156.138 12.0389H157.755L159.325 17.7843H159.403L160.968 12.0389H162.585L160.225 19.8972H158.629L156.996 14.2235H156.876L155.243 19.8972H153.652Z" fill="black"/>
<path d="M163.775 19.8972V12.0389H165.34V19.8972H163.775ZM164.565 10.8264C164.293 10.8264 164.059 10.7378 163.864 10.5604C163.672 10.3796 163.576 10.1648 163.576 9.91578C163.576 9.66338 163.672 9.44851 163.864 9.27115C164.059 9.09038 164.293 9 164.565 9C164.837 9 165.069 9.09038 165.261 9.27115C165.456 9.44851 165.554 9.66338 165.554 9.91578C165.554 10.1648 165.456 10.3796 165.261 10.5604C165.069 10.7378 164.837 10.8264 164.565 10.8264Z" fill="black"/>
<path d="M170.902 12.0389V13.2668H166.511V12.0389H170.902ZM167.689 10.1562H169.253V17.5899C169.253 17.8866 169.299 18.11 169.39 18.2601C169.48 18.4068 169.597 18.5074 169.74 18.5619C169.887 18.6131 170.045 18.6387 170.216 18.6387C170.342 18.6387 170.452 18.6302 170.546 18.6131C170.64 18.596 170.713 18.5824 170.766 18.5722L171.048 19.8358C170.958 19.8699 170.829 19.9041 170.661 19.9382C170.494 19.9757 170.284 19.9961 170.033 19.9996C169.621 20.0064 169.238 19.9348 168.882 19.7847C168.526 19.6346 168.238 19.4027 168.018 19.0889C167.799 18.7751 167.689 18.3812 167.689 17.9071V10.1562Z" fill="black"/>
<path d="M174.075 15.2314V19.8972H172.511V9.41952H174.054V13.318H174.154C174.342 12.895 174.63 12.5591 175.017 12.3101C175.404 12.0611 175.91 11.9366 176.535 11.9366C177.086 11.9366 177.567 12.0475 177.979 12.2692C178.394 12.4909 178.715 12.8217 178.942 13.2617C179.172 13.6983 179.287 14.244 179.287 14.8988V19.8972H177.722V15.083C177.722 14.5066 177.571 14.0598 177.267 13.7426C176.964 13.422 176.542 13.2617 176.001 13.2617C175.631 13.2617 175.3 13.3384 175.007 13.4919C174.717 13.6454 174.489 13.8705 174.321 14.1672C174.157 14.4606 174.075 14.8153 174.075 15.2314Z" fill="black"/>
</g>
<g clip-path="url(#clip0_9326_186)">
<path d="M201.101 1.75684C198.566 1.75684 196.088 2.51687 193.981 3.94081C191.873 5.36476 190.231 7.38867 189.261 9.75661C188.291 12.1245 188.037 14.7302 188.531 17.244C189.026 19.7577 190.246 22.0668 192.039 23.8791C193.831 25.6915 196.115 26.9257 198.601 27.4257C201.086 27.9258 203.663 27.6691 206.005 26.6883C208.347 25.7075 210.348 24.0465 211.756 21.9154C213.165 19.7843 213.916 17.2788 213.916 14.7158C213.916 11.2789 212.566 7.9827 210.163 5.55242C207.759 3.12215 204.5 1.75684 201.101 1.75684ZM201.37 25.309C199.837 25.5235 197.34 25.1331 195.643 24.0522C194.368 23.2482 193.351 22.0874 192.716 20.7105C192.131 19.4837 191.855 17.9952 192.479 18.0681C192.769 18.1024 193.022 18.6601 193.59 19.3893C193.976 19.8869 194.33 20.3052 194.595 20.3631C194.716 20.3888 194.807 20.333 194.899 20.17C195.06 19.8612 195.272 19.2757 195.658 18.8017C195.961 18.4456 196.347 18.2697 196.559 19.1555C196.66 19.58 196.739 20.0096 196.795 20.4424C196.863 21.0022 196.899 21.3368 197.092 21.4312C197.285 21.5256 197.588 21.4055 198.093 21.2167C198.456 21.0794 198.92 20.9057 199.508 20.7363C200.051 20.5797 200.394 20.6612 200.047 21.5105C199.806 22.0772 199.498 22.6122 199.13 23.1041C199.08 23.1672 199.057 23.2476 199.065 23.3279C199.074 23.4082 199.113 23.4819 199.175 23.5331C199.517 23.8043 199.898 24.0213 200.305 24.1765C200.685 24.3374 201.075 24.4742 201.472 24.5862C201.949 24.7363 201.862 25.2297 201.37 25.309ZM207.945 22.5208C207.47 23.3058 206.461 24.153 205.256 24.7192C205.071 24.8028 204.876 24.775 204.832 24.6248C204.787 24.4747 204.893 24.3417 205.012 24.1959C206.592 22.124 205.419 20.2237 202.868 18.748C200.984 17.6585 199.786 17.0322 198.394 16.2043C194.32 13.7785 193.533 11.6659 193.374 10.4133C192.973 7.25613 195.554 4.89041 198.21 4.31989C198.292 4.30273 198.505 4.26841 198.572 4.44643C198.64 4.62445 198.483 4.75528 198.392 4.81105C197.196 5.46736 196.029 6.86363 196.156 8.43149C196.226 9.30228 196.596 10.5549 198.927 12.2364C200.333 13.2509 202.057 14.0831 205.532 16.1893C209.203 18.4156 208.785 21.1288 207.943 22.5208H207.945ZM208.518 10.6599C207.68 11.698 206.842 11.3034 206.198 9.85135C205.795 8.93981 205.266 8.72104 204.893 8.95911C204.486 9.21864 204.647 9.84492 205.105 10.5634C205.234 10.7727 205.29 11.0196 205.263 11.2646C205.237 11.5096 205.129 11.7386 204.959 11.9147C204.769 12.0929 204.536 12.2189 204.284 12.2805C204.032 12.3421 203.769 12.3372 203.519 12.2664C202.486 12.0348 201.47 10.6364 202.212 7.58C202.511 6.34888 201.926 5.82125 201.555 5.34725C201.37 5.10918 201.343 4.96547 201.415 4.8711C201.487 4.77673 201.661 4.75957 201.964 4.82392C202.363 4.90756 202.952 5.11347 203.432 5.18853C203.783 5.2396 204.138 5.25612 204.492 5.23786C205.377 5.1749 206.263 5.35107 207.059 5.74833C208.378 6.40893 208.512 7.54568 207.778 7.46418C207.48 7.38516 207.194 7.26461 206.929 7.106C206.749 7.01806 206.592 6.98803 206.478 7.07382C206.42 7.12198 206.38 7.18914 206.366 7.2636C206.353 7.33806 206.365 7.41511 206.401 7.48134C206.565 7.83094 207.118 8.01111 207.869 8.21915C209.178 8.57948 209.205 9.8106 208.518 10.6599Z" fill="#0046FF"/>
<path d="M201.37 25.3083C199.836 25.5228 197.34 25.1324 195.643 24.0514C194.368 23.2475 193.351 22.0867 192.716 20.7098C192.131 19.483 191.855 17.9945 192.478 18.0674C192.769 18.1017 193.021 18.6594 193.59 19.3886C193.976 19.8862 194.33 20.3045 194.595 20.3624C194.716 20.3881 194.807 20.3323 194.899 20.1693C195.06 19.8605 195.272 19.275 195.658 18.801C195.961 18.4449 196.347 18.269 196.559 19.1548C196.66 19.5793 196.739 20.0089 196.795 20.4417C196.863 21.0015 196.899 21.3361 197.092 21.4305C197.285 21.5249 197.588 21.4048 198.093 21.216C198.456 21.0787 198.92 20.905 199.508 20.7356C200.051 20.579 200.394 20.6605 200.046 21.5098C199.806 22.0765 199.498 22.6115 199.13 23.1034C199.08 23.1665 199.057 23.2469 199.065 23.3272C199.074 23.4075 199.113 23.4812 199.175 23.5324C199.517 23.8036 199.898 24.0206 200.305 24.1758C200.685 24.3367 201.075 24.4735 201.472 24.5855C201.949 24.7356 201.862 25.229 201.37 25.3083ZM207.945 22.5201C207.47 23.3051 206.461 24.1523 205.256 24.7185C205.071 24.8021 204.876 24.7743 204.832 24.6241C204.787 24.474 204.893 24.341 205.012 24.1952C206.592 22.1233 205.419 20.223 202.867 18.7473C200.984 17.6578 199.786 17.0315 198.394 16.2036C194.319 13.7778 193.533 11.6652 193.373 10.4126C192.973 7.25543 195.554 4.8897 198.21 4.31918C198.292 4.30202 198.504 4.26771 198.572 4.44573C198.64 4.62375 198.483 4.75458 198.392 4.81035C197.196 5.46666 196.029 6.86293 196.156 8.43079C196.226 9.30158 196.595 10.5542 198.926 12.2357C200.333 13.2502 202.057 14.0824 205.532 16.1886C209.203 18.4149 208.785 21.1281 207.943 22.5201H207.945ZM208.518 10.6592C207.68 11.6973 206.842 11.3027 206.198 9.85065C205.795 8.93911 205.266 8.72034 204.893 8.95841C204.486 9.21793 204.647 9.84422 205.105 10.5627C205.234 10.772 205.29 11.0189 205.263 11.2639C205.236 11.5089 205.129 11.7379 204.959 11.914C204.769 12.0922 204.536 12.2182 204.284 12.2798C204.032 12.3414 203.768 12.3365 203.519 12.2657C202.486 12.0341 201.47 10.6357 202.212 7.5793C202.511 6.34818 201.926 5.82055 201.554 5.34655C201.37 5.10847 201.342 4.96477 201.414 4.8704C201.487 4.77603 201.661 4.75887 201.964 4.82321C202.363 4.90686 202.952 5.11276 203.432 5.18783C203.783 5.2389 204.138 5.25542 204.492 5.23716C205.377 5.1742 206.263 5.35037 207.059 5.74763C208.378 6.40823 208.512 7.54498 207.778 7.46348C207.48 7.38446 207.194 7.26391 206.929 7.10529C206.749 7.01736 206.592 6.98733 206.478 7.07312C206.42 7.12128 206.38 7.18844 206.366 7.2629C206.352 7.33736 206.365 7.41441 206.401 7.48064C206.564 7.83024 207.118 8.0104 207.869 8.21845C209.178 8.57878 209.205 9.8099 208.518 10.6592Z" fill="white"/>
<path d="M219.482 19.2777C219.797 19.5374 220.139 19.7618 220.502 19.9469C220.88 20.1423 221.271 20.3094 221.673 20.4466C222.062 20.5777 222.458 20.6816 222.861 20.7576C223.219 20.8293 223.584 20.8666 223.949 20.8692C224.77 20.8692 225.415 20.6954 225.877 20.348C226.34 20.0005 226.575 19.4901 226.575 18.7866C226.59 18.3095 226.46 17.8393 226.202 17.4396C225.951 17.0707 225.49 16.7132 224.819 16.3672C224.428 16.1642 224.058 15.9804 223.707 15.816C223.357 15.653 223.022 15.4835 222.698 15.3055C222.373 15.1275 222.061 14.9409 221.76 14.7436C221.448 14.5403 221.148 14.319 220.861 14.0808C220.347 13.62 219.911 13.0782 219.569 12.4765C219.214 11.81 219.04 11.0604 219.064 10.3038C219.059 9.74266 219.179 9.18752 219.416 8.6802C219.653 8.17725 220.003 7.73675 220.437 7.39332C220.923 7.01831 221.474 6.73761 222.061 6.56542C222.767 6.35971 223.499 6.26069 224.233 6.27158C225.833 6.24133 227.422 6.54659 228.9 7.16811V9.70113C228.91 9.77636 228.895 9.85292 228.856 9.91809C228.818 9.98326 228.758 10.0331 228.688 10.0593C228.613 10.0815 228.535 10.0829 228.46 10.0632C228.385 10.0436 228.317 10.0037 228.263 9.94779C227.261 9.04759 225.969 8.54676 224.628 8.53865C223.902 8.53865 223.355 8.69307 222.963 9.00836C222.772 9.16499 222.621 9.36491 222.521 9.59188C222.421 9.81885 222.375 10.0664 222.388 10.3145C222.379 10.6658 222.447 11.0147 222.589 11.3355C222.731 11.6306 222.938 11.8889 223.194 12.0905C223.705 12.5118 224.257 12.8811 224.84 13.1929C225.425 13.506 226.001 13.7984 226.566 14.0701C227.056 14.294 227.525 14.561 227.968 14.868C228.364 15.1391 228.716 15.4697 229.012 15.8482C229.306 16.2215 229.529 16.647 229.67 17.1029C229.822 17.6365 229.894 18.1905 229.882 18.7458C229.904 19.4369 229.751 20.1223 229.436 20.7362C229.132 21.2893 228.699 21.759 228.174 22.1046C227.598 22.4814 226.958 22.7475 226.286 22.8896C225.528 23.0576 224.753 23.1403 223.977 23.1362C223.342 23.1294 222.709 23.0576 222.089 22.9218C221.492 22.8015 220.907 22.6271 220.341 22.4006C219.903 22.2324 219.494 21.9941 219.13 21.6949C218.835 21.4375 218.74 21.178 218.848 20.9185L219.482 19.2777Z" fill="#0046FF"/>
<path d="M231.697 6.50915H235.15V12.2036C235.578 11.8413 236.062 11.5516 236.582 11.3457C237.143 11.1237 237.742 11.013 238.344 11.0197C238.931 11.0118 239.514 11.1017 240.071 11.2856C240.559 11.4445 241.012 11.6972 241.405 12.0299C241.768 12.3469 242.058 12.7408 242.254 13.1838C242.461 13.6561 242.565 14.1684 242.557 14.6852V22.8912H239.39V15.1034C239.39 13.9738 238.777 13.409 237.551 13.409C237.135 13.4091 236.723 13.4937 236.34 13.6578C235.919 13.8424 235.52 14.0741 235.15 14.3484V22.8805H231.981V8.54886C231.99 8.26638 231.956 7.98417 231.879 7.71239C231.793 7.47059 231.656 7.25091 231.476 7.06894C231.422 7.02002 231.385 6.95545 231.368 6.88406C231.352 6.81266 231.358 6.73791 231.385 6.67001C231.417 6.61622 231.463 6.57259 231.518 6.54413C231.573 6.51567 231.635 6.50354 231.697 6.50915Z" fill="#0046FF"/>
<path d="M248.526 11.4079V22.8805H245.344V13.4283C245.353 13.1587 245.315 12.8895 245.234 12.6326C245.141 12.4028 245.007 12.1921 244.839 12.0106C244.785 11.9601 244.746 11.8945 244.729 11.8221C244.711 11.7496 244.715 11.6734 244.74 11.6031C244.765 11.5439 244.807 11.4942 244.862 11.4611C244.916 11.4279 244.98 11.4131 245.043 11.4186L248.526 11.4079ZM248.647 7.7746C248.653 8.03113 248.608 8.28631 248.514 8.52479C248.421 8.76327 248.28 8.98012 248.102 9.1623C247.727 9.51384 247.234 9.70917 246.723 9.70917C246.212 9.70917 245.719 9.51384 245.344 9.1623C245.167 8.9793 245.029 8.76206 244.937 8.5236C244.845 8.28514 244.802 8.03038 244.81 7.7746C244.802 7.51852 244.845 7.2635 244.937 7.02472C245.029 6.78594 245.167 6.5683 245.344 6.38476C245.719 6.03322 246.212 5.83789 246.723 5.83789C247.234 5.83789 247.727 6.03322 248.102 6.38476C248.278 6.56837 248.417 6.78603 248.508 7.02479C248.6 7.26355 248.644 7.51854 248.636 7.7746H248.647Z" fill="#0046FF"/>
<path d="M251.098 11.408H254.464V12.5319C254.885 12.1153 255.357 11.7548 255.869 11.4595C256.433 11.1473 257.07 10.9919 257.714 11.0091C258.283 11.0038 258.849 11.0899 259.392 11.2643C259.883 11.4231 260.339 11.6766 260.734 12.0107C261.12 12.3415 261.427 12.7566 261.631 13.2247C261.854 13.7501 261.964 14.3174 261.954 14.8891V22.8699H258.791V15.1851C258.791 14.5416 258.647 14.059 258.367 13.7652C258.087 13.4714 257.612 13.3362 256.965 13.3362C256.534 13.3327 256.107 13.4235 255.714 13.6022C255.3 13.7941 254.918 14.0487 254.581 14.3572V22.8892H251.402V13.4692C251.411 13.1861 251.373 12.9035 251.291 12.6327C251.198 12.403 251.064 12.1922 250.897 12.0107C250.763 11.8627 250.725 11.7255 250.786 11.6032C250.812 11.5423 250.856 11.4909 250.912 11.456C250.968 11.4211 251.033 11.4044 251.098 11.408Z" fill="#0046FF"/>
<path d="M264.363 6.50951H267.827V12.204C268.256 11.8412 268.74 11.5514 269.261 11.3461C269.818 11.1256 270.411 11.0149 271.009 11.02C271.595 11.0125 272.178 11.1024 272.735 11.286C273.222 11.4454 273.675 11.698 274.067 12.0303C274.43 12.3472 274.72 12.7412 274.916 13.1842C275.124 13.6561 275.228 14.1687 275.219 14.6855V22.8916H272.056V15.1038C272.056 13.9742 271.444 13.4094 270.22 13.4094C269.804 13.4095 269.392 13.4941 269.008 13.6582C268.59 13.843 268.194 14.0746 267.827 14.3488V22.8809H264.645V8.54923C264.655 8.26686 264.622 7.98468 264.546 7.71275C264.459 7.47135 264.321 7.25183 264.143 7.0693C264.02 6.91917 263.99 6.78619 264.052 6.67037C264.083 6.61604 264.129 6.57196 264.184 6.54343C264.239 6.51489 264.302 6.50311 264.363 6.50951Z" fill="#0046FF"/>
<path d="M282.414 13.1646C281.785 13.1634 281.161 13.2812 280.575 13.512C280.018 13.7255 279.483 13.9958 278.98 14.3185C278.751 14.4686 278.577 14.5094 278.456 14.4407C278.335 14.3721 278.274 14.2262 278.274 13.9924V11.8691C278.951 11.5779 279.659 11.3677 280.384 11.2428C281.12 11.1036 281.867 11.0319 282.615 11.0283C284.189 11.0283 285.404 11.3343 286.259 11.9463C287.115 12.5583 287.546 13.502 287.553 14.7775V22.8806H284.431V21.6366C284.016 22.1719 283.475 22.593 282.857 22.8612C282.244 23.1222 281.584 23.2543 280.919 23.2495C280.389 23.2546 279.862 23.1646 279.364 22.9835C278.922 22.8263 278.517 22.5771 278.176 22.252C277.836 21.9269 277.566 21.5331 277.385 21.0961C277.193 20.6272 277.097 20.1237 277.103 19.6161C277.103 18.3922 277.527 17.422 278.375 16.7056C279.224 15.9893 280.54 15.6318 282.323 15.6332H284.372V14.7753C284.372 14.1984 284.204 13.7887 283.867 13.542C283.53 13.2954 283.046 13.1646 282.414 13.1646ZM284.372 17.778H282.312C281.532 17.778 280.977 17.9403 280.647 18.2649C280.481 18.4333 280.352 18.6345 280.266 18.856C280.181 19.0774 280.141 19.3143 280.151 19.5518C280.133 19.9489 280.268 20.3376 280.526 20.6371C280.666 20.7845 280.835 20.8991 281.023 20.9729C281.211 21.0466 281.413 21.0777 281.614 21.0639C282.146 21.0688 282.671 20.9468 283.148 20.7079C283.616 20.4674 284.031 20.1357 284.372 19.732V17.778Z" fill="#0046FF"/>
<path d="M289.887 11.408H293.26V12.5319C293.68 12.1157 294.151 11.7554 294.662 11.4595C295.228 11.1475 295.865 10.9921 296.509 11.0091C297.078 11.0037 297.645 11.0899 298.187 11.2643C298.677 11.4226 299.133 11.6762 299.527 12.0107C299.914 12.3413 300.222 12.7564 300.427 13.2247C300.65 13.75 300.76 14.3174 300.749 14.889V22.8699H297.578V15.185C297.578 14.5416 297.432 14.059 297.154 13.7651C296.876 13.4713 296.397 13.3362 295.752 13.3362C295.321 13.3327 294.894 13.4234 294.5 13.6021C294.087 13.7935 293.705 14.0482 293.368 14.3571V22.8892H290.188V13.4692C290.198 13.1859 290.16 12.9031 290.076 12.6327C289.981 12.4023 289.845 12.1915 289.675 12.0107C289.541 11.8627 289.503 11.7254 289.565 11.6032C289.591 11.5402 289.636 11.4874 289.694 11.4523C289.752 11.4172 289.82 11.4017 289.887 11.408Z" fill="#0046FF"/>
<path d="M307.491 6.9574H313.046C313.802 6.94954 314.555 7.04183 315.286 7.23194C315.896 7.38916 316.471 7.65972 316.983 8.02981C317.435 8.36088 317.805 8.7942 318.063 9.29525C318.324 9.80916 318.456 10.3798 318.449 10.9575C318.449 12.5103 317.856 13.6471 316.671 14.3677C317.437 14.6405 318.107 15.1341 318.599 15.7876C319.065 16.4196 319.296 17.2668 319.295 18.3292C319.312 19.0139 319.166 19.6927 318.871 20.3089C318.583 20.8779 318.164 21.3686 317.649 21.7394C317.071 22.1434 316.424 22.4344 315.74 22.5974C314.934 22.7957 314.107 22.8915 313.278 22.8826H307.784V9.01857C307.794 8.73543 307.757 8.45258 307.674 8.18209C307.581 7.94879 307.447 7.73442 307.279 7.54937C307.225 7.49857 307.187 7.43298 307.169 7.36061C307.152 7.28825 307.155 7.21224 307.179 7.14186C307.204 7.08072 307.248 7.02952 307.304 6.99617C307.361 6.96283 307.426 6.9492 307.491 6.9574ZM311.086 13.4497H312.824C313.591 13.4497 314.173 13.2932 314.569 12.98C314.965 12.6669 315.164 12.1228 315.165 11.3478C315.165 10.5714 314.964 10.0245 314.559 9.70276C314.154 9.38104 313.551 9.22232 312.758 9.22232H311.082L311.086 13.4497ZM315.908 18.1447C315.908 17.2868 315.676 16.6691 315.21 16.2873C314.743 15.9056 314.037 15.7147 313.089 15.7147H311.091V20.6156H313.11C314.064 20.6156 314.773 20.4182 315.231 20.0236C315.689 19.6289 315.908 19.0027 315.908 18.1447Z" fill="#0046FF"/>
<path d="M325.922 13.1646C325.293 13.1632 324.67 13.2811 324.085 13.512C323.527 13.7247 322.993 13.9949 322.49 14.3185C322.261 14.4686 322.085 14.5094 321.964 14.4407C321.843 14.3721 321.783 14.2262 321.783 13.9924V11.8691C322.46 11.5779 323.167 11.3677 323.892 11.2428C324.628 11.1037 325.375 11.032 326.123 11.0283C327.698 11.0283 328.913 11.3343 329.767 11.9463C330.621 12.5583 331.049 13.5049 331.05 14.786V22.8891H327.941V21.6451C327.525 22.18 326.983 22.601 326.365 22.8698C325.752 23.1305 325.093 23.2626 324.428 23.258C323.899 23.2636 323.372 23.1735 322.874 22.9921C322.426 22.831 322.017 22.5776 321.671 22.2478C321.339 21.9228 321.075 21.5342 320.893 21.1046C320.701 20.6356 320.606 20.1321 320.613 19.6247C320.613 18.4008 321.037 17.4306 321.885 16.7142C322.734 15.9978 324.049 15.6404 325.833 15.6418H327.871V14.7839C327.871 14.2069 327.703 13.7973 327.366 13.5506C327.029 13.304 326.554 13.1646 325.922 13.1646ZM327.879 17.778H325.822C325.039 17.778 324.486 17.941 324.155 18.2649C323.989 18.4331 323.859 18.6344 323.774 18.8559C323.689 19.0774 323.65 19.3144 323.661 19.5518C323.64 19.9526 323.775 20.3457 324.036 20.6478C324.175 20.7921 324.344 20.9041 324.531 20.9759C324.717 21.0478 324.917 21.0778 325.116 21.0639C325.648 21.0687 326.174 20.9467 326.651 20.7079C327.121 20.4702 327.539 20.1407 327.882 19.7384L327.879 17.778Z" fill="#0046FF"/>
<path d="M333.394 11.408H336.763V12.5319C337.183 12.1153 337.655 11.7548 338.167 11.4595C338.732 11.1473 339.368 10.9919 340.012 11.0091C340.581 11.0036 341.147 11.0898 341.69 11.2643C342.181 11.4226 342.637 11.6762 343.032 12.0107C343.419 12.3415 343.725 12.7566 343.93 13.2247C344.154 13.7498 344.264 14.3173 344.252 14.8891V22.8699H341.085V15.1851C341.085 14.5416 340.941 14.059 340.661 13.7652C340.381 13.4714 339.906 13.3362 339.259 13.3362C338.828 13.3332 338.401 13.4239 338.008 13.6022C337.595 13.7936 337.213 14.0483 336.877 14.3572V22.8892H333.695V13.4692C333.706 13.1861 333.668 12.9033 333.585 12.6327C333.492 12.403 333.358 12.1922 333.191 12.0107C333.057 11.8627 333.019 11.7255 333.08 11.6032C333.107 11.5421 333.151 11.4907 333.207 11.4558C333.263 11.4209 333.328 11.4042 333.394 11.408Z" fill="#0046FF"/>
<path d="M346.944 22.8813V8.54965C346.953 8.26717 346.919 7.98497 346.842 7.71318C346.755 7.47178 346.618 7.25226 346.439 7.06973C346.318 6.9196 346.286 6.78662 346.348 6.6708C346.378 6.61448 346.423 6.56821 346.478 6.53771C346.534 6.50721 346.597 6.49382 346.66 6.49921H350.113V15.8999L354.13 11.4087H357.761L353.422 16.301L358.287 22.8749H354.792L351.303 18.0855C351.181 17.8935 351.027 17.725 350.847 17.5879C350.707 17.5149 350.55 17.4802 350.393 17.4871H350.111V22.8749L346.944 22.8813Z" fill="#0046FF"/>
</g>
<defs>
<clipPath id="clip0_9326_186">
<rect width="170" height="29" fill="white" transform="translate(188.287)"/>
</clipPath>
</defs>
</svg>
