<svg width="458" height="38" viewBox="0 0 458 38" fill="none" xmlns="http://www.w3.org/2000/svg">
<path d="M137.513 23.5359C137.513 25.6649 137.009 27.5334 135.984 29.1436C134.967 30.7538 133.515 32.0081 131.627 32.9086C129.747 33.8091 127.553 34.2583 125.049 34.2583C122.862 34.2583 120.845 33.8866 119.008 33.1332C117.171 32.3719 115.607 31.3084 114.327 29.9149L117.224 27.0325L119.316 24.9552C119.752 25.5953 120.376 26.14 121.171 26.5813C121.324 26.6687 121.487 26.7542 121.657 26.8317C122.692 27.3247 123.777 27.5672 124.913 27.5672C125.879 27.5672 126.733 27.3943 127.476 27.0564C128.22 26.7184 128.801 26.2254 129.227 25.5933C129.645 24.9612 129.859 24.1998 129.859 23.3093C129.859 22.4187 129.637 21.6653 129.201 21.0252C128.766 20.3931 128.142 19.918 127.347 19.588C126.544 19.26 125.586 19.103 124.476 19.103C123.895 19.103 123.288 19.1368 122.664 19.2063C122.04 19.2839 121.545 19.3972 121.169 19.5343C121.169 19.5343 121.163 19.537 121.151 19.5423V15.1988L121.169 15.1809L126.422 9.43605H121.169V2.83838H136.861V7.1381L130.112 14.4057C131.325 14.5269 132.436 14.8808 133.445 15.4871C134.701 16.2405 135.692 17.304 136.418 18.6796C137.152 20.0552 137.511 21.6733 137.511 23.5339L137.513 23.5359Z" fill="#FF6700"/>
<path d="M159.59 17.8844C158.642 16.3041 157.372 15.0478 155.782 14.1174C154.193 13.1871 152.42 12.722 150.466 12.722C150.426 12.722 150.393 12.7259 150.356 12.7259L157.772 2.83838H149.021L140.139 15.5129C138.388 18.113 137.513 20.6972 137.513 23.2675C137.513 25.3369 138.031 27.2054 139.067 28.8733C140.101 30.543 141.503 31.857 143.267 32.8171C145.031 33.7773 147.021 34.2583 149.239 34.2583C151.457 34.2583 153.49 33.7713 155.254 32.7953C157.019 31.8212 158.418 30.5073 159.454 28.8514C160.488 27.1975 161.007 25.321 161.007 23.2238C161.007 21.2459 160.532 19.4648 159.586 17.8844H159.59ZM152.984 25.3746C152.619 26.0684 152.116 26.6091 151.474 26.9927C150.833 27.3764 150.089 27.5692 149.243 27.5692C148.397 27.5692 147.696 27.3764 147.055 26.9927C146.413 26.6091 145.911 26.0704 145.545 25.3746C145.18 24.6809 144.998 23.9056 144.998 23.0489C144.998 22.1921 145.18 21.4248 145.545 20.7449C145.911 20.0651 146.413 19.5264 147.055 19.1268C147.696 18.7273 148.425 18.5285 149.243 18.5285C150.061 18.5285 150.833 18.7213 151.474 19.105C152.116 19.4886 152.619 20.0293 152.984 20.7231C153.349 21.4188 153.531 22.1941 153.531 23.0508C153.531 23.9076 153.349 24.6829 152.984 25.3766V25.3746Z" fill="#FF6700"/>
<path d="M180.811 18.1945C179.995 16.6142 178.792 15.3439 177.202 14.3838C175.613 13.4237 173.636 12.9446 171.273 12.9446C170.339 12.9446 169.531 13.0182 168.846 13.1653C168.659 13.205 168.477 13.2527 168.296 13.3064L168.783 9.44202H180.331V2.83838H162.522L160.991 17.2861L164.055 20.1227C164.726 19.6198 165.476 19.2282 166.308 18.9479C167.14 18.6676 168.051 18.5265 169.042 18.5265C170.149 18.5265 171.099 18.7193 171.886 19.103C172.673 19.4866 173.279 20.0194 173.701 20.6992C174.123 21.3791 174.335 22.1762 174.335 23.0926C174.335 24.009 174.123 24.8001 173.701 25.4641C173.277 26.128 172.694 26.6449 171.95 27.0146C171.207 27.3844 170.323 27.5692 169.303 27.5692C168.165 27.5692 167.077 27.3247 166.043 26.8377C165.007 26.3507 164.228 25.7225 163.702 24.9532L158.713 29.9169C159.967 31.3064 161.563 32.3758 163.504 33.1292C165.443 33.8826 167.478 34.2583 169.607 34.2583C172.145 34.2583 174.339 33.7991 176.192 32.8847C178.044 31.9683 179.481 30.6902 180.501 29.0502C181.522 27.4102 182.032 25.5277 182.032 23.3987C182.032 21.5083 181.624 19.7729 180.807 18.1925L180.811 18.1945Z" fill="#FF6700"/>
<path d="M83.0426 19.1248C82.4009 18.4788 81.6394 17.9441 80.766 17.5067C81.3646 17.1668 81.9043 16.7792 82.3636 16.3319C83.7766 14.9603 84.489 13.2209 84.489 11.1237C84.489 9.56129 84.1063 8.15588 83.3508 6.91546C82.5893 5.67504 81.5059 4.68509 80.0909 3.9476C78.6779 3.20812 77.0038 2.83838 75.0785 2.83838H60.9932V34.2623H74.7763C76.9351 34.2623 78.8074 33.8628 80.399 33.0656C81.9848 32.2685 83.2153 31.1792 84.0965 29.8075C84.9699 28.43 85.4075 26.8615 85.4075 25.0844C85.4075 22.695 84.6205 20.7072 83.0446 19.1268L83.0426 19.1248ZM68.6943 8.73434H73.2003C74.2209 8.73434 75.0569 8.99078 75.7144 9.50563C76.3719 10.0245 76.6957 10.8275 76.6957 11.9209C76.6957 13.0142 76.3719 13.8232 75.7144 14.3361C75.0569 14.8549 74.2189 15.1114 73.2003 15.1114H68.6943V8.73434ZM76.5897 27.3247C75.8773 28.0185 74.9058 28.3624 73.6812 28.3624H68.6943V20.8304H73.6812C74.4956 20.8304 75.2022 20.9835 75.8027 21.2956C76.4013 21.6077 76.8605 22.049 77.1844 22.6235C77.5023 23.2019 77.6652 23.8579 77.6652 24.5974C77.6652 25.7225 77.31 26.631 76.5917 27.3247H76.5897Z" fill="#0F1FEA"/>
<path d="M86.7617 34.256V12.0537H94.4197V34.256H86.7617Z" fill="#0F1FEA"/>
<path d="M96.7363 34.2583V2.83838H104.349V34.2583H96.7363Z" fill="#0F1FEA"/>
<path d="M106.713 34.2583V2.83838H114.326V34.2583H106.713Z" fill="#0F1FEA"/>
<path d="M90.5897 10.595C92.7044 10.595 94.4187 8.8586 94.4187 6.71668C94.4187 4.57475 92.7044 2.83838 90.5897 2.83838C88.475 2.83838 86.7607 4.57475 86.7607 6.71668C86.7607 8.8586 88.475 10.595 90.5897 10.595Z" fill="#FF6700"/>
<path d="M35.4832 2.83838L30.0685 21.3234L24.7205 2.83838H18.4638L13.1374 21.2498L7.7443 2.83838H0L9.84425 34.2583H16.1873L21.5745 15.5586L26.9951 34.2583H33.2969L43.1844 2.83838H35.4832Z" fill="#0F1FEA"/>
<path d="M55.0375 23.6951C54.9943 24.1185 54.9001 24.526 54.7549 24.9236C54.5154 25.5994 54.1308 26.2137 53.6009 26.7484C52.2428 28.1161 50.3116 28.5395 48.5943 28.0127L52.8669 23.6951L59.3002 17.1968C58.8821 16.5209 58.3856 15.8908 57.8145 15.3024C57.2336 14.714 56.6095 14.213 55.9442 13.7876C55.3554 13.406 54.7313 13.0859 54.0895 12.8355C50.1605 11.2511 45.4955 12.0662 42.3082 15.2924C40.3771 17.2485 39.3094 19.7571 39.1308 22.3195C39.0622 23.1762 39.0975 24.0509 39.2329 24.9077C39.4645 26.3707 39.9846 27.806 40.7971 29.0961C41.2249 29.7719 41.7195 30.4021 42.2925 30.9905C42.8735 31.5709 43.4976 32.0798 44.155 32.5052C48.3922 35.2485 54.0915 34.7555 57.7988 31.0084C59.4905 29.2949 60.515 27.1579 60.8741 24.9335C60.9428 24.518 60.9762 24.1105 60.9939 23.6971H55.0394L55.0375 23.6951ZM45.0931 22.3274C45.256 21.3057 45.7251 20.3277 46.5023 19.5405C47.8525 18.1728 49.7915 17.7494 51.5009 18.2762L45.2384 24.6015C45.0244 23.866 44.9734 23.0788 45.0931 22.3254V22.3274Z" fill="#0F1FEA"/>
<g opacity="0.5">
<path d="M196.058 25.4553L193.032 15.402H195.101L197.116 22.7849H197.216L199.238 15.402H201.307L203.315 22.7522H203.416L205.417 15.402H207.486L204.467 25.4553H202.425L200.336 18.1968H200.182L198.093 25.4553H196.058Z" fill="black"/>
<path d="M209.008 25.4553V15.402H211.01V25.4553H209.008ZM210.019 13.8508C209.671 13.8508 209.372 13.7373 209.122 13.5104C208.877 13.2792 208.754 13.0043 208.754 12.6857C208.754 12.3628 208.877 12.088 209.122 11.8611C209.372 11.6298 209.671 11.5142 210.019 11.5142C210.367 11.5142 210.664 11.6298 210.91 11.8611C211.16 12.088 211.284 12.3628 211.284 12.6857C211.284 13.0043 211.16 13.2792 210.91 13.5104C210.664 13.7373 210.367 13.8508 210.019 13.8508Z" fill="black"/>
<path d="M218.126 15.402V16.9728H212.509V15.402H218.126ZM214.015 12.9934H216.017V22.5035C216.017 22.8831 216.075 23.1689 216.191 23.3609C216.307 23.5485 216.457 23.6772 216.64 23.747C216.827 23.8125 217.03 23.8452 217.249 23.8452C217.41 23.8452 217.55 23.8343 217.671 23.8125C217.791 23.7907 217.885 23.7732 217.952 23.7601L218.313 25.3768C218.197 25.4204 218.032 25.464 217.818 25.5077C217.604 25.5557 217.336 25.5819 217.015 25.5862C216.488 25.5949 215.997 25.5033 215.542 25.3113C215.087 25.1193 214.718 24.8226 214.437 24.4212C214.156 24.0197 214.015 23.5158 214.015 22.9093V12.9934Z" fill="black"/>
<path d="M222.186 19.4861V25.4553H220.184V12.0509H222.159V17.0383H222.286C222.527 16.4972 222.895 16.0674 223.391 15.7489C223.886 15.4303 224.533 15.2711 225.332 15.2711C226.037 15.2711 226.653 15.4129 227.18 15.6965C227.711 15.9801 228.122 16.4034 228.412 16.9663C228.706 17.5248 228.853 18.2229 228.853 19.0607V25.4553H226.852V19.2963C226.852 18.5589 226.658 17.9873 226.269 17.5815C225.881 17.1713 225.341 16.9663 224.649 16.9663C224.176 16.9663 223.752 17.0644 223.377 17.2608C223.007 17.4572 222.715 17.7451 222.5 18.1248C222.291 18.5 222.186 18.9538 222.186 19.4861Z" fill="black"/>
</g>
<g clip-path="url(#clip0_9340_45)">
<path d="M256.246 2.24707C253.003 2.24707 249.833 3.2194 247.137 5.0411C244.441 6.8628 242.34 9.45205 241.099 12.4814C239.858 15.5108 239.533 18.8442 240.166 22.0602C240.798 25.2762 242.36 28.2302 244.653 30.5488C246.946 32.8674 249.867 34.4464 253.047 35.0861C256.228 35.7258 259.524 35.3974 262.52 34.1426C265.516 32.8878 268.077 30.7629 269.878 28.0365C271.68 25.3101 272.641 22.1048 272.641 18.8258C272.641 14.4289 270.914 10.212 267.839 7.10288C264.764 3.99376 260.594 2.24707 256.246 2.24707ZM256.591 32.3781C254.629 32.6525 251.435 32.1531 249.264 30.7701C247.633 29.7416 246.332 28.2565 245.519 26.4951C244.77 24.9256 244.418 23.0213 245.215 23.1146C245.587 23.1585 245.91 23.8719 246.637 24.8048C247.131 25.4414 247.584 25.9765 247.923 26.0506C248.078 26.0835 248.195 26.0122 248.311 25.8036C248.518 25.4085 248.789 24.6594 249.283 24.053C249.671 23.5975 250.165 23.3725 250.436 24.5058C250.565 25.0488 250.666 25.5983 250.737 26.1521C250.824 26.8683 250.87 27.2963 251.117 27.4171C251.364 27.5378 251.752 27.3841 252.398 27.1427C252.862 26.9671 253.456 26.7448 254.208 26.528C254.903 26.3277 255.342 26.432 254.897 27.5186C254.589 28.2435 254.196 28.928 253.725 29.5573C253.661 29.638 253.631 29.7408 253.642 29.8435C253.653 29.9463 253.703 30.0406 253.782 30.1061C254.22 30.4531 254.708 30.7306 255.228 30.9293C255.715 31.1351 256.213 31.3101 256.721 31.4534C257.331 31.6454 257.22 32.2765 256.591 32.3781ZM265.003 28.811C264.395 29.8152 263.103 30.8991 261.562 31.6235C261.326 31.7305 261.076 31.6948 261.019 31.5028C260.962 31.3107 261.098 31.1406 261.25 30.954C263.271 28.3033 261.771 25.8722 258.506 23.9844C256.097 22.5905 254.563 21.7893 252.783 20.7301C247.571 17.6267 246.564 14.924 246.36 13.3215C245.848 9.28248 249.15 6.25594 252.547 5.52606C252.653 5.5041 252.925 5.4602 253.011 5.68795C253.098 5.91569 252.897 6.08307 252.781 6.15441C251.25 6.99405 249.758 8.78035 249.921 10.7862C250.01 11.9002 250.482 13.5026 253.465 15.6539C255.264 16.9517 257.47 18.0164 261.915 20.7109C266.612 23.5591 266.077 27.0302 265 28.811H265.003ZM265.735 13.6371C264.663 14.9651 263.591 14.4603 262.767 12.6026C262.251 11.4365 261.575 11.1566 261.098 11.4612C260.577 11.7932 260.783 12.5944 261.369 13.5136C261.534 13.7813 261.605 14.0972 261.571 14.4107C261.537 14.7241 261.4 15.017 261.182 15.2423C260.938 15.4704 260.641 15.6315 260.319 15.7103C259.996 15.7891 259.659 15.7829 259.339 15.6923C258.018 15.3959 256.718 13.6069 257.668 9.69682C258.05 8.12181 257.301 7.4468 256.827 6.84039C256.591 6.53582 256.555 6.35198 256.648 6.23124C256.74 6.11051 256.962 6.08856 257.35 6.17088C257.86 6.27789 258.615 6.54131 259.228 6.63734C259.677 6.70268 260.132 6.72381 260.585 6.70045C261.717 6.6199 262.85 6.84529 263.868 7.35351C265.556 8.19864 265.727 9.65291 264.788 9.54864C264.407 9.44755 264.042 9.29333 263.703 9.09041C263.472 8.97791 263.271 8.93949 263.125 9.04925C263.051 9.11086 263 9.19678 262.983 9.29204C262.965 9.3873 262.98 9.48587 263.027 9.5706C263.236 10.0179 263.944 10.2483 264.905 10.5145C266.579 10.9755 266.614 12.5505 265.735 13.6371Z" fill="#0046FF"/>
<path d="M256.59 32.3784C254.628 32.6528 251.435 32.1534 249.264 30.7704C247.633 29.7419 246.332 28.2568 245.519 26.4954C244.77 24.9259 244.417 23.0216 245.215 23.1149C245.587 23.1588 245.91 23.8722 246.637 24.8051C247.131 25.4417 247.584 25.9768 247.923 26.0509C248.078 26.0838 248.195 26.0125 248.311 25.8039C248.517 25.4088 248.789 24.6597 249.283 24.0533C249.671 23.5978 250.165 23.3728 250.436 24.5061C250.565 25.0491 250.666 25.5986 250.737 26.1524C250.824 26.8686 250.87 27.2966 251.117 27.4174C251.364 27.5381 251.752 27.3844 252.398 27.143C252.862 26.9674 253.456 26.7451 254.208 26.5283C254.902 26.328 255.342 26.4323 254.897 27.5189C254.589 28.2438 254.195 28.9283 253.725 29.5576C253.661 29.6383 253.631 29.7411 253.642 29.8438C253.652 29.9466 253.703 30.0409 253.782 30.1064C254.22 30.4534 254.708 30.7309 255.228 30.9296C255.714 31.1354 256.213 31.3104 256.721 31.4537C257.331 31.6457 257.22 32.2768 256.59 32.3784ZM265.002 28.8113C264.394 29.8155 263.103 30.8994 261.562 31.6238C261.325 31.7308 261.076 31.6951 261.019 31.5031C260.962 31.311 261.098 31.1409 261.249 30.9543C263.271 28.3036 261.77 25.8725 258.506 23.9847C256.096 22.5908 254.563 21.7896 252.783 20.7304C247.57 17.627 246.564 14.9243 246.36 13.3218C245.847 9.28278 249.15 6.25624 252.547 5.52636C252.653 5.50441 252.924 5.4605 253.011 5.68825C253.098 5.91599 252.897 6.08337 252.78 6.15472C251.25 6.99436 249.758 8.78065 249.92 10.7865C250.01 11.9005 250.482 13.5029 253.464 15.6542C255.263 16.952 257.469 18.0167 261.914 20.7112C266.611 23.5594 266.077 27.0305 265 28.8113H265.002ZM265.735 13.6374C264.663 14.9654 263.591 14.4606 262.766 12.6029C262.251 11.4368 261.575 11.1569 261.098 11.4615C260.577 11.7935 260.783 12.5947 261.369 13.5139C261.534 13.7816 261.605 14.0975 261.571 14.411C261.537 14.7244 261.4 15.0173 261.182 15.2426C260.938 15.4707 260.641 15.6318 260.318 15.7106C259.996 15.7894 259.659 15.7832 259.339 15.6926C258.018 15.3962 256.718 13.6072 257.668 9.69712C258.05 8.12211 257.301 7.4471 256.826 6.8407C256.59 6.53612 256.555 6.35228 256.647 6.23154C256.74 6.11081 256.962 6.08886 257.35 6.17118C257.86 6.27819 258.615 6.54161 259.228 6.63765C259.677 6.70298 260.131 6.72411 260.585 6.70076C261.717 6.6202 262.85 6.84559 263.868 7.35381C265.556 8.19894 265.727 9.65321 264.788 9.54895C264.407 9.44785 264.042 9.29363 263.703 9.09071C263.472 8.97821 263.271 8.9398 263.125 9.04955C263.051 9.11116 263 9.19708 262.982 9.29234C262.964 9.3876 262.98 9.48617 263.027 9.5709C263.236 10.0182 263.944 10.2486 264.905 10.5148C266.579 10.9758 266.614 12.5508 265.735 13.6374Z" fill="white"/>
<path d="M279.762 24.6623C280.165 24.9945 280.603 25.2816 281.067 25.5184C281.55 25.7684 282.051 25.9821 282.565 26.1577C283.062 26.3254 283.57 26.4583 284.085 26.5556C284.543 26.6472 285.009 26.695 285.477 26.6983C286.527 26.6983 287.352 26.476 287.943 26.0315C288.535 25.587 288.836 24.9339 288.836 24.0339C288.856 23.4236 288.689 22.822 288.359 22.3107C288.038 21.8388 287.449 21.3815 286.589 20.9388C286.09 20.679 285.616 20.4439 285.168 20.2336C284.72 20.025 284.291 19.8083 283.876 19.5805C283.461 19.3528 283.062 19.1141 282.676 18.8616C282.277 18.6016 281.893 18.3185 281.526 18.0137C280.869 17.4242 280.311 16.7311 279.873 15.9613C279.419 15.1086 279.196 14.1496 279.228 13.1817C279.22 12.4638 279.374 11.7536 279.678 11.1046C279.981 10.4611 280.428 9.89756 280.983 9.4582C281.605 8.97844 282.31 8.61934 283.062 8.39904C283.965 8.13587 284.901 8.0092 285.84 8.02313C287.887 7.98443 289.92 8.37495 291.81 9.17009V12.4107C291.824 12.5069 291.804 12.6048 291.755 12.6882C291.705 12.7716 291.629 12.8354 291.539 12.8689C291.444 12.8973 291.344 12.8991 291.248 12.8739C291.152 12.8488 291.065 12.7977 290.996 12.7262C289.714 11.5746 288.06 10.9338 286.345 10.9235C285.417 10.9235 284.717 11.121 284.215 11.5244C283.971 11.7247 283.777 11.9805 283.65 12.2709C283.522 12.5613 283.464 12.878 283.48 13.1954C283.468 13.6448 283.556 14.0912 283.737 14.5015C283.919 14.879 284.183 15.2095 284.511 15.4674C285.165 16.0065 285.87 16.4789 286.617 16.8778C287.365 17.2784 288.102 17.6525 288.825 18C289.452 18.2864 290.052 18.628 290.619 19.0208C291.125 19.3677 291.575 19.7905 291.954 20.2747C292.331 20.7524 292.616 21.2967 292.795 21.8799C292.991 22.5626 293.082 23.2713 293.067 23.9818C293.096 24.8659 292.899 25.7428 292.497 26.5281C292.107 27.2357 291.553 27.8366 290.882 28.2788C290.145 28.7608 289.326 29.1013 288.467 29.283C287.497 29.498 286.506 29.6038 285.512 29.5986C284.7 29.5899 283.891 29.4979 283.097 29.3242C282.333 29.1704 281.585 28.9472 280.861 28.6574C280.3 28.4423 279.777 28.1375 279.312 27.7547C278.934 27.4254 278.812 27.0934 278.951 26.7614L279.762 24.6623Z" fill="#0046FF"/>
<path d="M295.389 8.32788H299.807V15.613C300.355 15.1495 300.973 14.7788 301.638 14.5154C302.357 14.2314 303.122 14.0898 303.893 14.0983C304.643 14.0883 305.389 14.2032 306.102 14.4386C306.726 14.6418 307.306 14.9651 307.809 15.3907C308.274 15.7962 308.644 16.3003 308.894 16.867C309.16 17.4712 309.292 18.1266 309.282 18.7877V29.2859H305.231V19.3228C305.231 17.8776 304.447 17.1551 302.878 17.1551C302.346 17.1552 301.819 17.2634 301.329 17.4734C300.791 17.7096 300.28 18.0059 299.807 18.3569V29.2722H295.753V10.9373C295.764 10.576 295.72 10.2149 295.622 9.86722C295.512 9.55788 295.336 9.27683 295.107 9.04404C295.038 8.98145 294.989 8.89885 294.969 8.80751C294.948 8.71617 294.955 8.62054 294.99 8.53367C295.031 8.46486 295.09 8.40904 295.16 8.37263C295.231 8.33622 295.31 8.32071 295.389 8.32788Z" fill="#0046FF"/>
<path d="M316.919 14.5951V29.2724H312.848V17.1799C312.859 16.8349 312.811 16.4906 312.707 16.1619C312.588 15.868 312.417 15.5984 312.202 15.3662C312.133 15.3016 312.084 15.2177 312.061 15.125C312.038 15.0322 312.043 14.9348 312.075 14.8448C312.107 14.7691 312.161 14.7055 312.231 14.6631C312.301 14.6207 312.382 14.6017 312.463 14.6089L316.919 14.5951ZM317.073 9.94693C317.081 10.2751 317.024 10.6016 316.904 10.9067C316.784 11.2118 316.605 11.4892 316.376 11.7222C315.896 12.172 315.266 12.4219 314.612 12.4219C313.958 12.4219 313.328 12.172 312.848 11.7222C312.622 11.4881 312.445 11.2102 312.327 10.9051C312.21 10.6001 312.154 10.2742 312.164 9.94693C312.155 9.61932 312.21 9.29306 312.328 8.98759C312.445 8.68211 312.622 8.40368 312.848 8.16887C313.328 7.71913 313.958 7.46924 314.612 7.46924C315.266 7.46924 315.896 7.71913 316.376 8.16887C316.602 8.40377 316.779 8.68222 316.896 8.98767C317.014 9.29312 317.069 9.61934 317.06 9.94693H317.073Z" fill="#0046FF"/>
<path d="M320.21 14.595H324.516V16.0328C325.055 15.4998 325.658 15.0387 326.313 14.6609C327.035 14.2614 327.85 14.0626 328.673 14.0847C329.402 14.0779 330.126 14.1881 330.82 14.4112C331.448 14.6143 332.031 14.9386 332.538 15.3661C333.031 15.7892 333.424 16.3203 333.685 16.9191C333.971 17.5913 334.111 18.3171 334.098 19.0484V29.2585H330.052V19.4271C330.052 18.6039 329.867 17.9865 329.509 17.6106C329.151 17.2347 328.543 17.0618 327.716 17.0618C327.164 17.0574 326.618 17.1734 326.115 17.4021C325.586 17.6475 325.097 17.9733 324.666 18.3679V29.2832H320.598V17.2319C320.609 16.8698 320.562 16.5082 320.457 16.1618C320.338 15.8679 320.167 15.5983 319.952 15.3661C319.781 15.1767 319.732 15.0011 319.811 14.8447C319.844 14.7668 319.9 14.7011 319.972 14.6564C320.043 14.6118 320.126 14.5904 320.21 14.595Z" fill="#0046FF"/>
<path d="M337.181 8.32785H341.612V15.613C342.16 15.1488 342.78 14.7781 343.446 14.5154C344.159 14.2333 344.918 14.0918 345.682 14.0983C346.432 14.0887 347.178 14.2037 347.891 14.4386C348.514 14.6424 349.093 14.9657 349.595 15.3907C350.06 15.7962 350.431 16.3002 350.681 16.8669C350.948 17.4707 351.08 18.1264 351.069 18.7877V29.2859H347.023V19.3227C347.023 17.8776 346.24 17.155 344.673 17.155C344.141 17.1552 343.614 17.2634 343.123 17.4733C342.589 17.7098 342.082 18.0061 341.612 18.3569V29.2722H337.542V10.9373C337.554 10.5761 337.511 10.2151 337.414 9.86719C337.303 9.55837 337.127 9.27753 336.899 9.04402C336.741 8.85194 336.703 8.68182 336.782 8.53365C336.822 8.46415 336.881 8.40775 336.951 8.37124C337.022 8.33474 337.102 8.31967 337.181 8.32785Z" fill="#0046FF"/>
<path d="M360.273 16.8423C359.468 16.8408 358.67 16.9916 357.92 17.2868C357.207 17.56 356.523 17.9057 355.879 18.3186C355.586 18.5106 355.364 18.5628 355.209 18.475C355.054 18.3871 354.976 18.2006 354.976 17.9015V15.185C355.842 14.8124 356.748 14.5435 357.676 14.3838C358.617 14.2057 359.573 14.1139 360.53 14.1094C362.544 14.1094 364.098 14.5008 365.192 15.2838C366.287 16.0667 366.839 17.274 366.848 18.9058V29.2723H362.853V27.6808C362.323 28.3656 361.63 28.9045 360.84 29.2476C360.055 29.5814 359.211 29.7504 358.36 29.7442C357.682 29.7509 357.008 29.6357 356.371 29.404C355.805 29.2028 355.288 28.884 354.851 28.4681C354.415 28.0522 354.07 27.5484 353.839 26.9893C353.593 26.3895 353.47 25.7453 353.478 25.096C353.478 23.5302 354.021 22.289 355.106 21.3725C356.191 20.4561 357.875 19.9987 360.156 20.0006H362.777V18.903C362.777 18.1649 362.563 17.6408 362.131 17.3253C361.7 17.0097 361.081 16.8423 360.273 16.8423ZM362.777 22.7445H360.142C359.144 22.7445 358.434 22.9521 358.012 23.3674C357.8 23.5828 357.634 23.8402 357.525 24.1235C357.416 24.4068 357.365 24.7099 357.377 25.0137C357.355 25.5217 357.527 26.019 357.858 26.4021C358.036 26.5907 358.253 26.7374 358.494 26.8317C358.734 26.9261 358.992 26.9658 359.25 26.9482C359.93 26.9545 360.602 26.7984 361.212 26.4927C361.81 26.1851 362.342 25.7608 362.777 25.2442V22.7445Z" fill="#0046FF"/>
<path d="M369.833 14.595H374.147V16.0328C374.685 15.5004 375.288 15.0394 375.941 14.6608C376.665 14.2617 377.48 14.063 378.305 14.0846C379.033 14.0778 379.757 14.188 380.451 14.4111C381.079 14.6137 381.661 14.9381 382.166 15.366C382.661 15.789 383.054 16.32 383.316 16.9191C383.602 17.5912 383.742 18.317 383.729 19.0484V29.2585H379.672V19.427C379.672 18.6038 379.485 17.9865 379.129 17.6105C378.774 17.2346 378.161 17.0618 377.336 17.0618C376.784 17.0573 376.238 17.1734 375.735 17.402C375.206 17.6468 374.717 17.9726 374.286 18.3679V29.2832H370.218V17.2319C370.23 16.8695 370.182 16.5077 370.074 16.1618C369.953 15.8671 369.779 15.5974 369.561 15.366C369.391 15.1767 369.342 15.0011 369.42 14.8447C369.454 14.7642 369.512 14.6966 369.586 14.6517C369.66 14.6068 369.747 14.5869 369.833 14.595Z" fill="#0046FF"/>
<path d="M392.356 8.90141H399.463C400.429 8.89135 401.392 9.00943 402.328 9.25263C403.108 9.45377 403.844 9.7999 404.499 10.2734C405.078 10.6969 405.551 11.2513 405.88 11.8923C406.214 12.5497 406.383 13.2798 406.374 14.0188C406.374 16.0054 405.616 17.4597 404.1 18.3817C405.08 18.7307 405.937 19.3621 406.567 20.1981C407.162 21.0067 407.458 22.0905 407.457 23.4497C407.478 24.3256 407.292 25.194 406.914 25.9823C406.546 26.7104 406.01 27.3381 405.351 27.8125C404.612 28.3294 403.783 28.7016 402.909 28.9101C401.878 29.1638 400.819 29.2864 399.758 29.275H392.73V11.5383C392.744 11.1761 392.696 10.8142 392.589 10.4682C392.471 10.1697 392.3 9.89547 392.084 9.65873C392.015 9.59374 391.967 9.50983 391.944 9.41725C391.921 9.32467 391.926 9.22743 391.957 9.13739C391.988 9.05918 392.045 8.99367 392.117 8.95101C392.189 8.90835 392.273 8.89092 392.356 8.90141ZM396.955 17.2073H399.178C400.16 17.2073 400.904 17.007 401.411 16.6063C401.917 16.2057 402.172 15.5097 402.173 14.5182C402.173 13.5249 401.916 12.8252 401.397 12.4136C400.879 12.002 400.108 11.799 399.093 11.799H396.95L396.955 17.2073ZM403.123 23.2137C403.123 22.1161 402.827 21.3259 402.23 20.8375C401.633 20.3491 400.73 20.1048 399.517 20.1048H396.961V26.3747H399.544C400.765 26.3747 401.671 26.1223 402.257 25.6174C402.844 25.1125 403.123 24.3113 403.123 23.2137Z" fill="#0046FF"/>
<path d="M415.933 16.8423C415.129 16.8406 414.332 16.9914 413.583 17.2868C412.87 17.5589 412.186 17.9046 411.543 18.3186C411.249 18.5106 411.024 18.5628 410.87 18.475C410.715 18.3871 410.639 18.2006 410.639 17.9015V15.185C411.504 14.8124 412.409 14.5435 413.336 14.3838C414.278 14.2059 415.233 14.114 416.191 14.1094C418.206 14.1094 419.76 14.5008 420.853 15.2838C421.945 16.0667 422.493 17.2777 422.494 18.9167V29.2833H418.516V27.6918C417.984 28.3761 417.291 28.9147 416.5 29.2586C415.716 29.5921 414.873 29.7611 414.023 29.7552C413.345 29.7623 412.671 29.6471 412.034 29.415C411.461 29.2089 410.937 28.8847 410.495 28.4628C410.07 28.047 409.732 27.5498 409.499 27.0003C409.254 26.4003 409.132 25.7561 409.141 25.107C409.141 23.5411 409.684 22.3 410.769 21.3835C411.855 20.467 413.538 20.0097 415.819 20.0116H418.427V18.914C418.427 18.1759 418.212 17.6518 417.781 17.3362C417.35 17.0207 416.742 16.8423 415.933 16.8423ZM418.438 22.7445H415.806C414.804 22.7445 414.096 22.953 413.673 23.3674C413.46 23.5826 413.294 23.84 413.186 24.1234C413.077 24.4068 413.027 24.71 413.04 25.0137C413.014 25.5265 413.187 26.0293 413.521 26.4159C413.699 26.6005 413.915 26.7437 414.153 26.8356C414.392 26.9276 414.647 26.966 414.902 26.9482C415.583 26.9543 416.256 26.7983 416.867 26.4927C417.467 26.1887 418.002 25.7671 418.44 25.2524L418.438 22.7445Z" fill="#0046FF"/>
<path d="M425.493 14.595H429.802V16.0328C430.34 15.4998 430.944 15.0387 431.598 14.6609C432.321 14.2614 433.136 14.0626 433.959 14.0847C434.687 14.0776 435.412 14.1879 436.106 14.4112C436.734 14.6137 437.317 14.938 437.823 15.3661C438.317 15.7892 438.71 16.3203 438.971 16.9191C439.258 17.5909 439.398 18.317 439.384 19.0484V29.2585H435.332V19.4271C435.332 18.6039 435.148 17.9865 434.79 17.6106C434.431 17.2347 433.823 17.0618 432.996 17.0618C432.444 17.058 431.898 17.174 431.395 17.4021C430.867 17.647 430.379 17.9727 429.949 18.3679V29.2832H425.878V17.2319C425.891 16.8697 425.843 16.5079 425.737 16.1618C425.618 15.8679 425.447 15.5983 425.232 15.3661C425.061 15.1767 425.013 15.0011 425.091 14.8447C425.125 14.7666 425.182 14.7008 425.253 14.6561C425.325 14.6115 425.409 14.5902 425.493 14.595Z" fill="#0046FF"/>
<path d="M442.827 29.2721V10.9372C442.839 10.5758 442.795 10.2148 442.697 9.86705C442.586 9.55822 442.41 9.27739 442.181 9.04387C442.026 8.8518 441.986 8.68168 442.064 8.53351C442.102 8.46146 442.16 8.40226 442.231 8.36324C442.302 8.32422 442.383 8.30709 442.463 8.31399H446.881V20.3406L452.021 14.5948H456.666L451.114 20.8537L457.339 29.2638H452.867L448.403 23.1367C448.248 22.8911 448.05 22.6755 447.82 22.5001C447.641 22.4067 447.441 22.3623 447.239 22.3711H446.878V29.2638L442.827 29.2721Z" fill="#0046FF"/>
</g>
<defs>
<clipPath id="clip0_9340_45">
<rect width="217.486" height="37.1006" fill="white" transform="translate(239.854)"/>
</clipPath>
</defs>
</svg>
