<svg width="187" height="144" viewBox="0 0 187 144" fill="none" xmlns="http://www.w3.org/2000/svg">
<path d="M41.235 144C37.2781 144 35.0567 141.155 35.0567 136.852V119.92C35.0567 118.118 33.596 116.657 31.794 116.657C11.1071 116.657 0 105.346 0 84.9426V31.7841C0 11.3812 11.1071 0 31.794 0H121.206C141.893 0 153 11.4506 153 31.7841V84.9426C153 105.276 141.893 116.657 121.206 116.657H77.3834C75.3861 116.657 73.461 117.404 71.9866 118.752L49.2182 139.559C45.9555 142.612 43.9424 144 41.235 144ZM41.9292 50.799C41.9292 58.9186 46.9968 65.2337 55.1189 65.2337C58.0598 65.2337 61.0008 64.7622 62.8795 62.4917C62.9329 62.4272 63.012 62.3884 63.0956 62.3884C63.2943 62.3884 63.4266 62.5935 63.3413 62.7729C60.6409 68.4532 55.2947 72.1314 50.7455 73.3532C48.0381 74.0472 47.2745 75.1576 47.2745 76.8925C47.2745 78.6969 48.8017 80.2236 50.8149 80.2236C58.0345 80.2236 72.5431 71.6183 72.5431 53.4361C72.5431 43.7205 66.2954 36.2949 56.9932 36.2949C48.3852 36.2949 41.9292 42.2631 41.9292 50.799ZM80.5957 50.799C80.5957 58.9186 85.6633 65.2337 93.716 65.2337C96.7253 65.2337 99.6673 64.7622 101.546 62.4917C101.599 62.4272 101.679 62.3884 101.762 62.3884C101.961 62.3884 102.093 62.5935 102.008 62.7729C99.3074 68.4532 93.9597 72.1314 89.3426 73.3532C86.774 74.0472 85.941 75.1576 85.941 76.8925C85.941 78.6969 87.4682 80.2236 89.4814 80.2236C96.701 80.2236 111.21 71.6183 111.21 53.4361C111.21 43.7205 104.892 36.2949 95.5903 36.2949C86.9823 36.2949 80.5957 42.2631 80.5957 50.799Z" fill="#0F1FEA"/>
<path d="M163.958 144C162.39 144 161.293 143.216 159.451 141.493L145.265 128.564H119.166C109.721 128.564 104 122.335 104 112.972V79.0049C104 69.6024 109.721 64 119.166 64H171.834C180.887 64 187 69.5632 187 79.0049V112.972C187 122.374 180.887 128.564 171.834 128.564H167.445V139.965C167.445 142.394 166.152 144 163.958 144Z" fill="url(#paint0_linear_9233_14788)"/>
<defs>
<linearGradient id="paint0_linear_9233_14788" x1="139.464" y1="103.454" x2="139.464" y2="201.534" gradientUnits="userSpaceOnUse">
<stop stop-color="#FF6700"/>
<stop offset="1" stop-color="#FF6700" stop-opacity="0"/>
</linearGradient>
</defs>
</svg>
