<svg width="12" height="20" viewBox="0 0 12 20" fill="none" xmlns="http://www.w3.org/2000/svg">
<g clip-path="url(#clip0_9319_140)">
<path opacity="0.5" d="M0.741699 9.99414C0.741699 9.80078 0.777507 9.62174 0.849121 9.45703C0.920736 9.29232 1.03532 9.13477 1.19287 8.98438L9.05615 1.29297C9.29964 1.04948 9.60042 0.927734 9.9585 0.927734C10.202 0.927734 10.4204 0.985026 10.6138 1.09961C10.8071 1.20703 10.9611 1.35742 11.0757 1.55078C11.1974 1.74414 11.2583 1.96257 11.2583 2.20605C11.2583 2.55697 11.1222 2.86849 10.8501 3.14062L3.81396 9.99414L10.8501 16.8477C11.1222 17.1198 11.2583 17.4313 11.2583 17.7822C11.2583 18.0186 11.1974 18.2334 11.0757 18.4268C10.9611 18.6273 10.8071 18.7848 10.6138 18.8994C10.4204 19.014 10.202 19.0713 9.9585 19.0713C9.60042 19.0713 9.29964 18.9495 9.05615 18.7061L1.19287 11.0039C1.03532 10.8535 0.920736 10.696 0.849121 10.5312C0.777507 10.3665 0.741699 10.1875 0.741699 9.99414Z" fill="#2D154B"/>
</g>
<defs>
<clipPath id="clip0_9319_140">
<rect width="10.5166" height="18.1436" fill="white" transform="translate(0.741699 0.927734)"/>
</clipPath>
</defs>
</svg>
