<svg width="11" height="20" viewBox="0 0 11 20" fill="none" xmlns="http://www.w3.org/2000/svg">
<g clip-path="url(#clip0_397_11084)">
<path d="M10.7529 9.99463C10.7529 10.188 10.7171 10.367 10.6455 10.5317C10.5811 10.6965 10.4665 10.854 10.3018 11.0044L2.43848 18.7065C2.19499 18.95 1.89779 19.0718 1.54688 19.0718C1.30339 19.0718 1.08138 19.0145 0.880859 18.8999C0.6875 18.7853 0.533529 18.6278 0.418945 18.4272C0.304362 18.2339 0.24707 18.019 0.24707 17.7827C0.24707 17.4318 0.379557 17.1203 0.644531 16.8481L7.68066 9.99463L0.644531 3.14111C0.379557 2.86898 0.24707 2.55745 0.24707 2.20654C0.24707 1.96305 0.304362 1.74463 0.418945 1.55127C0.533529 1.35791 0.6875 1.20752 0.880859 1.1001C1.08138 0.985514 1.30339 0.928223 1.54688 0.928223C1.89779 0.928223 2.19499 1.04997 2.43848 1.29346L10.3018 8.98486C10.4593 9.13525 10.5739 9.29281 10.6455 9.45752C10.7171 9.62223 10.7529 9.80127 10.7529 9.99463Z" fill="white"/>
</g>
<defs>
<clipPath id="clip0_397_11084">
<rect width="10.5059" height="18.1436" fill="white" transform="translate(0.24707 0.928223)"/>
</clipPath>
</defs>
</svg>
