<svg width="20" height="20" viewBox="0 0 20 20" fill="none" xmlns="http://www.w3.org/2000/svg">
<g clip-path="url(#clip0_9319_142)">
<path d="M1.49756 19.0771C1.25407 19.0771 1.03564 19.0199 0.842285 18.9053C0.648926 18.7907 0.491374 18.6367 0.369629 18.4434C0.255046 18.25 0.197754 18.0316 0.197754 17.7881C0.197754 17.4372 0.330241 17.1257 0.595215 16.8535L8.11475 9.5166V10.4727L0.595215 3.14648C0.330241 2.87435 0.197754 2.56283 0.197754 2.21191C0.197754 1.96842 0.255046 1.75 0.369629 1.55664C0.491374 1.36328 0.648926 1.20931 0.842285 1.09473C1.03564 0.980143 1.25407 0.922852 1.49756 0.922852C1.84847 0.922852 2.14925 1.04818 2.3999 1.29883L10.2632 8.97949C10.4136 9.12272 10.5246 9.28027 10.5962 9.45215C10.675 9.62402 10.7179 9.80664 10.7251 10C10.7251 10.3796 10.5711 10.7161 10.2632 11.0098L2.3999 18.7119C2.271 18.8265 2.13135 18.916 1.98096 18.9805C1.83773 19.0449 1.6766 19.0771 1.49756 19.0771ZM10.5747 19.0771C10.3312 19.0771 10.1128 19.0199 9.91943 18.9053C9.72607 18.7907 9.56852 18.6367 9.44678 18.4434C9.33219 18.25 9.2749 18.0316 9.2749 17.7881C9.2749 17.4372 9.40739 17.1257 9.67236 16.8535L17.1919 9.5166V10.4727L9.67236 3.14648C9.40739 2.87435 9.2749 2.56283 9.2749 2.21191C9.2749 1.96842 9.33219 1.75 9.44678 1.55664C9.56852 1.36328 9.72607 1.20931 9.91943 1.09473C10.1128 0.980143 10.3312 0.922852 10.5747 0.922852C10.9256 0.922852 11.2264 1.04818 11.4771 1.29883L19.3403 8.97949C19.4907 9.12272 19.6017 9.28027 19.6733 9.45215C19.7521 9.62402 19.7951 9.80664 19.8022 10C19.8022 10.3796 19.6483 10.7161 19.3403 11.0098L11.4771 18.7119C11.3481 18.8265 11.2085 18.916 11.0581 18.9805C10.9149 19.0449 10.7537 19.0771 10.5747 19.0771Z" fill="#2D154B"/>
</g>
<defs>
<clipPath id="clip0_9319_142">
<rect width="19.6045" height="18.1543" fill="white" transform="translate(0.197754 0.922852)"/>
</clipPath>
</defs>
</svg>
