<svg width="12" height="20" viewBox="0 0 12 20" fill="none" xmlns="http://www.w3.org/2000/svg">
<g clip-path="url(#clip0_9319_141)">
<path d="M11.2529 9.99414C11.2529 10.1875 11.2171 10.3665 11.1455 10.5312C11.0811 10.696 10.9665 10.8535 10.8018 11.0039L2.93848 18.7061C2.69499 18.9495 2.39779 19.0713 2.04688 19.0713C1.80339 19.0713 1.58138 19.014 1.38086 18.8994C1.1875 18.7848 1.03353 18.6273 0.918945 18.4268C0.804362 18.2334 0.74707 18.0186 0.74707 17.7822C0.74707 17.4313 0.879557 17.1198 1.14453 16.8477L8.18066 9.99414L1.14453 3.14062C0.879557 2.86849 0.74707 2.55697 0.74707 2.20605C0.74707 1.96257 0.804362 1.74414 0.918945 1.55078C1.03353 1.35742 1.1875 1.20703 1.38086 1.09961C1.58138 0.985026 1.80339 0.927734 2.04688 0.927734C2.39779 0.927734 2.69499 1.04948 2.93848 1.29297L10.8018 8.98438C10.9593 9.13477 11.0739 9.29232 11.1455 9.45703C11.2171 9.62174 11.2529 9.80078 11.2529 9.99414Z" fill="#2D154B"/>
</g>
<defs>
<clipPath id="clip0_9319_141">
<rect width="10.5059" height="18.1436" fill="white" transform="translate(0.74707 0.927734)"/>
</clipPath>
</defs>
</svg>
