<svg width="8" height="13" viewBox="0 0 8 13" fill="none" xmlns="http://www.w3.org/2000/svg">
<g clip-path="url(#clip0_210_36211)">
<path d="M7.0752 6.49658C7.0752 6.64697 7.04785 6.78597 6.99316 6.91357C6.93848 7.03662 6.84961 7.15739 6.72656 7.27588L1.79785 12.1021C1.62012 12.2843 1.39681 12.3755 1.12793 12.3755C0.950195 12.3755 0.786133 12.3322 0.635742 12.2456C0.489909 12.159 0.371419 12.0428 0.280273 11.897C0.193685 11.7511 0.150391 11.5894 0.150391 11.4116C0.150391 11.1427 0.255208 10.9058 0.464844 10.7007L4.79199 6.49658L0.464844 2.28564C0.255208 2.08512 0.150391 1.8527 0.150391 1.58838C0.150391 1.40609 0.193685 1.24202 0.280273 1.09619C0.371419 0.950358 0.489909 0.836426 0.635742 0.754395C0.786133 0.667806 0.950195 0.624512 1.12793 0.624512C1.39681 0.624512 1.62012 0.715658 1.79785 0.897949L6.72656 5.71729C6.84961 5.83577 6.93848 5.95882 6.99316 6.08643C7.04785 6.20947 7.0752 6.34619 7.0752 6.49658Z" fill="#0F38EE"/>
</g>
<defs>
<clipPath id="clip0_210_36211">
<rect width="6.9248" height="11.751" fill="white" transform="translate(0.150391 0.624512)"/>
</clipPath>
</defs>
</svg>
