<svg width="20" height="20" viewBox="0 0 20 20" fill="none" xmlns="http://www.w3.org/2000/svg">
<g clip-path="url(#clip0_9319_139)">
<path opacity="0.5" d="M8.51221 18.7119L0.659668 11.0098C0.351725 10.7161 0.197754 10.3796 0.197754 10C0.197754 9.80664 0.237142 9.62402 0.315918 9.45215C0.394694 9.28027 0.509277 9.12272 0.659668 8.97949L8.52295 1.29883C8.7736 1.04818 9.0708 0.922852 9.41455 0.922852C9.6652 0.922852 9.88721 0.980143 10.0806 1.09473C10.2739 1.20931 10.4279 1.36328 10.5425 1.55664C10.6642 1.75 10.7251 1.96842 10.7251 2.21191C10.7251 2.56283 10.589 2.87435 10.3169 3.14648L2.78662 10.4727V9.5166L10.3169 16.8535C10.589 17.1257 10.7251 17.4372 10.7251 17.7881C10.7251 18.0316 10.6642 18.25 10.5425 18.4434C10.4279 18.6367 10.2739 18.7907 10.0806 18.9053C9.88721 19.0199 9.6652 19.0771 9.41455 19.0771C9.24268 19.0771 9.08154 19.0449 8.93115 18.9805C8.78076 18.916 8.64111 18.8265 8.51221 18.7119ZM17.6001 18.7119L9.73682 11.0098C9.42887 10.7161 9.2749 10.3796 9.2749 10C9.2749 9.80664 9.31429 9.62402 9.39307 9.45215C9.47184 9.28027 9.58643 9.12272 9.73682 8.97949L17.6001 1.29883C17.8507 1.04818 18.1515 0.922852 18.5024 0.922852C18.7459 0.922852 18.9644 0.980143 19.1577 1.09473C19.3511 1.20931 19.505 1.36328 19.6196 1.55664C19.7414 1.75 19.8022 1.96842 19.8022 2.21191C19.8022 2.56283 19.6662 2.87435 19.394 3.14648L11.8745 10.4727V9.5166L19.394 16.8535C19.6662 17.1257 19.8022 17.4372 19.8022 17.7881C19.8022 18.0316 19.7414 18.25 19.6196 18.4434C19.505 18.6367 19.3511 18.7907 19.1577 18.9053C18.9644 19.0199 18.7459 19.0771 18.5024 19.0771C18.3234 19.0771 18.1587 19.0449 18.0083 18.9805C17.8579 18.916 17.7218 18.8265 17.6001 18.7119Z" fill="#2D154B"/>
</g>
<defs>
<clipPath id="clip0_9319_139">
<rect width="19.6045" height="18.1543" fill="white" transform="translate(0.197754 0.922852)"/>
</clipPath>
</defs>
</svg>
