<svg width="20" height="21" viewBox="0 0 20 21" fill="none" xmlns="http://www.w3.org/2000/svg">
<g clip-path="url(#clip0_399_14034)">
<path d="M10.5381 6.573C11.0524 6.67065 11.4919 6.81714 11.8564 7.01245C12.2275 7.20776 12.5465 7.43563 12.8135 7.69604C13.5817 8.46427 14.0928 9.31388 14.3467 10.2449C14.6071 11.1694 14.6071 12.0938 14.3467 13.0183C14.0928 13.9428 13.585 14.7859 12.8232 15.5476L9.59082 18.78C8.8291 19.5417 7.986 20.0496 7.06152 20.3035C6.13704 20.5639 5.20931 20.5671 4.27832 20.3132C3.35384 20.0593 2.50749 19.545 1.73926 18.7703C0.964518 18.002 0.450195 17.1557 0.196289 16.2312C-0.0576172 15.3002 -0.0576172 14.3725 0.196289 13.448C0.456706 12.5235 0.967773 11.6804 1.72949 10.9187L4.34668 8.31128C4.25553 8.68888 4.23275 9.08602 4.27832 9.50269C4.3304 9.91935 4.43132 10.3067 4.58105 10.6648L3.09668 12.1492C2.58887 12.6635 2.24707 13.2299 2.07129 13.8484C1.90202 14.4669 1.90202 15.0854 2.07129 15.7039C2.24707 16.3223 2.59212 16.8888 3.10645 17.4031C3.62077 17.9174 4.18717 18.2592 4.80566 18.4285C5.42415 18.6042 6.04264 18.6042 6.66113 18.4285C7.27962 18.2592 7.84603 17.9174 8.36035 17.4031L11.4463 14.3269C11.9606 13.8126 12.3024 13.2462 12.4717 12.6277C12.6475 12.0092 12.6475 11.3907 12.4717 10.7722C12.3024 10.1472 11.9606 9.57756 11.4463 9.06323C11.1663 8.78979 10.8278 8.56844 10.4307 8.39917C10.04 8.22339 9.58105 8.10946 9.05371 8.05737L10.5381 6.573ZM9.46387 14.4343C8.94954 14.3302 8.50684 14.1804 8.13574 13.9851C7.76465 13.7898 7.44889 13.5652 7.18848 13.3113C6.41374 12.5365 5.89941 11.6869 5.64551 10.7625C5.39811 9.83797 5.40137 8.91349 5.65527 7.98901C5.90918 7.06453 6.41699 6.22144 7.17871 5.45972L10.4209 2.22729C11.1761 1.45907 12.016 0.947998 12.9404 0.694092C13.8649 0.433675 14.7894 0.433675 15.7139 0.694092C16.6383 0.947998 17.488 1.46232 18.2627 2.23706C19.0309 3.00529 19.542 3.8549 19.7959 4.78589C20.0563 5.71037 20.0596 6.63485 19.8057 7.55933C19.5518 8.47729 19.0407 9.32039 18.2725 10.0886L15.6553 12.696C15.7464 12.3119 15.766 11.9115 15.7139 11.4949C15.6683 11.0782 15.5706 10.6941 15.4209 10.3425L16.8955 8.85815C17.4098 8.34383 17.7516 7.78068 17.9209 7.1687C18.0967 6.55021 18.0967 5.93172 17.9209 5.31323C17.7516 4.68823 17.4098 4.11532 16.8955 3.59448C16.3747 3.08016 15.805 2.73836 15.1865 2.56909C14.568 2.39982 13.9495 2.39982 13.3311 2.56909C12.7126 2.73836 12.1494 3.08016 11.6416 3.59448L8.5459 6.68042C8.03809 7.19474 7.69629 7.76115 7.52051 8.37964C7.35124 8.99813 7.35124 9.61662 7.52051 10.2351C7.69629 10.8536 8.0446 11.42 8.56543 11.9343C8.83236 12.2143 9.16113 12.4421 9.55176 12.6179C9.94889 12.7872 10.4111 12.8979 10.9385 12.95L9.46387 14.4343Z" fill="#0F38EE"/>
</g>
<defs>
<clipPath id="clip0_399_14034">
<rect width="19.9878" height="20.0025" fill="white" transform="translate(0.00585938 0.498779)"/>
</clipPath>
</defs>
</svg>
