<svg width="29" height="28" viewBox="0 0 29 28" fill="none" xmlns="http://www.w3.org/2000/svg">
<g clip-path="url(#clip0_122_26346)">
<path d="M28.7778 14C28.7778 6.26801 22.5098 0 14.7778 0C7.04584 0 0.777832 6.26801 0.777832 14C0.777832 20.9878 5.89746 26.7796 12.5903 27.8299V18.0469H9.03564V14H12.5903V10.9156C12.5903 7.40687 14.6804 5.46875 17.8783 5.46875C19.4101 5.46875 21.0122 5.74219 21.0122 5.74219V9.1875H19.2468C17.5077 9.1875 16.9653 10.2666 16.9653 11.3738V14H20.8481L20.2274 18.0469H16.9653V27.8299C23.6583 26.7796 28.7778 20.9878 28.7778 14Z" fill="black"/>
</g>
<defs>
<clipPath id="clip0_122_26346">
<rect width="28" height="27.8299" fill="white" transform="translate(0.777832)"/>
</clipPath>
</defs>
</svg>
