<svg width="98" height="98" viewBox="0 0 98 98" fill="none" xmlns="http://www.w3.org/2000/svg">
<path d="M2 28C2 23.5817 5.58172 20 10 20H46C50.4183 20 54 23.5817 54 28V84C54 88.4183 50.4183 92 46 92H10C5.58172 92 2 88.4183 2 84V28Z" fill="#0F1FEA"/>
<path d="M44.5563 71C45.1196 71 45.6491 70.8416 46.1449 70.5247C46.6406 70.2305 47.2265 69.7665 47.9025 69.1327L59.4959 58.642H81.804C84.8685 58.642 87.4486 58.0875 89.5442 56.9784C91.6623 55.8467 93.2622 54.2171 94.3438 52.0895C95.4479 49.9619 96 47.3817 96 44.3488V19.3272C96 16.2716 95.4479 13.6914 94.3438 11.5864C93.2622 9.45885 91.6623 7.82922 89.5442 6.69753C87.4486 5.56584 84.8685 5 81.804 5H40.196C37.154 5 34.574 5.56584 32.4558 6.69753C30.3602 7.80658 28.7603 9.4249 27.6562 11.5525C26.5521 13.68 26 16.2716 26 19.3272V44.3488C26 47.4043 26.5521 49.9959 27.6562 52.1235C28.7603 54.2284 30.3602 55.8467 32.4558 56.9784C34.574 58.0875 37.154 58.642 40.196 58.642H41.9198V67.9444C41.9198 68.8724 42.1452 69.608 42.5958 70.1512C43.069 70.7171 43.7225 71 44.5563 71Z" fill="url(#paint0_linear_394_11423)"/>
<rect x="35" y="20" width="52" height="6" rx="3" fill="#FFD1B2"/>
<rect x="35" y="32" width="27" height="6" rx="3" fill="#FFD1B2"/>
<defs>
<linearGradient id="paint0_linear_394_11423" x1="47" y1="30.5" x2="47" y2="91.5" gradientUnits="userSpaceOnUse">
<stop stop-color="#FF6700"/>
<stop offset="1" stop-color="#FF6700" stop-opacity="0"/>
</linearGradient>
</defs>
</svg>
