<svg width="99" height="98" viewBox="0 0 99 98" fill="none" xmlns="http://www.w3.org/2000/svg">
<path d="M29 34.9996C29 30.5814 32.5817 26.9996 37 26.9996H89C93.4183 26.9996 97 30.5814 97 34.9996V77.9996C97 82.4179 93.4183 85.9996 89 85.9996H37C32.5817 85.9996 29 82.4179 29 77.9996V34.9996Z" fill="#0F1FEA"/>
<path fill-rule="evenodd" clip-rule="evenodd" d="M80.1615 41.166C84.3901 44.5759 81.979 51.4072 76.5468 51.4072C75.2315 51.4072 73.9559 50.9569 72.9321 50.1313L70.6928 48.3256V85.9401H22.2222C17.8039 85.9401 14.2222 82.3584 14.2222 77.9401V48.2463L11.8846 50.1313C10.8607 50.9569 9.58513 51.4072 8.26988 51.4072C2.8377 51.4072 0.426545 44.5759 4.65518 41.1661L37.3866 14.7721C40.3173 12.4088 44.4993 12.4088 47.4301 14.7721L59.0542 24.1456V18.8633C59.0542 17.7587 59.9496 16.8633 61.0542 16.8633H68.7378C69.8424 16.8633 70.7378 17.7587 70.7378 18.8633V33.567L80.1615 41.166Z" fill="url(#paint0_linear_397_9306)"/>
<path d="M29 64.9996C29 62.7905 30.7909 60.9996 33 60.9996H51C53.2091 60.9996 55 62.7905 55 64.9996V85.9996H29V64.9996Z" fill="#FFD1B2"/>
<defs>
<linearGradient id="paint0_linear_397_9306" x1="42.9072" y1="48.9996" x2="42.9072" y2="109.5" gradientUnits="userSpaceOnUse">
<stop stop-color="#FF6700"/>
<stop offset="1" stop-color="#FF6700" stop-opacity="0"/>
</linearGradient>
</defs>
</svg>
