<svg width="99" height="98" viewBox="0 0 99 98" fill="none" xmlns="http://www.w3.org/2000/svg">
<path d="M30.5 34.9961C30.5 30.5778 34.0817 26.9961 38.5 26.9961H88.5C92.9183 26.9961 96.5 30.5778 96.5 34.9961V77.9961C96.5 82.4144 92.9183 85.9961 88.5 85.9961H38.5C34.0817 85.9961 30.5 82.4144 30.5 77.9961V34.9961Z" fill="#0F1FEA"/>
<path fill-rule="evenodd" clip-rule="evenodd" d="M80.2695 40.7454C84.5131 44.1128 82.1319 50.9442 76.7146 50.9442C75.4237 50.9442 74.1709 50.5075 73.1597 49.7052L70.6522 47.7154V67.9961H78.5C80.7091 67.9961 82.5 69.787 82.5 71.9961V85.9961H2.5V71.9961C2.5 69.787 4.29086 67.9961 6.5 67.9961H15.3662V46.9332L11.873 49.7052C10.8619 50.5075 9.60899 50.9442 8.31814 50.9442C2.90078 50.9442 0.519623 44.1128 4.76323 40.7454L37.5436 14.7333C40.456 12.4222 44.5767 12.4222 47.4891 14.7333L80.2695 40.7454Z" fill="url(#paint0_linear_397_9277)"/>
<path d="M23.5 49.9961C23.5 47.787 25.2909 45.9961 27.5 45.9961V45.9961C29.7091 45.9961 31.5 47.787 31.5 49.9961V67.9961H23.5V49.9961Z" fill="#FFD1B2"/>
<path d="M39.5 49.9961C39.5 47.787 41.2909 45.9961 43.5 45.9961V45.9961C45.7091 45.9961 47.5 47.787 47.5 49.9961V67.9961H39.5V49.9961Z" fill="#FFD1B2"/>
<path d="M54.5 49.9961C54.5 47.787 56.2909 45.9961 58.5 45.9961V45.9961C60.7091 45.9961 62.5 47.787 62.5 49.9961V67.9961H54.5V49.9961Z" fill="#FFD1B2"/>
<defs>
<linearGradient id="paint0_linear_397_9277" x1="43" y1="49" x2="96.5" y2="49" gradientUnits="userSpaceOnUse">
<stop stop-color="#FF6700"/>
<stop offset="1" stop-color="#FF6700" stop-opacity="0"/>
</linearGradient>
</defs>
</svg>
