<svg width="98" height="98" viewBox="0 0 98 98" fill="none" xmlns="http://www.w3.org/2000/svg">
<path d="M2 28C2 23.5817 5.58172 20 10 20H46C50.4183 20 54 23.5817 54 28V84C54 88.4183 50.4183 92 46 92H10C5.58172 92 2 88.4183 2 84V28Z" fill="#0F1FEA"/>
<circle cx="57.5" cy="43.5" r="37.5" fill="url(#paint0_linear_394_11437)"/>
<path d="M60.8125 65.8125C61.6328 65.8125 62.3229 65.5391 62.8828 64.9922C63.4557 64.4453 63.918 63.7292 64.2695 62.8438L76.6914 30.3242C76.8346 29.9466 76.9388 29.5885 77.0039 29.25C77.082 28.9115 77.1211 28.5924 77.1211 28.293C77.1211 27.4857 76.8802 26.8477 76.3984 26.3789C75.9297 25.8971 75.2917 25.6562 74.4844 25.6562C74.1849 25.6562 73.8594 25.6953 73.5078 25.7734C73.1693 25.8385 72.8177 25.9427 72.4531 26.0859L39.875 38.5469C39.0286 38.8724 38.332 39.3151 37.7852 39.875C37.2383 40.4349 36.9648 41.1315 36.9648 41.9648C36.9648 42.9284 37.2708 43.6641 37.8828 44.1719C38.4948 44.6797 39.2891 45.0703 40.2656 45.3438L53.5469 49.2305L57.3945 62.4336C57.681 63.4232 58.0781 64.2305 58.5859 64.8555C59.1068 65.4935 59.849 65.8125 60.8125 65.8125ZM55.1484 44.4844L46.5547 41.8281C46.4635 41.8151 46.3984 41.7891 46.3594 41.75C46.3203 41.6979 46.3008 41.6458 46.3008 41.5938C46.3008 41.5286 46.3138 41.4766 46.3398 41.4375C46.3789 41.3984 46.4375 41.3659 46.5156 41.3398L61.5156 35.4414C62.4271 35.0768 63.3581 34.6862 64.3086 34.2695C65.2721 33.8398 66.3464 33.3581 67.5312 32.8242C66.737 33.4622 65.8971 34.1523 65.0117 34.8945C64.1393 35.6367 63.3581 36.3464 62.668 37.0234L55.1484 44.4844ZM61.2031 56.4766C61.138 56.4766 61.0859 56.457 61.0469 56.418C61.0078 56.3789 60.9753 56.3138 60.9492 56.2227L58.293 47.6289L65.7539 40.1094C66.3919 39.4453 67.0951 38.6641 67.8633 37.7656C68.6445 36.8542 69.3477 36.0078 69.9727 35.2266C69.4388 36.4245 68.957 37.4987 68.5273 38.4492C68.0977 39.3997 67.7005 40.3372 67.3359 41.2617L61.4375 56.2422C61.4115 56.3333 61.3789 56.3984 61.3398 56.4375C61.3008 56.4635 61.2552 56.4766 61.2031 56.4766Z" fill="#FFD1B2"/>
<defs>
<linearGradient id="paint0_linear_394_11437" x1="57.9688" y1="44" x2="57.9688" y2="91.5" gradientUnits="userSpaceOnUse">
<stop stop-color="#FF6700"/>
<stop offset="1" stop-color="#FF6700" stop-opacity="0"/>
</linearGradient>
</defs>
</svg>
