<svg width="135" height="40" viewBox="0 0 135 40" fill="none" xmlns="http://www.w3.org/2000/svg">
<g clip-path="url(#clip0_105_3439)">
<path d="M130 0H5C2.23858 0 0 2.23858 0 5V35C0 37.7614 2.23858 40 5 40H130C132.761 40 135 37.7614 135 35V5C135 2.23858 132.761 0 130 0Z" fill="black"/>
<path d="M130 0.8C132.32 0.8 134.2 2.68 134.2 5V35C134.2 37.32 132.32 39.2 130 39.2H5C2.68 39.2 0.8 37.32 0.8 35V5C0.8 2.68 2.68 0.8 5 0.8H130ZM130 0H5C2.25 0 0 2.25 0 5V35C0 37.75 2.25 40 5 40H130C132.75 40 135 37.75 135 35V5C135 2.25 132.75 0 130 0Z" fill="#A6A6A6"/>
<path d="M48.0627 7C47.969 6.71307 47.8454 6.45597 47.692 6.22869C47.5414 5.99858 47.361 5.80256 47.1508 5.64062C46.9434 5.47869 46.7076 5.35511 46.4434 5.26989C46.1792 5.18466 45.8894 5.14205 45.5741 5.14205C45.0571 5.14205 44.5869 5.27557 44.1636 5.54261C43.7403 5.80966 43.4036 6.20312 43.1536 6.72301C42.9036 7.2429 42.7786 7.88068 42.7786 8.63636C42.7786 9.39205 42.9051 10.0298 43.1579 10.5497C43.4107 11.0696 43.7531 11.4631 44.1849 11.7301C44.6167 11.9972 45.1025 12.1307 45.6423 12.1307C46.1423 12.1307 46.5826 12.0241 46.9633 11.8111C47.3468 11.5952 47.6451 11.2912 47.8582 10.8991C48.0741 10.5043 48.1821 10.0398 48.1821 9.50568L48.5059 9.57386H45.8809V8.63636H49.2048V9.57386C49.2048 10.2926 49.0514 10.9176 48.7446 11.4489C48.4406 11.9801 48.0201 12.392 47.4832 12.6847C46.9491 12.9744 46.3355 13.1193 45.6423 13.1193C44.8696 13.1193 44.1906 12.9375 43.6053 12.5739C43.023 12.2102 42.5684 11.6932 42.2417 11.0227C41.9178 10.3523 41.7559 9.55682 41.7559 8.63636C41.7559 7.94602 41.8482 7.32528 42.0329 6.77415C42.2204 6.22017 42.4846 5.74858 42.8255 5.35938C43.1664 4.97017 43.5698 4.67188 44.0357 4.46449C44.5017 4.2571 45.0144 4.15341 45.5741 4.15341C46.0343 4.15341 46.4633 4.22301 46.861 4.36222C47.2616 4.49858 47.6181 4.69318 47.9306 4.94602C48.246 5.19602 48.5088 5.49574 48.719 5.84517C48.9292 6.19176 49.0741 6.5767 49.1536 7H48.0627ZM51.0148 13V4.27273H56.2818V5.21023H52.0716V8.15909H56.0091V9.09659H52.0716V12.0625H56.35V13H51.0148ZM57.7094 5.21023V4.27273H64.2549V5.21023H61.5105V13H60.4537V5.21023H57.7094ZM70.3177 4.27273V13H69.2609V4.27273H70.3177ZM71.9594 5.21023V4.27273H78.5049V5.21023H75.7605V13H74.7037V5.21023H71.9594ZM90.8745 8.63636C90.8745 9.55682 90.7083 10.3523 90.3759 11.0227C90.0436 11.6932 89.5876 12.2102 89.008 12.5739C88.4285 12.9375 87.7666 13.1193 87.0223 13.1193C86.2779 13.1193 85.616 12.9375 85.0365 12.5739C84.4569 12.2102 84.0009 11.6932 83.6686 11.0227C83.3362 10.3523 83.17 9.55682 83.17 8.63636C83.17 7.71591 83.3362 6.92045 83.6686 6.25C84.0009 5.57955 84.4569 5.0625 85.0365 4.69886C85.616 4.33523 86.2779 4.15341 87.0223 4.15341C87.7666 4.15341 88.4285 4.33523 89.008 4.69886C89.5876 5.0625 90.0436 5.57955 90.3759 6.25C90.7083 6.92045 90.8745 7.71591 90.8745 8.63636ZM89.8518 8.63636C89.8518 7.88068 89.7254 7.2429 89.4725 6.72301C89.2225 6.20312 88.883 5.80966 88.4541 5.54261C88.0279 5.27557 87.5507 5.14205 87.0223 5.14205C86.4938 5.14205 86.0152 5.27557 85.5862 5.54261C85.16 5.80966 84.8205 6.20312 84.5677 6.72301C84.3177 7.2429 84.1927 7.88068 84.1927 8.63636C84.1927 9.39205 84.3177 10.0298 84.5677 10.5497C84.8205 11.0696 85.16 11.4631 85.5862 11.7301C86.0152 11.9972 86.4938 12.1307 87.0223 12.1307C87.5507 12.1307 88.0279 11.9972 88.4541 11.7301C88.883 11.4631 89.2225 11.0696 89.4725 10.5497C89.7254 10.0298 89.8518 9.39205 89.8518 8.63636ZM99.572 4.27273V13H98.5492L93.7936 6.14773H93.7083V13H92.6515V4.27273H93.6742L98.447 11.142H98.5322V4.27273H99.572Z" fill="white"/>
<path d="M68.14 21.75C65.79 21.75 63.87 23.54 63.87 26C63.87 28.46 65.79 30.25 68.14 30.25C70.49 30.25 72.41 28.45 72.41 26C72.41 23.55 70.49 21.75 68.14 21.75ZM68.14 28.58C66.85 28.58 65.74 27.52 65.74 26C65.74 24.48 66.85 23.42 68.14 23.42C69.43 23.42 70.54 24.47 70.54 26C70.54 27.53 69.43 28.58 68.14 28.58ZM58.83 21.75C56.48 21.75 54.56 23.54 54.56 26C54.56 28.46 56.48 30.25 58.83 30.25C61.18 30.25 63.1 28.45 63.1 26C63.1 23.55 61.18 21.75 58.83 21.75ZM58.83 28.58C57.54 28.58 56.43 27.52 56.43 26C56.43 24.48 57.54 23.42 58.83 23.42C60.12 23.42 61.23 24.47 61.23 26C61.23 27.53 60.12 28.58 58.83 28.58ZM47.75 23.05V24.85H52.07C51.94 25.86 51.6 26.61 51.09 27.12C50.46 27.75 49.48 28.44 47.76 28.44C45.1 28.44 43.02 26.3 43.02 23.64C43.02 20.98 45.1 18.84 47.76 18.84C49.19 18.84 50.24 19.4 51.01 20.13L52.28 18.86C51.2 17.83 49.77 17.04 47.75 17.04C44.11 17.04 41.05 20 41.05 23.65C41.05 27.3 44.11 30.26 47.75 30.26C49.72 30.26 51.2 29.62 52.36 28.41C53.55 27.22 53.92 25.54 53.92 24.19C53.92 23.77 53.89 23.38 53.82 23.06H47.75V23.05ZM93.06 24.45C92.71 23.5 91.63 21.74 89.42 21.74C87.21 21.74 85.41 23.46 85.41 25.99C85.41 28.37 87.21 30.24 89.63 30.24C91.58 30.24 92.71 29.05 93.17 28.36L91.72 27.39C91.24 28.1 90.58 28.57 89.63 28.57C88.68 28.57 88 28.14 87.57 27.28L93.26 24.93L93.07 24.45H93.06ZM87.26 25.87C87.21 24.23 88.53 23.39 89.48 23.39C90.22 23.39 90.85 23.76 91.06 24.29L87.26 25.87ZM82.64 29.99H84.51V17.49H82.64V29.99ZM79.58 22.69H79.52C79.1 22.19 78.3 21.74 77.28 21.74C75.15 21.74 73.2 23.61 73.2 26.01C73.2 28.41 75.15 30.25 77.28 30.25C78.29 30.25 79.1 29.8 79.52 29.28H79.58V29.89C79.58 31.52 78.71 32.39 77.31 32.39C76.17 32.39 75.46 31.57 75.17 30.88L73.54 31.56C74.01 32.69 75.25 34.07 77.31 34.07C79.5 34.07 81.35 32.78 81.35 29.64V22H79.58V22.69ZM77.44 28.57C76.15 28.57 75.07 27.49 75.07 26.01C75.07 24.53 76.15 23.42 77.44 23.42C78.73 23.42 79.71 24.52 79.71 26.01C79.71 27.5 78.71 28.57 77.44 28.57ZM101.82 17.49H97.35V29.99H99.22V25.25H101.83C103.9 25.25 105.93 23.75 105.93 21.37C105.93 18.99 103.9 17.49 101.83 17.49H101.82ZM101.87 23.52H99.22V19.23H101.87C103.27 19.23 104.06 20.39 104.06 21.37C104.06 22.35 103.27 23.51 101.87 23.51V23.52ZM113.4 21.72C112.05 21.72 110.65 22.32 110.07 23.63L111.73 24.32C112.08 23.63 112.74 23.4 113.43 23.4C114.39 23.4 115.38 23.98 115.39 25.01V25.14C115.05 24.95 114.33 24.66 113.44 24.66C111.65 24.66 109.84 25.64 109.84 27.47C109.84 29.14 111.3 30.22 112.94 30.22C114.19 30.22 114.89 29.66 115.32 29H115.38V29.96H117.18V25.17C117.18 22.95 115.52 21.71 113.38 21.71L113.4 21.72ZM113.17 28.57C112.56 28.57 111.71 28.26 111.71 27.51C111.71 26.55 112.77 26.18 113.69 26.18C114.51 26.18 114.9 26.36 115.39 26.6C115.25 27.76 114.25 28.58 113.17 28.58V28.57ZM123.75 21.99L121.61 27.41H121.55L119.33 21.99H117.32L120.65 29.57L118.75 33.78H120.7L125.83 21.99H123.76H123.75ZM106.94 29.99H108.81V17.49H106.94V29.99Z" fill="white"/>
<path d="M20.72 19.4202L10.07 30.7202C10.4 31.9502 11.52 32.8502 12.85 32.8502C13.38 32.8502 13.88 32.7102 14.31 32.4502L14.34 32.4302L26.32 25.5202L20.71 19.4102L20.72 19.4202Z" fill="#EA4335"/>
<path d="M31.49 17.5002H31.48L26.31 14.4902L20.48 19.6802L26.33 25.5302L31.48 22.5602C32.38 22.0702 32.99 21.1202 32.99 20.0302C32.99 18.9402 32.39 17.9902 31.49 17.5102V17.5002Z" fill="#FBBC04"/>
<path d="M10.07 9.28027C10.01 9.52027 9.97 9.76027 9.97 10.0203V29.9903C9.97 30.2503 10 30.4903 10.07 30.7303L21.08 19.7203L10.07 9.28027Z" fill="#4285F4"/>
<path d="M20.8 20.0001L26.31 14.4901L14.34 7.55014C13.91 7.29014 13.4 7.14014 12.85 7.14014C11.52 7.14014 10.4 8.05014 10.07 9.27014L20.8 19.9901V20.0001Z" fill="#34A853"/>
</g>
<defs>
<clipPath id="clip0_105_3439">
<rect width="135" height="40" fill="white"/>
</clipPath>
</defs>
</svg>
