<svg width="121" height="41" viewBox="0 0 121 41" fill="none" xmlns="http://www.w3.org/2000/svg">
<g clip-path="url(#clip0_122_26349)">
<g clip-path="url(#clip1_122_26349)">
<path d="M110.913 0.984993H10.3125C9.94581 0.984993 9.58351 0.984993 9.21778 0.986993C8.91163 0.988993 8.60792 0.994803 8.29883 0.999693C7.62735 1.0076 6.95744 1.06667 6.29493 1.1764C5.63336 1.28853 4.9925 1.49991 4.39405 1.8034C3.79633 2.10946 3.25018 2.50716 2.7754 2.98206C2.29813 3.45563 1.9003 4.00301 1.59718 4.60315C1.29323 5.2021 1.08247 5.84393 0.972182 6.50647C0.860843 7.16818 0.80093 7.83751 0.792982 8.50847C0.783702 8.81507 0.782722 9.12269 0.777832 9.42933V32.5436C0.782722 32.8541 0.783702 33.1549 0.792982 33.4655C0.800933 34.1364 0.860845 34.8057 0.972182 35.4674C1.08217 36.1303 1.29294 36.7725 1.59718 37.3717C1.90016 37.9699 2.29805 38.5151 2.7754 38.986C3.24838 39.463 3.79488 39.861 4.39405 40.1647C4.9925 40.469 5.63328 40.6816 6.29493 40.7955C6.95755 40.9043 7.62739 40.9634 8.29883 40.9723C8.60792 40.9791 8.91163 40.983 9.21778 40.983C9.5835 40.985 9.94583 40.985 10.3125 40.985H110.913C111.272 40.985 111.637 40.985 111.997 40.983C112.301 40.983 112.614 40.9791 112.919 40.9723C113.589 40.9639 114.257 40.9048 114.919 40.7955C115.582 40.6808 116.225 40.4683 116.827 40.1647C117.425 39.8608 117.971 39.4628 118.444 38.986C118.92 38.5132 119.319 37.9684 119.626 37.3717C119.927 36.7721 120.136 36.1299 120.245 35.4674C120.356 34.8056 120.418 34.1365 120.43 33.4655C120.434 33.1549 120.434 32.8541 120.434 32.5436C120.442 32.1803 120.442 31.819 120.442 31.4498V10.5211C120.442 10.1549 120.442 9.79163 120.434 9.42933C120.434 9.12269 120.434 8.81507 120.43 8.50843C120.418 7.83742 120.356 7.16823 120.245 6.50643C120.136 5.84428 119.927 5.2025 119.626 4.60311C119.008 3.40019 118.029 2.42102 116.827 1.80331C116.225 1.50056 115.582 1.28923 114.919 1.17631C114.257 1.0661 113.589 1.007 112.919 0.999553C112.614 0.994673 112.301 0.988813 111.997 0.986863C111.637 0.984863 111.272 0.984993 110.913 0.984993Z" fill="black"/>
<path d="M9.2227 40.1099C8.91802 40.1099 8.6207 40.106 8.31841 40.0992C7.69219 40.091 7.06744 40.0365 6.44927 39.9361C5.87286 39.8368 5.31447 39.6521 4.79253 39.3882C4.27537 39.1264 3.80368 38.7831 3.39553 38.3716C2.98147 37.9648 2.63675 37.4931 2.37502 36.9751C2.11041 36.4537 1.92728 35.8948 1.83202 35.3179C1.72914 34.698 1.67348 34.0712 1.66552 33.4429C1.65918 33.232 1.65088 32.5298 1.65088 32.5298V9.4292C1.65088 9.4292 1.65972 8.73779 1.66557 8.53466C1.67319 7.90735 1.72853 7.28152 1.8311 6.66259C1.92654 6.08411 2.10981 5.52361 2.37456 5.00049C2.63532 4.48281 2.97813 4.01072 3.3897 3.60254C3.8008 3.19048 4.274 2.84547 4.79204 2.58007C5.31278 2.31696 5.87011 2.1336 6.44536 2.03613C7.06556 1.9347 7.69248 1.87986 8.32087 1.87207L9.22319 1.85986H111.992L112.905 1.87256C113.528 1.87996 114.149 1.93431 114.763 2.03515C115.344 2.13384 115.907 2.31848 116.434 2.583C117.472 3.11785 118.316 3.96403 118.849 5.00293C119.11 5.52244 119.29 6.07837 119.384 6.65185C119.488 7.27585 119.546 7.9066 119.558 8.53906C119.561 8.82226 119.561 9.12646 119.561 9.4292C119.569 9.8042 119.569 10.1611 119.569 10.521V31.4497C119.569 31.813 119.569 32.1675 119.561 32.5249C119.561 32.8501 119.561 33.148 119.557 33.4546C119.545 34.0757 119.488 34.6952 119.386 35.3081C119.293 35.8891 119.111 36.4524 118.846 36.9781C118.583 37.4905 118.24 37.9581 117.831 38.3638C117.422 38.7775 116.95 39.1228 116.431 39.3863C115.906 39.6523 115.344 39.8376 114.763 39.9361C114.145 40.037 113.52 40.0915 112.894 40.0992C112.601 40.106 112.294 40.1099 111.997 40.1099L110.913 40.1119L9.2227 40.1099Z" fill="white"/>
<path d="M25.7744 20.8741C25.7856 20.0061 26.0161 19.1551 26.4446 18.4002C26.873 17.6452 27.4855 17.011 28.225 16.5564C27.7552 15.8855 27.1355 15.3333 26.415 14.9438C25.6945 14.5543 24.8932 14.3382 24.0746 14.3126C22.3283 14.1293 20.6354 15.3575 19.7456 15.3575C18.8385 15.3575 17.4684 14.3308 15.9931 14.3611C15.0388 14.392 14.1088 14.6695 13.2936 15.1666C12.4785 15.6637 11.806 16.3635 11.3417 17.1978C9.33062 20.6798 10.8307 25.7972 12.7572 28.6118C13.7211 29.9901 14.8476 31.5296 16.3216 31.475C17.764 31.4152 18.3027 30.5552 20.0438 30.5552C21.7688 30.5552 22.2742 31.475 23.7781 31.4403C25.3259 31.4152 26.301 30.0559 27.2311 28.6647C27.9236 27.6826 28.4565 26.5973 28.8101 25.4488C27.9109 25.0684 27.1435 24.4318 26.6037 23.6183C26.0638 22.8048 25.7754 21.8504 25.7744 20.8741Z" fill="black"/>
<path d="M22.9337 12.4614C23.7776 11.4484 24.1934 10.1462 24.0927 8.83154C22.8034 8.96696 21.6124 9.58316 20.7571 10.5574C20.3389 11.0333 20.0187 11.587 19.8146 12.1867C19.6105 12.7865 19.5267 13.4207 19.5678 14.0529C20.2127 14.0595 20.8506 13.9197 21.4337 13.6441C22.0167 13.3684 22.5296 12.964 22.9337 12.4614Z" fill="black"/>
<path d="M43.0796 28.1241H38.3462L37.2095 31.4805H35.2046L39.688 19.0625H41.771L46.2544 31.4805H44.2153L43.0796 28.1241ZM38.8364 26.5752H42.5884L40.7388 21.128H40.687L38.8364 26.5752Z" fill="black"/>
<path d="M55.937 26.9543C55.937 29.7678 54.4312 31.5754 52.1587 31.5754C51.5831 31.6055 51.0106 31.4729 50.5068 31.1928C50.003 30.9126 49.5883 30.4963 49.3101 29.9914H49.2671V34.4758H47.4087V22.427H49.2075V23.9328H49.2417C49.5327 23.4304 49.9544 23.0162 50.462 22.7343C50.9696 22.4525 51.5442 22.3135 52.1245 22.3322C54.4224 22.3322 55.937 24.1486 55.937 26.9543ZM54.0269 26.9543C54.0269 25.1213 53.0796 23.9162 51.6343 23.9162C50.2144 23.9162 49.2593 25.1467 49.2593 26.9543C49.2593 28.7785 50.2144 30.0002 51.6343 30.0002C53.0796 30.0002 54.0269 28.8039 54.0269 26.9543Z" fill="black"/>
<path d="M65.9024 26.9543C65.9024 29.7678 64.396 31.5754 62.1236 31.5754C61.5479 31.6055 60.9754 31.4729 60.4716 31.1928C59.9678 30.9126 59.5531 30.4963 59.2749 29.9914H59.2319V34.4758H57.3735V22.427H59.1724V23.9328H59.2065C59.4975 23.4304 59.9192 23.0162 60.4269 22.7343C60.9345 22.4525 61.509 22.3135 62.0894 22.3322C64.3872 22.3322 65.9024 24.1486 65.9024 26.9543ZM63.9917 26.9543C63.9917 25.1213 63.0445 23.9162 61.5992 23.9162C60.1792 23.9162 59.2242 25.1467 59.2242 26.9543C59.2242 28.7785 60.1792 30.0002 61.5992 30.0002C63.0445 30.0002 63.9917 28.8039 63.9917 26.9543Z" fill="black"/>
<path d="M72.4874 28.0206C72.6251 29.252 73.8214 30.0606 75.4561 30.0606C77.0225 30.0606 78.1495 29.252 78.1495 28.1416C78.1495 27.1777 77.4698 26.6006 75.8604 26.2051L74.251 25.8174C71.9708 25.2666 70.9122 24.2002 70.9122 22.4697C70.9122 20.3271 72.7794 18.8555 75.4297 18.8555C78.0547 18.8555 79.8536 20.3271 79.9141 22.4697H78.0381C77.9258 21.2305 76.9014 20.4824 75.4043 20.4824C73.9073 20.4824 72.8829 21.2393 72.8829 22.3408C72.8829 23.2188 73.5372 23.7354 75.1377 24.1308L76.5059 24.4668C79.0537 25.0693 80.1114 26.0928 80.1114 27.9091C80.1114 30.2324 78.2617 31.6875 75.3184 31.6875C72.5644 31.6875 70.7051 30.2666 70.585 28.0205L72.4874 28.0206Z" fill="black"/>
<path d="M84.124 20.2842V22.4268H85.8457V23.8984H84.124V28.8896C84.124 29.665 84.4687 30.0264 85.2256 30.0264C85.43 30.0228 85.634 30.0085 85.8369 29.9834V31.4463C85.4966 31.5098 85.1508 31.5386 84.8047 31.5322C82.9717 31.5322 82.2568 30.8437 82.2568 29.0879V23.8984H80.9404V22.4268H82.2568V20.2842H84.124Z" fill="black"/>
<path d="M86.8418 26.9541C86.8418 24.1055 88.5195 22.3154 91.1357 22.3154C93.7607 22.3154 95.4307 24.1054 95.4307 26.9541C95.4307 29.8105 93.7695 31.5928 91.1357 31.5928C88.5029 31.5928 86.8418 29.8105 86.8418 26.9541ZM93.5371 26.9541C93.5371 25 92.6416 23.8467 91.1357 23.8467C89.6299 23.8467 88.7344 25.0088 88.7344 26.9541C88.7344 28.916 89.6299 30.0605 91.1357 30.0605C92.6416 30.0605 93.5371 28.916 93.5371 26.9541Z" fill="black"/>
<path d="M96.9629 22.4269H98.7354V23.9679H98.7784C98.8983 23.4866 99.1802 23.0613 99.5768 22.7634C99.9734 22.4655 100.46 22.3132 100.956 22.3321C101.17 22.3314 101.384 22.3547 101.593 22.4015V24.1398C101.322 24.0571 101.04 24.0192 100.758 24.0275C100.488 24.0165 100.219 24.0641 99.9688 24.167C99.719 24.2699 99.4944 24.4256 99.3104 24.6235C99.1264 24.8214 98.9875 25.0568 98.903 25.3134C98.8186 25.5701 98.7907 25.842 98.8213 26.1105V31.4806H96.9629L96.9629 22.4269Z" fill="black"/>
<path d="M110.161 28.8213C109.911 30.4648 108.311 31.5928 106.263 31.5928C103.629 31.5928 101.994 29.8281 101.994 26.9971C101.994 24.1572 103.638 22.3154 106.185 22.3154C108.689 22.3154 110.265 24.0361 110.265 26.7812V27.418H103.87V27.5303C103.841 27.8635 103.882 28.1991 103.993 28.515C104.103 28.8308 104.279 29.1196 104.509 29.3621C104.74 29.6047 105.019 29.7955 105.329 29.9218C105.638 30.0481 105.971 30.107 106.306 30.0947C106.745 30.1359 107.186 30.0342 107.562 29.8047C107.939 29.5753 108.232 29.2304 108.396 28.8213L110.161 28.8213ZM103.879 26.1191H108.405C108.422 25.8195 108.377 25.5197 108.272 25.2385C108.167 24.9573 108.006 24.7008 107.797 24.485C107.588 24.2692 107.338 24.0989 107.06 23.9847C106.783 23.8705 106.485 23.8148 106.185 23.8213C105.882 23.8195 105.582 23.8776 105.302 23.9924C105.022 24.1071 104.767 24.2762 104.553 24.4898C104.339 24.7034 104.169 24.9574 104.053 25.2371C103.937 25.5167 103.878 25.8165 103.879 26.1191Z" fill="black"/>
<path d="M38.604 9.71576C38.9936 9.6878 39.3846 9.74666 39.7487 9.88809C40.1128 10.0295 40.441 10.25 40.7096 10.5336C40.9782 10.8173 41.1804 11.157 41.3018 11.5282C41.4233 11.8995 41.4607 12.2931 41.4116 12.6806C41.4116 14.5868 40.3814 15.6826 38.604 15.6826H36.4487V9.71576H38.604ZM37.3755 14.8388H38.5005C38.7789 14.8554 39.0575 14.8097 39.316 14.7051C39.5746 14.6005 39.8065 14.4396 39.995 14.234C40.1835 14.0284 40.3238 13.7834 40.4057 13.5168C40.4875 13.2502 40.5089 12.9687 40.4683 12.6928C40.506 12.4179 40.4824 12.1381 40.3993 11.8735C40.3162 11.6088 40.1755 11.3658 39.9875 11.1619C39.7994 10.958 39.5686 10.7982 39.3115 10.6939C39.0544 10.5897 38.7775 10.5436 38.5005 10.559H37.3755V14.8388Z" fill="black"/>
<path d="M42.4583 13.4292C42.43 13.1332 42.4638 12.8347 42.5577 12.5526C42.6515 12.2705 42.8033 12.0112 43.0032 11.7912C43.2032 11.5712 43.4469 11.3955 43.7187 11.2752C43.9906 11.1549 44.2846 11.0928 44.5818 11.0928C44.8791 11.0928 45.1731 11.1549 45.4449 11.2752C45.7168 11.3955 45.9605 11.5712 46.1604 11.7912C46.3604 12.0112 46.5121 12.2705 46.606 12.5526C46.6998 12.8347 46.7337 13.1332 46.7054 13.4292C46.7342 13.7254 46.7008 14.0244 46.6072 14.3069C46.5136 14.5894 46.3619 14.8492 46.1619 15.0696C45.9619 15.2901 45.718 15.4662 45.4459 15.5867C45.1738 15.7073 44.8794 15.7695 44.5818 15.7695C44.2842 15.7695 43.9899 15.7073 43.7177 15.5867C43.4456 15.4662 43.2017 15.2901 43.0017 15.0696C42.8017 14.8492 42.6501 14.5894 42.5565 14.3069C42.4629 14.0244 42.4294 13.7254 42.4583 13.4292ZM45.7913 13.4292C45.7913 12.4531 45.3528 11.8823 44.5833 11.8823C43.8108 11.8823 43.3763 12.4531 43.3763 13.4292C43.3763 14.4131 43.8109 14.9795 44.5833 14.9795C45.3528 14.9794 45.7913 14.4091 45.7913 13.4292Z" fill="black"/>
<path d="M52.3511 15.6826H51.4292L50.4985 12.3662H50.4282L49.5015 15.6826H48.5884L47.3472 11.1797H48.2485L49.0552 14.6157H49.1216L50.0474 11.1797H50.8999L51.8257 14.6157H51.896L52.6987 11.1797H53.5874L52.3511 15.6826Z" fill="black"/>
<path d="M54.6314 11.1797H55.4868V11.8951H55.5532C55.6659 11.6381 55.8559 11.4228 56.0968 11.279C56.3376 11.1352 56.6174 11.0701 56.897 11.0928C57.1161 11.0763 57.3361 11.1094 57.5407 11.1895C57.7453 11.2696 57.9292 11.3947 58.0789 11.5555C58.2286 11.7164 58.3402 11.9088 58.4054 12.1186C58.4706 12.3285 58.4877 12.5503 58.4556 12.7676V15.6826H57.5669V12.9908C57.5669 12.2671 57.2524 11.9073 56.5952 11.9073C56.4465 11.9003 56.298 11.9257 56.1599 11.9815C56.0218 12.0373 55.8975 12.1223 55.7954 12.2307C55.6932 12.3391 55.6158 12.4683 55.5682 12.6094C55.5207 12.7506 55.5043 12.9003 55.52 13.0484V15.6827H54.6313L54.6314 11.1797Z" fill="black"/>
<path d="M59.8716 9.42188H60.7603V15.6826H59.8716V9.42188Z" fill="black"/>
<path d="M61.9954 13.4292C61.9671 13.1333 62.001 12.8347 62.0948 12.5526C62.1887 12.2706 62.3405 12.0112 62.5404 11.7912C62.7404 11.5712 62.9841 11.3955 63.256 11.2752C63.5279 11.1549 63.8219 11.0928 64.1192 11.0928C64.4164 11.0928 64.7104 11.1549 64.9823 11.2752C65.2542 11.3955 65.4979 11.5712 65.6979 11.7912C65.8978 12.0112 66.0496 12.2706 66.1435 12.5526C66.2373 12.8347 66.2712 13.1333 66.2429 13.4292C66.2717 13.7255 66.2383 14.0245 66.1446 14.307C66.051 14.5895 65.8993 14.8493 65.6993 15.0697C65.4993 15.2901 65.2554 15.4663 64.9833 15.5868C64.7111 15.7073 64.4168 15.7696 64.1192 15.7696C63.8215 15.7696 63.5272 15.7073 63.255 15.5868C62.9829 15.4663 62.739 15.2901 62.539 15.0697C62.339 14.8493 62.1873 14.5895 62.0937 14.307C62 14.0245 61.9666 13.7255 61.9954 13.4292ZM65.3284 13.4292C65.3284 12.4532 64.8899 11.8824 64.1204 11.8824C63.3479 11.8824 62.9134 12.4532 62.9134 13.4292C62.9134 14.4131 63.3479 14.9795 64.1204 14.9795C64.8899 14.9795 65.3284 14.4092 65.3284 13.4292Z" fill="black"/>
<path d="M67.1787 14.4092C67.1787 13.5986 67.7822 13.1313 68.8535 13.0649L70.0732 12.9946V12.606C70.0732 12.1304 69.7588 11.8618 69.1514 11.8618C68.6553 11.8618 68.3115 12.0439 68.2129 12.3623H67.3525C67.4434 11.5889 68.1709 11.0928 69.1924 11.0928C70.3213 11.0928 70.958 11.6548 70.958 12.606V15.6826H70.1025V15.0498H70.0322C69.8895 15.2768 69.6891 15.4618 69.4515 15.5861C69.2139 15.7103 68.9475 15.7692 68.6797 15.7568C68.4907 15.7765 68.2996 15.7563 68.1188 15.6976C67.9381 15.6389 67.7716 15.543 67.6302 15.416C67.4888 15.289 67.3755 15.1338 67.2978 14.9604C67.22 14.787 67.1795 14.5992 67.1787 14.4092ZM70.0732 14.0244V13.6479L68.9736 13.7183C68.3535 13.7598 68.0723 13.9707 68.0723 14.3677C68.0723 14.7729 68.4238 15.0088 68.9073 15.0088C69.0489 15.0231 69.192 15.0088 69.328 14.9667C69.464 14.9246 69.5901 14.8556 69.6989 14.7638C69.8077 14.6719 69.8969 14.5591 69.9612 14.4321C70.0255 14.3051 70.0636 14.1664 70.0732 14.0244Z" fill="black"/>
<path d="M72.126 13.4292C72.126 12.0064 72.8574 11.105 73.9951 11.105C74.2765 11.092 74.5558 11.1594 74.8004 11.2993C75.0449 11.4392 75.2445 11.6458 75.376 11.895H75.4424V9.42188H76.3311V15.6826H75.4795V14.9712H75.4092C75.2676 15.2187 75.061 15.4227 74.8117 15.5612C74.5625 15.6997 74.2801 15.7673 73.9951 15.7568C72.8496 15.7569 72.126 14.8555 72.126 13.4292ZM73.044 13.4292C73.044 14.3843 73.4942 14.959 74.2471 14.959C74.9961 14.959 75.459 14.376 75.459 13.4331C75.459 12.4946 74.9912 11.9033 74.2471 11.9033C73.499 11.9033 73.044 12.4819 73.044 13.4292Z" fill="black"/>
<path d="M80.0076 13.4292C79.9793 13.1332 80.0131 12.8347 80.107 12.5526C80.2008 12.2705 80.3526 12.0112 80.5525 11.7912C80.7525 11.5712 80.9962 11.3955 81.268 11.2752C81.5399 11.1549 81.8339 11.0928 82.1311 11.0928C82.4284 11.0928 82.7224 11.1549 82.9942 11.2752C83.2661 11.3955 83.5098 11.5712 83.7097 11.7912C83.9097 12.0112 84.0614 12.2705 84.1553 12.5526C84.2491 12.8347 84.283 13.1332 84.2547 13.4292C84.2835 13.7254 84.2501 14.0244 84.1565 14.3069C84.0629 14.5894 83.9112 14.8492 83.7112 15.0696C83.5112 15.2901 83.2673 15.4662 82.9952 15.5867C82.7231 15.7073 82.4288 15.7695 82.1311 15.7695C81.8335 15.7695 81.5392 15.7073 81.2671 15.5867C80.9949 15.4662 80.751 15.2901 80.551 15.0696C80.3511 14.8492 80.1994 14.5894 80.1058 14.3069C80.0122 14.0244 79.9788 13.7254 80.0076 13.4292ZM83.3406 13.4292C83.3406 12.4531 82.9021 11.8823 82.1326 11.8823C81.3601 11.8823 80.9256 12.4531 80.9256 13.4292C80.9256 14.4131 81.3602 14.9795 82.1326 14.9795C82.9021 14.9794 83.3406 14.4091 83.3406 13.4292Z" fill="black"/>
<path d="M85.4473 11.1797H86.3027V11.8951H86.3691C86.4818 11.6381 86.6718 11.4228 86.9127 11.279C87.1535 11.1352 87.4333 11.0701 87.7129 11.0928C87.932 11.0763 88.152 11.1094 88.3566 11.1895C88.5612 11.2696 88.7451 11.3947 88.8948 11.5555C89.0445 11.7164 89.1561 11.9088 89.2213 12.1186C89.2865 12.3285 89.3036 12.5503 89.2715 12.7676V15.6826H88.3828V12.9908C88.3828 12.2671 88.0684 11.9073 87.4111 11.9073C87.2624 11.9003 87.1139 11.9257 86.9758 11.9815C86.8378 12.0373 86.7134 12.1223 86.6113 12.2307C86.5092 12.3391 86.4317 12.4683 86.3842 12.6094C86.3366 12.7506 86.3202 12.9003 86.3359 13.0484V15.6827H85.4473V11.1797Z" fill="black"/>
<path d="M94.293 10.0586V11.2002H95.2686V11.9487H94.293V14.2642C94.293 14.7358 94.4873 14.9424 94.9297 14.9424C95.0429 14.942 95.1561 14.9352 95.2686 14.9219V15.6621C95.109 15.6907 94.9473 15.7058 94.7852 15.7075C93.7969 15.7075 93.4033 15.3599 93.4033 14.4917V11.9487H92.6885V11.2002H93.4033V10.0586H94.293Z" fill="black"/>
<path d="M96.4824 9.42188H97.3633V11.9033H97.4336C97.5517 11.644 97.7469 11.4274 97.9926 11.2831C98.2383 11.1387 98.5226 11.0736 98.8066 11.0967C99.0245 11.0848 99.2424 11.1212 99.4447 11.2033C99.647 11.2853 99.8287 11.411 99.9768 11.5713C100.125 11.7316 100.236 11.9227 100.302 12.1308C100.367 12.339 100.386 12.5591 100.357 12.7754V15.6826H99.4678V12.9946C99.4678 12.2754 99.1328 11.9111 98.5049 11.9111C98.3522 11.8986 98.1985 11.9196 98.0548 11.9726C97.911 12.0257 97.7805 12.1095 97.6726 12.2183C97.5646 12.327 97.4816 12.458 97.4296 12.6022C97.3775 12.7463 97.3576 12.9001 97.3711 13.0527V15.6826H96.4825L96.4824 9.42188Z" fill="black"/>
<path d="M105.539 14.4669C105.418 14.8784 105.157 15.2344 104.8 15.4725C104.444 15.7107 104.014 15.8158 103.588 15.7696C103.291 15.7774 102.997 15.7206 102.724 15.6031C102.452 15.4856 102.208 15.3101 102.01 15.089C101.812 14.8679 101.665 14.6063 101.578 14.3225C101.491 14.0387 101.467 13.7394 101.508 13.4454C101.468 13.1505 101.493 12.8506 101.579 12.5659C101.666 12.2812 101.812 12.0185 102.009 11.7954C102.206 11.5723 102.449 11.3941 102.72 11.2729C102.992 11.1517 103.287 11.0903 103.584 11.0928C104.837 11.0928 105.593 11.9488 105.593 13.3628V13.6729H102.413V13.7227C102.399 13.888 102.42 14.0543 102.474 14.2111C102.528 14.3678 102.615 14.5115 102.728 14.633C102.84 14.7544 102.977 14.851 103.13 14.9164C103.282 14.9818 103.447 15.0146 103.612 15.0127C103.825 15.0383 104.04 15 104.231 14.9028C104.422 14.8056 104.579 14.6538 104.684 14.4668L105.539 14.4669ZM102.413 13.0157H104.688C104.699 12.8646 104.678 12.7128 104.627 12.5701C104.576 12.4273 104.496 12.2969 104.392 12.187C104.287 12.0771 104.161 11.9903 104.021 11.9322C103.881 11.874 103.731 11.8457 103.579 11.8492C103.426 11.8473 103.273 11.8761 103.131 11.9341C102.988 11.992 102.859 12.0779 102.75 12.1866C102.642 12.2953 102.556 12.4247 102.498 12.5671C102.44 12.7095 102.411 12.862 102.413 13.0157Z" fill="black"/>
</g>
</g>
<defs>
<clipPath id="clip0_122_26349">
<rect width="119.664" height="40" fill="white" transform="translate(0.777832 0.984863)"/>
</clipPath>
<clipPath id="clip1_122_26349">
<rect width="119.664" height="40" fill="white" transform="translate(0.777832 0.984863)"/>
</clipPath>
</defs>
</svg>
