<svg xmlns="http://www.w3.org/2000/svg" width="16" height="17" viewBox="0 0 16 17" fill="none">
  <path fill-rule="evenodd" clip-rule="evenodd" d="M8 16.5C12.4183 16.5 16 12.9183 16 8.5C16 4.08172 12.4183 0.5 8 0.5C3.58172 0.5 0 4.08172 0 8.5C0 12.9183 3.58172 16.5 8 16.5Z" fill="white" style="fill:white;fill-opacity:1;"/>
  <path fill-rule="evenodd" clip-rule="evenodd" d="M13.5397 12.3538L11.459 10.9658L11.5977 10.7578L13.6784 12.1458L13.5397 12.3538Z" fill="white" style="fill:white;fill-opacity:1;"/>
  <path fill-rule="evenodd" clip-rule="evenodd" d="M5.49707 6.83818C5.93717 6.17672 6.62467 5.71838 7.40592 5.56213C8.18457 5.40588 8.99447 5.56734 9.65592 6.00745C10.32 6.45015 10.7783 7.13505 10.9346 7.9163C11.0908 8.69495 10.9294 9.50484 10.4893 10.1689L5.49707 6.83818Z" fill="#CD2E3A" style="fill:#CD2E3A;fill:color(display-p3 0.8039 0.1804 0.2275);fill-opacity:1;"/>
  <path fill-rule="evenodd" clip-rule="evenodd" d="M5.49707 6.83789C5.05436 7.50195 4.89551 8.31185 5.05176 9.09049C5.2054 9.87174 5.66634 10.5566 6.3278 10.9993C6.98926 11.4395 7.79915 11.6009 8.5804 11.4447C9.36165 11.2884 10.0466 10.8301 10.4893 10.1686C10.708 9.83789 10.7887 9.43164 10.7106 9.04102C10.6325 8.65039 10.4033 8.30924 10.0726 8.08789C9.74186 7.86654 9.33561 7.78581 8.94759 7.86393C8.55697 7.94206 8.21322 8.17122 7.99186 8.50456L5.49707 6.83789Z" fill="#0047A0" style="fill:#0047A0;fill:color(display-p3 0.0000 0.2784 0.6275);fill-opacity:1;"/>
  <path d="M7.99178 8.50545C8.45272 7.81535 8.26522 6.88306 7.57772 6.42472C6.88761 5.96379 5.95532 6.15129 5.49699 6.83879C5.03605 7.52889 5.22355 8.46118 5.91105 8.91952C6.60116 9.38045 7.53345 9.19295 7.99178 8.50545Z" fill="#CD2E3A" style="fill:#CD2E3A;fill:color(display-p3 0.8039 0.1804 0.2275);fill-opacity:1;"/>
  <path fill-rule="evenodd" clip-rule="evenodd" d="M1.75293 6.14583L3.41699 3.64844L3.83366 3.92708L2.1696 6.42188L1.75293 6.14583ZM2.37793 6.5625L4.04199 4.0651L4.45866 4.34375L2.79199 6.83854L2.37793 6.5625ZM3.00033 6.97656L4.66699 4.48177L5.08106 4.76042L3.41699 7.25521L3.00033 6.97656ZM10.904 12.2474L12.568 9.7526L12.9847 10.0313L11.3206 12.526L10.904 12.2474ZM11.529 12.6641L13.193 10.1693L13.6097 10.4453L11.9456 12.9427L11.529 12.6641ZM12.154 13.0807L13.818 10.5859L14.2321 10.862L12.568 13.3594L12.154 13.0807ZM1.76074 10.8646L3.4248 13.3594L3.84147 13.0807L2.17741 10.5859L1.76074 10.8646ZM3.28631 11.7999L4.0498 12.9427L4.46387 12.6667L3.70175 11.5229L3.28631 11.7999ZM3.14744 11.592L3.56312 11.3148L2.7998 10.1693L2.38314 10.4479L3.14744 11.592ZM3.00814 10.0313L4.6722 12.526L5.08887 12.25L3.4248 9.7526L3.00814 10.0313ZM11.6745 5.90382L10.9118 4.76042L11.3284 4.48177L12.091 5.62615L11.6745 5.90382ZM11.8132 6.1118L12.5758 7.25521L12.9925 6.97917L12.2296 5.83419L11.8132 6.1118ZM13.2008 6.84115L11.5368 4.34375L11.9508 4.06771L13.6149 6.5625L13.2008 6.84115ZM12.922 5.07186L12.1592 3.92708L12.5758 3.65104L13.3378 4.79345L12.922 5.07186ZM13.0606 5.27991L13.8232 6.42448L14.2399 6.14583L13.4766 5.00143L13.0606 5.27991Z" fill="black" style="fill:black;fill-opacity:1;"/>
  <path fill-rule="evenodd" clip-rule="evenodd" d="M8 16.0333C12.1605 16.0333 15.5333 12.6605 15.5333 8.5C15.5333 4.33946 12.1605 0.966667 8 0.966667C3.83946 0.966667 0.466667 4.33946 0.466667 8.5C0.466667 12.6605 3.83946 16.0333 8 16.0333ZM8 16.5C12.4183 16.5 16 12.9183 16 8.5C16 4.08172 12.4183 0.5 8 0.5C3.58172 0.5 0 4.08172 0 8.5C0 12.9183 3.58172 16.5 8 16.5Z" fill="#D9D9D9" style="fill:#D9D9D9;fill:color(display-p3 0.8510 0.8510 0.8510);fill-opacity:1;"/>
</svg>