<svg xmlns="http://www.w3.org/2000/svg" width="16" height="17" viewBox="0 0 16 17" fill="none">
  <path fill-rule="evenodd" clip-rule="evenodd" d="M15.9869 8.9625C15.9956 8.80945 16 8.65524 16 8.5C16 8.34476 15.9956 8.19056 15.9869 8.0375H0.013146C0.00442168 8.19056 0 8.34476 0 8.5C0 8.65524 0.00442169 8.80945 0.013146 8.9625H15.9869ZM15.8801 9.8875H0.119891C0.174678 10.2008 0.247694 10.5079 0.337808 10.8075H15.6622C15.7523 10.5079 15.8253 10.2008 15.8801 9.8875ZM15.3211 11.73H0.678852C0.820188 12.0499 0.981874 12.3588 1.16227 12.655H14.8377C15.0181 12.3588 15.1798 12.0499 15.3211 11.73ZM14.1845 13.575H1.8155C3.2827 15.3609 5.50832 16.5 8 16.5C10.4917 16.5 12.7173 15.3609 14.1845 13.575ZM0.119018 7.1175H15.881C15.8261 6.80245 15.7528 6.49374 15.6622 6.1925H0.337808C0.247215 6.49374 0.173901 6.80245 0.119018 7.1175ZM0.677747 5.2725H15.3223C15.1811 4.95262 15.0195 4.64374 14.8393 4.3475H1.16075C0.980494 4.64374 0.818947 4.95262 0.677747 5.2725ZM1.8155 3.425H14.1845C12.7173 1.63912 10.4917 0.5 8 0.5C5.50832 0.5 3.2827 1.63912 1.8155 3.425Z" fill="#BD3D44" style="fill:#BD3D44;fill:color(display-p3 0.7412 0.2392 0.2667);fill-opacity:1;"/>
  <path fill-rule="evenodd" clip-rule="evenodd" d="M15.8802 7.11578C15.9331 7.4186 15.9689 7.72728 15.9867 8.04078H0.0126953C0.0304676 7.72728 0.0662917 7.4186 0.119144 7.11578H15.8802ZM15.3208 5.27078C15.4527 5.56915 15.5668 5.87709 15.6619 6.19328H0.337497C0.432586 5.87709 0.54671 5.56915 0.678539 5.27078H15.3208ZM14.1842 3.42578C14.4233 3.71682 14.6423 4.02503 14.839 4.34828H1.16043C1.35712 4.02503 1.57608 3.71682 1.81518 3.42578H14.1842ZM15.8798 9.88828C15.9328 9.58546 15.9687 9.27679 15.9865 8.96328H0.0128384C0.030709 9.27679 0.066632 9.58546 0.119584 9.88828H15.8798ZM15.6619 10.8083H0.337502C0.432856 11.1254 0.547354 11.4341 0.679652 11.7333H15.3197C15.452 11.4341 15.5665 11.1254 15.6619 10.8083ZM14.8389 12.6533H1.16044C1.35769 12.9775 1.57735 13.2865 1.81725 13.5783H14.1821C14.422 13.2865 14.6417 12.9775 14.8389 12.6533Z" fill="white" style="fill:white;fill-opacity:1;"/>
  <path fill-rule="evenodd" clip-rule="evenodd" d="M9.79793 0.7029C9.21993 0.570141 8.61802 0.5 7.99973 0.5C7.38144 0.5 6.77953 0.570141 6.20153 0.7029H9.79793ZM2.6543 2.5479C3.04075 2.20061 3.46121 1.8904 3.91008 1.6229H12.0894C12.5382 1.8904 12.9587 2.20061 13.3452 2.5479H2.6543Z" fill="white" style="fill:white;fill-opacity:1;"/>
  <path fill-rule="evenodd" clip-rule="evenodd" d="M3.91036 15.3776C3.46253 15.1107 3.04296 14.8014 2.65723 14.4551H13.342C12.9562 14.8014 12.5367 15.1107 12.0888 15.3776H3.91036ZM9.78582 16.3001C9.21148 16.4311 8.61362 16.5002 7.9996 16.5002C7.38559 16.5002 6.78773 16.4311 6.21339 16.3001H9.78582Z" fill="white" style="fill:white;fill-opacity:1;"/>
  <path fill-rule="evenodd" clip-rule="evenodd" d="M9.12 0.57778V2.5V8.9625H0.013146C0.00442169 8.80945 0 8.65524 0 8.5C0 6.11061 1.04751 3.96589 2.70835 2.5C4.11862 1.25527 5.97111 0.5 8 0.5C8.38011 0.5 8.75402 0.52651 9.12 0.57778Z" fill="#192F5D" style="fill:#192F5D;fill:color(display-p3 0.0980 0.1843 0.3647);fill-opacity:1;"/>
  <path fill-rule="evenodd" clip-rule="evenodd" d="M2.21358 2.97578C2.24596 2.94187 2.27864 2.90825 2.31161 2.87491L2.36223 3.03289H2.63223L2.41473 3.19039L2.49473 3.44789L2.27973 3.28789L2.06223 3.44539L2.14473 3.19039L2.06698 3.13344C2.09756 3.09966 2.12842 3.06614 2.15956 3.03289H2.19473L2.21358 2.97578ZM1.33614 4.07195C1.42497 3.93856 1.51769 3.80798 1.61416 3.68039H1.87473L1.65723 3.83539L1.73723 4.09289L1.52473 3.93539L1.33614 4.07195ZM0.948881 4.71736C0.953391 4.70898 0.957915 4.7006 0.962454 4.69223L0.977227 4.73789L0.948881 4.71736ZM0.507155 5.69025C0.516227 5.66608 0.525413 5.64196 0.534711 5.61789H0.679727L0.759727 5.36289L0.844727 5.61789H1.10973L0.894727 5.77539L0.977227 6.03289L0.759727 5.87289L0.544727 6.03039L0.624727 5.77539L0.507155 5.69025ZM3.88223 3.03289L3.79973 2.77539L3.71723 3.03289H3.44723L3.66473 3.19039L3.58223 3.44539L3.79973 3.28789L4.01723 3.44789L3.93473 3.19039L4.14973 3.03289H3.88223ZM5.40223 3.03289L5.31973 2.77539L5.23473 3.03289H4.96723L5.18723 3.19039L5.10223 3.44539L5.31973 3.28789L5.53723 3.44789L5.45473 3.19039L5.67223 3.03289H5.40223ZM6.92223 3.03289L6.83973 2.77539L6.75723 3.03289H6.48973L6.70473 3.19039L6.62223 3.44539L6.83973 3.28789L7.05723 3.44789L6.97473 3.19039L7.18973 3.03289H6.92223ZM8.44223 3.03289L8.35973 2.77539L8.27723 3.03289H8.00723L8.22723 3.19039L8.14223 3.44539L8.35973 3.28789L8.57723 3.44789L8.49223 3.19039L8.71223 3.03289H8.44223ZM3.12473 3.68039L3.03973 3.42539L2.95723 3.68039H2.68723L2.90473 3.83539L2.82223 4.09289L3.03973 3.93539L3.25723 4.09289L3.17223 3.83539L3.39223 3.68039H3.12473ZM4.64223 3.68039L4.55973 3.42539L4.47473 3.68039H4.20973L4.42473 3.83539L4.34223 4.09289L4.55973 3.93539L4.77723 4.09289L4.69473 3.83539L4.91223 3.68039H4.64223ZM6.16473 3.68039L6.07973 3.42539L5.99973 3.68039H5.72723L5.94473 3.83539L5.86473 4.09289L6.07973 3.93539L6.29723 4.09289L6.21223 3.83539L6.43223 3.68039H6.16473ZM7.68223 3.68039L7.59973 3.42539L7.51723 3.68039H7.24973L7.46473 3.83539L7.38223 4.09289L7.59973 3.93539L7.81723 4.09289L7.73473 3.83539L7.95223 3.68039H7.68223ZM2.36223 4.32539L2.27973 4.06539L2.19473 4.32289H1.92973L2.14473 4.48039L2.06223 4.73789L2.27973 4.58039L2.49473 4.73789L2.41473 4.48289L2.63223 4.32539H2.36223ZM3.88223 4.32289L3.79973 4.06539L3.71723 4.32039H3.44723L3.66473 4.47789L3.58223 4.73539L3.79973 4.57789L4.01723 4.73539L3.93473 4.48039L4.14973 4.32289H3.88223ZM5.40223 4.32289L5.31973 4.06539L5.23473 4.32039H4.96723L5.18723 4.47789L5.10223 4.73539L5.31973 4.57789L5.53723 4.73539L5.45473 4.48039L5.67223 4.32289H5.40223ZM6.92223 4.32289L6.83973 4.06539L6.75723 4.32039H6.48973L6.70473 4.47789L6.62223 4.73539L6.83973 4.57789L7.05723 4.73539L6.97473 4.48039L7.18973 4.32289H6.92223ZM8.44223 4.32289L8.35973 4.06539L8.27723 4.32039H8.00723L8.22723 4.47789L8.14223 4.73539L8.35973 4.57789L8.57723 4.73539L8.49223 4.48039L8.71223 4.32289H8.44223ZM1.60223 4.97039L1.51973 4.71539L1.43973 4.97039H1.17223L1.38723 5.12789L1.30473 5.38289L1.52223 5.22539L1.73973 5.38539L1.65723 5.12789L1.87473 4.97039H1.60223ZM3.12473 4.97039L3.03973 4.71539L2.95723 4.97039H2.68723L2.90473 5.12789L2.82223 5.38289L3.03973 5.22539L3.25723 5.38539L3.17223 5.12789L3.39223 4.97039H3.12473ZM4.64223 4.97039L4.55973 4.71539L4.47473 4.97039H4.20973L4.42473 5.12789L4.34223 5.38289L4.55973 5.22539L4.77723 5.38539L4.69473 5.12789L4.91223 4.97039H4.64223ZM6.16473 4.97039L6.07973 4.71539L5.99973 4.97039H5.72723L5.94473 5.12789L5.86473 5.38289L6.07973 5.22539L6.29723 5.38539L6.21473 5.12789L6.43223 4.97039H6.16473ZM7.68223 4.97039L7.59973 4.71539L7.51723 4.97039H7.24973L7.46473 5.12789L7.38223 5.38289L7.59973 5.22539L7.81723 5.38539L7.73473 5.12789L7.95223 4.97039H7.68223ZM2.36223 5.61789L2.27973 5.36289L2.19473 5.61789H1.92973L2.14473 5.77539L2.06223 6.03039L2.27973 5.87289L2.49473 6.03039L2.41473 5.77539L2.63223 5.61789H2.36223ZM3.88223 5.61789L3.79973 5.36289L3.71723 5.61789H3.44723L3.66473 5.77539L3.58223 6.03039L3.79973 5.87289L4.01723 6.03289L3.93473 5.77539L4.14973 5.61789H3.88223ZM5.40223 5.61789L5.31973 5.36289L5.23473 5.61789H4.96723L5.18723 5.77539L5.10223 6.03039L5.31973 5.87289L5.53723 6.03289L5.45473 5.77539L5.67223 5.61789H5.40223ZM6.92223 5.61789L6.83973 5.36289L6.75723 5.61789H6.48973L6.70473 5.77539L6.62223 6.03039L6.83973 5.87289L7.05723 6.03289L6.97473 5.77539L7.18973 5.61789H6.92223ZM8.44223 5.61789L8.35973 5.36289L8.27473 5.61789H8.00473L8.22473 5.77539L8.14223 6.03039L8.35973 5.87289L8.57723 6.03289L8.49223 5.77539L8.71223 5.61789H8.44223ZM1.60223 6.26539L1.51973 6.00789L1.43973 6.26289H1.17223L1.38723 6.42039L1.30473 6.67789L1.52223 6.51789L1.73973 6.67789L1.65723 6.42039L1.87473 6.26539H1.60223ZM3.12473 6.26539L3.03973 6.00789L2.95723 6.26289H2.68723L2.90473 6.42039L2.82223 6.67789L3.03973 6.51789L3.25723 6.67789L3.17223 6.42039L3.39223 6.26539H3.12473ZM4.64223 6.26539L4.55973 6.00789L4.47473 6.26289H4.20973L4.42473 6.42039L4.34223 6.67789L4.55973 6.51789L4.77723 6.67789L4.69473 6.42039L4.91223 6.26539H4.64223ZM6.16473 6.26539L6.07973 6.00789L5.99973 6.26289H5.72723L5.94473 6.42039L5.86473 6.67789L6.07973 6.51789L6.29723 6.67789L6.21473 6.42039L6.43223 6.26539H6.16473ZM7.68223 6.26539L7.59973 6.00789L7.51723 6.26289H7.24973L7.46473 6.42039L7.38223 6.67789L7.59973 6.51789L7.81723 6.67789L7.73473 6.42039L7.95223 6.26539H7.68223ZM0.844727 6.91039L0.759727 6.65289L0.679727 6.90789H0.407227L0.624727 7.06539L0.544727 7.32039L0.759727 7.16539L0.977227 7.32039L0.894727 7.06789L1.10973 6.91039H0.844727ZM2.36223 6.91039L2.27973 6.65289L2.19473 6.90789H1.92973L2.14723 7.06539L2.06223 7.32039L2.27973 7.16539L2.49723 7.32039L2.41473 7.06789L2.63223 6.91039H2.36223ZM3.88223 6.91039L3.79973 6.65289L3.71723 6.90789H3.44723L3.66473 7.06539L3.58223 7.32039L3.79973 7.16539L4.01723 7.32039L3.93473 7.06789L4.14973 6.91039H3.88223ZM5.40223 6.91039L5.31973 6.65289L5.23473 6.90789H4.96723L5.18723 7.06539L5.10223 7.32039L5.31973 7.16539L5.53723 7.32039L5.45473 7.06789L5.67223 6.91039H5.40223ZM6.92223 6.91039L6.83973 6.65289L6.75723 6.90789H6.48973L6.70473 7.06539L6.62223 7.32039L6.83973 7.16539L7.05723 7.32039L6.97473 7.06789L7.18973 6.91039H6.92223ZM8.44223 6.91039L8.35973 6.65289L8.27723 6.90789H8.00723L8.22723 7.06539L8.14223 7.32039L8.35973 7.16539L8.57723 7.32039L8.49223 7.06789L8.71223 6.91039H8.44223ZM1.60223 7.55539L1.51973 7.30039L1.43973 7.55539H1.17223L1.38723 7.71289L1.30473 7.96789L1.52223 7.81039L1.73973 7.97039L1.65723 7.71289L1.87473 7.55539H1.60223ZM3.12473 7.55539L3.03973 7.30039L2.95723 7.55539H2.68723L2.90473 7.71289L2.82223 7.96789L3.03973 7.81039L3.25723 7.97039L3.17223 7.71289L3.39223 7.55539H3.12473ZM4.64223 7.55539L4.55973 7.30039L4.47473 7.55539H4.20973L4.42473 7.71289L4.34223 7.96789L4.55973 7.81039L4.77723 7.97039L4.69473 7.71289L4.91223 7.55539H4.64223ZM6.16473 7.55539L6.07973 7.30039L5.99973 7.55539H5.72723L5.94473 7.71289L5.86473 7.96789L6.07973 7.81039L6.29723 7.97039L6.21473 7.71289L6.43223 7.55539H6.16473ZM7.68223 7.55539L7.59973 7.30039L7.51723 7.55539H7.24973L7.46473 7.71289L7.38223 7.96789L7.59973 7.81039L7.81723 7.97039L7.73473 7.71289L7.95223 7.55539H7.68223ZM0.844727 8.20289L0.759727 7.94789L0.679727 8.20039H0.407227L0.624727 8.35789L0.544727 8.61539L0.759727 8.45789L0.977227 8.61539L0.894727 8.36039L1.10973 8.20289H0.844727ZM2.36223 8.20289L2.27973 7.94789L2.19473 8.20039H1.92973L2.14723 8.35789L2.06223 8.61539L2.27973 8.45789L2.49723 8.61539L2.41473 8.36039L2.63223 8.20289H2.36223ZM3.88223 8.20289L3.79973 7.94789L3.72223 8.20039H3.45223L3.66973 8.35789L3.58723 8.61539L3.80473 8.45789L4.02223 8.61539L3.93973 8.36039L4.14973 8.20289H3.88223ZM5.40223 8.20289L5.31973 7.94789L5.23473 8.20039H4.96723L5.18723 8.35789L5.10223 8.61539L5.31973 8.45789L5.53723 8.61539L5.45473 8.36039L5.67223 8.20289H5.40223ZM6.92223 8.20289L6.83973 7.94789L6.75723 8.20039H6.48973L6.70473 8.35789L6.62223 8.61539L6.83973 8.45789L7.05723 8.61539L6.97473 8.36039L7.18973 8.20289H6.92223ZM8.44223 8.20289L8.35973 7.94789L8.27723 8.20039H8.00723L8.22723 8.35789L8.14223 8.61539L8.35973 8.45789L8.57723 8.61539L8.49223 8.36039L8.71223 8.20289H8.44223Z" fill="white" style="fill:white;fill-opacity:1;"/>
  <path fill-rule="evenodd" clip-rule="evenodd" d="M7.00017 0.561126C6.89858 0.573798 6.79758 0.588374 6.69721 0.604819L6.623 0.834202L6.8405 0.676702L7.058 0.836703L6.9755 0.579203L7.00017 0.561126ZM4.38108 1.36284C4.50017 1.30232 4.62099 1.24469 4.74342 1.19005L4.6955 1.2242L4.778 1.4817L4.5605 1.3217L4.343 1.4817L4.38108 1.36284ZM3.59663 1.81933C3.68415 1.76152 3.77286 1.70538 3.86274 1.65097L3.883 1.7142H4.1505L3.9355 1.8717L4.018 2.1242L3.8005 1.9692L3.583 2.1242L3.6655 1.8692L3.59663 1.81933ZM2.98916 2.26289C3.01649 2.24091 3.04396 2.21909 3.07158 2.19746L3.1255 2.3592H3.393L3.173 2.5167L3.258 2.7742L3.0405 2.6142L2.823 2.7717L2.9055 2.5167L2.78711 2.43097C2.81515 2.40686 2.84337 2.38293 2.87175 2.3592H2.958L2.98916 2.26289ZM8.11487 0.5C8.26977 0.502172 8.4236 0.508745 8.57625 0.519602L8.493 0.579203L8.578 0.836703L8.3605 0.676702L8.143 0.834202L8.2255 0.579203L8.11487 0.5ZM6.0805 0.811703L6.1655 1.0692H6.433L6.2155 1.2242L6.298 1.4817L6.0805 1.3217L5.8655 1.4817L5.9455 1.2242L5.728 1.0667H6.0005L6.0805 0.811703ZM7.6005 0.811703L7.683 1.0692H7.953L7.7355 1.2242L7.818 1.4817L7.6005 1.3217L7.383 1.4817L7.4655 1.2242L7.2505 1.0667H7.518L7.6005 0.811703ZM5.3205 1.4567L5.403 1.7142H5.673L5.4555 1.8717L5.538 2.1242L5.3205 1.9692L5.103 2.1242L5.188 1.8692L4.968 1.7117H5.2355L5.3205 1.4567ZM6.8405 1.4567L6.923 1.7142H7.1905L6.9755 1.8717L7.058 2.1242L6.8405 1.9692L6.623 2.1242L6.7055 1.8692L6.4905 1.7117H6.758L6.8405 1.4567ZM8.3605 1.4567L8.443 1.7142H8.713L8.493 1.8717L8.578 2.1242L8.3605 1.9692L8.143 2.1242L8.228 1.8692L8.008 1.7117H8.278L8.3605 1.4567ZM4.5605 2.1042L4.643 2.3592H4.913L4.6955 2.5167L4.778 2.7742L4.5605 2.6142L4.343 2.7717L4.4255 2.5167L4.2105 2.3592H4.4755L4.5605 2.1042ZM6.0805 2.1042L6.1655 2.3592H6.433L6.2155 2.5167L6.298 2.7742L6.0805 2.6142L5.8655 2.7717L5.9455 2.5167L5.728 2.3592H6.0005L6.0805 2.1042ZM7.6005 2.1042L7.683 2.3592H7.953L7.7355 2.5167L7.818 2.7742L7.6005 2.6142L7.383 2.7717L7.4655 2.5167L7.2505 2.3592H7.518L7.6005 2.1042Z" fill="white" style="fill:white;fill-opacity:1;"/>
  <path fill-rule="evenodd" clip-rule="evenodd" d="M8 16.0333C12.1605 16.0333 15.5333 12.6605 15.5333 8.5C15.5333 4.33946 12.1605 0.966667 8 0.966667C3.83946 0.966667 0.466667 4.33946 0.466667 8.5C0.466667 12.6605 3.83946 16.0333 8 16.0333ZM8 16.5C12.4183 16.5 16 12.9183 16 8.5C16 4.08172 12.4183 0.5 8 0.5C3.58172 0.5 0 4.08172 0 8.5C0 12.9183 3.58172 16.5 8 16.5Z" fill="#D9D9D9" style="fill:#D9D9D9;fill:color(display-p3 0.8510 0.8510 0.8510);fill-opacity:1;"/>
</svg>