<svg xmlns="http://www.w3.org/2000/svg" width="16" height="17" viewBox="0 0 16 17" fill="none">
  <path fill-rule="evenodd" clip-rule="evenodd" d="M8 16.5C12.4183 16.5 16 12.9183 16 8.5C16 4.08172 12.4183 0.5 8 0.5C3.58172 0.5 0 4.08172 0 8.5C0 12.9183 3.58172 16.5 8 16.5Z" fill="#DA251D" style="fill:#DA251D;fill:color(display-p3 0.8549 0.1451 0.1137);fill-opacity:1;"/>
  <path fill-rule="evenodd" clip-rule="evenodd" d="M10.1938 11.4301L8.09375 9.8668L6.00781 11.4441L6.78125 8.87539L4.69531 7.28867L7.27578 7.26523L8.07734 4.70117L8.89063 7.2582L11.4711 7.26055L9.39688 8.86367L10.1914 11.4324L10.1938 11.4301Z" fill="#FFFF00" style="fill:#FFFF00;fill:color(display-p3 1.0000 1.0000 0.0000);fill-opacity:1;"/>
  <path fill-rule="evenodd" clip-rule="evenodd" d="M8 16.0333C12.1605 16.0333 15.5333 12.6605 15.5333 8.5C15.5333 4.33946 12.1605 0.966667 8 0.966667C3.83946 0.966667 0.466667 4.33946 0.466667 8.5C0.466667 12.6605 3.83946 16.0333 8 16.0333ZM8 16.5C12.4183 16.5 16 12.9183 16 8.5C16 4.08172 12.4183 0.5 8 0.5C3.58172 0.5 0 4.08172 0 8.5C0 12.9183 3.58172 16.5 8 16.5Z" fill="#D9D9D9" style="fill:#D9D9D9;fill:color(display-p3 0.8510 0.8510 0.8510);fill-opacity:1;"/>
</svg>