<svg width="116" height="98" viewBox="0 0 116 98" fill="none" xmlns="http://www.w3.org/2000/svg">
<path d="M39.5 7.28084C39.5 8.58951 39.714 9.83442 40.1419 11.0156C40.5768 12.1967 41.2152 13.2068 42.057 14.0457C42.3797 14.3678 42.7164 14.5221 43.0671 14.5087C43.4179 14.4953 43.7055 14.3577 43.93 14.096C44.1404 13.8544 44.2176 13.596 44.1615 13.3209C44.1124 13.0457 43.9756 12.7873 43.7511 12.5457C43.1197 11.8813 42.6392 11.0961 42.3095 10.1901C41.9798 9.2774 41.815 8.30764 41.815 7.28084C41.815 6.26075 41.9798 5.2977 42.3095 4.3917C42.6392 3.4857 43.1197 2.70049 43.7511 2.03609C43.9756 1.79449 44.1124 1.53611 44.1615 1.26096C44.2176 0.985801 44.1404 0.724067 43.93 0.475755C43.7055 0.214021 43.4179 0.0797985 43.0671 0.0730874C42.7164 0.0596651 42.3797 0.210665 42.057 0.526088C41.5168 1.06298 41.0573 1.69382 40.6785 2.41863C40.2997 3.13672 40.0086 3.91185 39.8052 4.74403C39.6017 5.5695 39.5 6.4151 39.5 7.28084ZM43.951 7.28084C43.951 8.03248 44.0633 8.75057 44.2877 9.43511C44.5192 10.1129 44.8525 10.6834 45.2874 11.1464C45.575 11.4417 45.9012 11.5894 46.266 11.5894C46.6378 11.5827 46.9254 11.4484 47.1288 11.1867C47.3252 10.9518 47.4024 10.7002 47.3603 10.4317C47.3182 10.1633 47.2025 9.90489 47.0131 9.65658C46.7956 9.37471 46.6132 9.01566 46.4659 8.57944C46.3256 8.13651 46.2555 7.70364 46.2555 7.28084C46.2555 6.85804 46.3291 6.42852 46.4764 5.9923C46.6237 5.55608 46.8026 5.19703 47.0131 4.91516C47.2025 4.66685 47.3182 4.40847 47.3603 4.14003C47.4024 3.86487 47.3252 3.61321 47.1288 3.38503C46.9254 3.12329 46.6378 2.98907 46.266 2.98236C45.9012 2.97565 45.575 3.11994 45.2874 3.41523C44.8525 3.88501 44.5192 4.45881 44.2877 5.13663C44.0633 5.81446 43.951 6.52919 43.951 7.28084ZM48.9177 7.28084C48.9177 7.69022 49.0229 8.05933 49.2333 8.38817C49.4438 8.71702 49.7174 8.97875 50.0541 9.17338V27.3576C50.0541 27.7133 50.1593 28.0019 50.3698 28.2233C50.5802 28.4515 50.8503 28.5656 51.18 28.5656C51.5237 28.5656 51.7938 28.4549 51.9902 28.2334C52.1937 28.0119 52.2954 27.72 52.2954 27.3576V9.17338C52.6391 8.97875 52.9162 8.71702 53.1267 8.38817C53.3371 8.05933 53.4423 7.69022 53.4423 7.28084C53.4423 6.87817 53.3406 6.51241 53.1372 6.18357C52.9338 5.85472 52.6602 5.59634 52.3164 5.40843C51.9797 5.21381 51.6009 5.1165 51.18 5.1165C50.7661 5.1165 50.3873 5.21381 50.0436 5.40843C49.6998 5.59634 49.4262 5.85472 49.2228 6.18357C49.0194 6.51241 48.9177 6.87817 48.9177 7.28084ZM55.2206 11.1867C55.4381 11.4484 55.7292 11.5827 56.094 11.5894C56.4588 11.5894 56.785 11.4417 57.0726 11.1464C57.5005 10.6834 57.8267 10.1129 58.0512 9.43511C58.2827 8.75057 58.3985 8.03248 58.3985 7.28084C58.3985 6.52919 58.2827 5.81446 58.0512 5.13663C57.8267 4.45881 57.5005 3.88501 57.0726 3.41523C56.785 3.11994 56.4588 2.97565 56.094 2.98236C55.7292 2.98907 55.4381 3.12329 55.2206 3.38503C55.0383 3.61321 54.9646 3.86487 54.9997 4.14003C55.0418 4.40847 55.154 4.66685 55.3364 4.91516C55.5539 5.19703 55.7327 5.55608 55.873 5.9923C56.0204 6.42852 56.094 6.85804 56.094 7.28084C56.094 7.70364 56.0239 8.13651 55.8836 8.57944C55.7433 9.01566 55.5609 9.37471 55.3364 9.65658C55.154 9.90489 55.0418 10.1633 54.9997 10.4317C54.9646 10.7002 55.0383 10.9518 55.2206 11.1867ZM58.43 14.096C58.6545 14.3577 58.9421 14.4953 59.2929 14.5087C59.6506 14.5221 59.9874 14.3678 60.303 14.0457C61.1448 13.2068 61.7797 12.1967 62.2076 11.0156C62.6425 9.83442 62.86 8.58951 62.86 7.28084C62.86 6.4151 62.7583 5.5695 62.5548 4.74403C62.3514 3.91185 62.0603 3.13672 61.6815 2.41863C61.3027 1.69382 60.8432 1.06298 60.303 0.526088C59.9874 0.210665 59.6506 0.0596651 59.2929 0.0730874C58.9421 0.0797985 58.6545 0.214021 58.43 0.475755C58.2196 0.724067 58.1389 0.985801 58.188 1.26096C58.2441 1.53611 58.3844 1.79449 58.6089 2.03609C59.2332 2.70049 59.7103 3.4857 60.04 4.3917C60.3767 5.2977 60.545 6.26075 60.545 7.28084C60.545 8.30764 60.3767 9.2774 60.04 10.1901C59.7103 11.0961 59.2332 11.8813 58.6089 12.5457C58.3844 12.7873 58.2441 13.0457 58.188 13.3209C58.1389 13.596 58.2196 13.8544 58.43 14.096Z" fill="url(#paint0_radial_4419_6858)" style=""/>
<rect x="37.5" y="33.0723" width="78" height="64" rx="7.52586" fill="url(#paint1_radial_4419_6858)" style=""/>
<path d="M0.5 31.7792C0.5 25.3136 5.74136 20.0723 12.2069 20.0723H57.7931C64.2586 20.0723 69.5 25.3136 69.5 31.7792V97.0723H12.2069C5.74136 97.0723 0.5 91.8309 0.5 85.3654V31.7792Z" fill="url(#paint2_radial_4419_6858)" style=""/>
<path d="M16.5 87.7619C16.5 84.0673 19.4951 81.0723 23.1897 81.0723H46.8103C50.5049 81.0723 53.5 84.0673 53.5 87.7619V97.0723H16.5V87.7619Z" fill="#FEE9D6" style="fill:#FEE9D6;fill:color(display-p3 0.9961 0.9137 0.8392);fill-opacity:1;"/>
<rect x="16.5" y="54.0723" width="16" height="16" rx="3.34483" fill="#FEE9D6" style="fill:#FEE9D6;fill:color(display-p3 0.9961 0.9137 0.8392);fill-opacity:1;"/>
<rect x="16.5" y="33.0723" width="16" height="16" rx="3.34483" fill="#FEE9D6" style="fill:#FEE9D6;fill:color(display-p3 0.9961 0.9137 0.8392);fill-opacity:1;"/>
<rect x="37.5" y="54.0723" width="16" height="16" rx="3.34483" fill="#FEE9D6" style="fill:#FEE9D6;fill:color(display-p3 0.9961 0.9137 0.8392);fill-opacity:1;"/>
<rect x="37.5" y="33.0723" width="16" height="16" rx="3.34483" fill="#FEE9D6" style="fill:#FEE9D6;fill:color(display-p3 0.9961 0.9137 0.8392);fill-opacity:1;"/>
<rect x="85.5" y="72.8223" width="14" height="14" rx="3.34483" fill="#FEE9D6" style="fill:#FEE9D6;fill:color(display-p3 0.9961 0.9137 0.8392);fill-opacity:1;"/>
<rect x="85.5" y="52.7529" width="14" height="14" rx="3.34483" fill="#FEE9D6" style="fill:#FEE9D6;fill:color(display-p3 0.9961 0.9137 0.8392);fill-opacity:1;"/>
<defs>
<radialGradient id="paint0_radial_4419_6858" cx="0" cy="0" r="1" gradientUnits="userSpaceOnUse" gradientTransform="translate(43.8653 18.7614) rotate(90) scale(25.7702 26.639)">
<stop stop-color="#F65F19" style="stop-color:#F65F19;stop-color:color(display-p3 0.9647 0.3725 0.0980);stop-opacity:1;"/>
<stop offset="0.758958" stop-color="#F87D39" style="stop-color:#F87D39;stop-color:color(display-p3 0.9725 0.4902 0.2235);stop-opacity:1;"/>
</radialGradient>
<radialGradient id="paint1_radial_4419_6858" cx="0" cy="0" r="1" gradientUnits="userSpaceOnUse" gradientTransform="translate(83.2826 115.006) rotate(-90) scale(67.8681 81.8152)">
<stop stop-color="#0F1FEA" style="stop-color:#0F1FEA;stop-color:color(display-p3 0.0588 0.1216 0.9176);stop-opacity:1;"/>
<stop offset="0.758958" stop-color="#8EB6FF" style="stop-color:#8EB6FF;stop-color:color(display-p3 0.5569 0.7137 1.0000);stop-opacity:1;"/>
</radialGradient>
<radialGradient id="paint2_radial_4419_6858" cx="0" cy="0" r="1" gradientUnits="userSpaceOnUse" gradientTransform="translate(13.3939 70.5776) rotate(90) scale(69.6412 78.6855)">
<stop stop-color="#F65F19" style="stop-color:#F65F19;stop-color:color(display-p3 0.9647 0.3725 0.0980);stop-opacity:1;"/>
<stop offset="0.758958" stop-color="#F87D39" style="stop-color:#F87D39;stop-color:color(display-p3 0.9725 0.4902 0.2235);stop-opacity:1;"/>
</radialGradient>
</defs>
</svg>
