<svg width="116" height="97" viewBox="0 0 116 97" fill="none" xmlns="http://www.w3.org/2000/svg">
<rect x="0.166016" y="23" width="51" height="74" rx="9" fill="url(#paint0_radial_4419_6787)" style=""/>
<path d="M87.1422 93C85.2216 93 83.7811 92.1304 81.5113 90.087L69.3021 79.1716C66.7356 76.8771 63.4137 75.6087 59.9711 75.6087H37.0311C23.8486 75.6087 16.166 67.8696 16.166 54.8696V20.8261C16.166 7.78261 23.8486 0 37.0311 0H94.2573C107.483 0 115.166 7.78261 115.166 20.8261V54.8696C115.166 67.913 107.178 75.6087 94.7374 75.6087V75.6087C92.9535 75.6087 91.5073 77.0549 91.5073 78.8389V88.087C91.5073 91.087 89.8486 93 87.1422 93Z" fill="url(#paint1_radial_4419_6787)" style=""/>
<rect x="32.166" y="16" width="67" height="8" rx="4" fill="#FEE9D6" style="fill:#FEE9D6;fill:color(display-p3 0.9961 0.9137 0.8392);fill-opacity:1;"/>
<rect x="32.166" y="31" width="47" height="8" rx="4" fill="#FEE9D6" style="fill:#FEE9D6;fill:color(display-p3 0.9961 0.9137 0.8392);fill-opacity:1;"/>
<defs>
<radialGradient id="paint0_radial_4419_6787" cx="0" cy="0" r="1" gradientUnits="userSpaceOnUse" gradientTransform="translate(50.9994 56.4193) rotate(-180) scale(51)">
<stop stop-color="#0F1FEA" style="stop-color:#0F1FEA;stop-color:color(display-p3 0.0588 0.1216 0.9176);stop-opacity:1;"/>
<stop offset="0.758958" stop-color="#8EB6FF" style="stop-color:#8EB6FF;stop-color:color(display-p3 0.5569 0.7137 1.0000);stop-opacity:1;"/>
</radialGradient>
<radialGradient id="paint1_radial_4419_6787" cx="0" cy="0" r="1" gradientUnits="userSpaceOnUse" gradientTransform="translate(34.666 61) rotate(90) scale(91 96.871)">
<stop stop-color="#F65F19" style="stop-color:#F65F19;stop-color:color(display-p3 0.9647 0.3725 0.0980);stop-opacity:1;"/>
<stop offset="0.758958" stop-color="#F87D39" style="stop-color:#F87D39;stop-color:color(display-p3 0.9725 0.4902 0.2235);stop-opacity:1;"/>
</radialGradient>
</defs>
</svg>
