<svg width="116" height="98" viewBox="0 0 116 98" fill="none" xmlns="http://www.w3.org/2000/svg">
<rect x="37.8379" y="29.7783" width="77.6623" height="67.2217" rx="8" fill="url(#paint0_radial_4419_6849)" style=""/>
<path d="M64.7207 4.24121C64.7207 2.03208 66.5116 0.241211 68.7207 0.241211H77.6471C79.8562 0.241211 81.6471 2.03207 81.6471 4.24121V34.9446C81.6471 37.1538 79.8562 38.9446 77.6471 38.9446H68.7207C66.5116 38.9446 64.7207 37.1538 64.7207 34.9446V4.24121Z" fill="url(#paint1_radial_4419_6849)" style=""/>
<path fill-rule="evenodd" clip-rule="evenodd" d="M50.3715 1.6353C47.8118 -0.5451 43.7943 -0.545101 41.2345 1.6353L2.57607 34.5644C-1.76508 38.2622 1.1553 44.8145 7.14459 44.8145H11.9502V81C11.9502 89.8366 19.1137 97 27.9502 97H80.6515V44.8145H84.4615C90.4508 44.8145 93.3711 38.2622 89.03 34.5644L50.3715 1.6353Z" fill="url(#paint2_radial_4419_6849)" style=""/>
<path d="M28 73.8342C28 70.1396 30.9951 67.1445 34.6897 67.1445H58.3103C62.0049 67.1445 65 70.1396 65 73.8342V97.1445H28V73.8342Z" fill="#FEE9D6" style="fill:#FEE9D6;fill:color(display-p3 0.9961 0.9137 0.8392);fill-opacity:1;"/>
<defs>
<radialGradient id="paint0_radial_4419_6849" cx="0" cy="0" r="1" gradientUnits="userSpaceOnUse" gradientTransform="translate(83.4223 115.837) rotate(-90) scale(71.2845 81.461)">
<stop stop-color="#0F1FEA" style="stop-color:#0F1FEA;stop-color:color(display-p3 0.0588 0.1216 0.9176);stop-opacity:1;"/>
<stop offset="0.758958" stop-color="#8EB6FF" style="stop-color:#8EB6FF;stop-color:color(display-p3 0.5569 0.7137 1.0000);stop-opacity:1;"/>
</radialGradient>
<radialGradient id="paint1_radial_4419_6849" cx="0" cy="0" r="1" gradientUnits="userSpaceOnUse" gradientTransform="translate(67.8837 19.5929) rotate(90) scale(39.2127 21.6228)">
<stop stop-color="#F65F19" style="stop-color:#F65F19;stop-color:color(display-p3 0.9647 0.3725 0.0980);stop-opacity:1;"/>
<stop offset="0.758958" stop-color="#F87D39" style="stop-color:#F87D39;stop-color:color(display-p3 0.9725 0.4902 0.2235);stop-opacity:1;"/>
</radialGradient>
<radialGradient id="paint2_radial_4419_6849" cx="0" cy="0" r="1" gradientUnits="userSpaceOnUse" gradientTransform="translate(11.1955 28.6181) scale(87.8759 210.814)">
<stop stop-color="#F65F19" style="stop-color:#F65F19;stop-color:color(display-p3 0.9647 0.3725 0.0980);stop-opacity:1;"/>
<stop offset="0.758958" stop-color="#F87D39" style="stop-color:#F87D39;stop-color:color(display-p3 0.9725 0.4902 0.2235);stop-opacity:1;"/>
</radialGradient>
</defs>
</svg>
