<svg width="116" height="98" viewBox="0 0 116 98" fill="none" xmlns="http://www.w3.org/2000/svg">
<rect x="28.4355" y="19.2412" width="87.0638" height="77.8298" rx="9" fill="url(#paint0_radial_4419_6820)" style=""/>
<path fill-rule="evenodd" clip-rule="evenodd" d="M103.09 37.3788C108.688 41.8209 105.546 50.8326 98.4001 50.8326C96.6973 50.8326 95.0446 50.2565 93.7107 49.198L90.4029 46.5732V73.3267H102.032C104.241 73.3267 106.032 75.1176 106.032 77.3267V97.0714H0.5V77.3267C0.5 75.1176 2.29086 73.3267 4.5 73.3267H17.4724V45.5415L12.8645 49.198C11.5306 50.2565 9.87787 50.8326 8.17505 50.8326C1.02874 50.8326 -2.11235 41.8209 3.48561 37.3788L48.3148 1.80558C51.2272 -0.505506 55.348 -0.505505 58.2604 1.80558L103.09 37.3788Z" fill="url(#paint1_radial_4419_6820)" style=""/>
<path d="M28.2012 49.5823C28.2012 46.6681 30.5636 44.3057 33.4778 44.3057V44.3057C36.392 44.3057 38.7544 46.6681 38.7544 49.5823V73.3269H28.2012V49.5823Z" fill="#FEE9D6" style="fill:#FEE9D6;fill:color(display-p3 0.9961 0.9137 0.8392);fill-opacity:1;"/>
<path d="M49.3086 49.5823C49.3086 46.6681 51.671 44.3057 54.5852 44.3057V44.3057C57.4994 44.3057 59.8618 46.6681 59.8618 49.5823V73.3269H49.3086V49.5823Z" fill="#FEE9D6" style="fill:#FEE9D6;fill:color(display-p3 0.9961 0.9137 0.8392);fill-opacity:1;"/>
<path d="M69.0957 49.5823C69.0957 46.6681 71.4581 44.3057 74.3723 44.3057V44.3057C77.2865 44.3057 79.6489 46.6681 79.6489 49.5823V73.3269H69.0957V49.5823Z" fill="#FEE9D6" style="fill:#FEE9D6;fill:color(display-p3 0.9961 0.9137 0.8392);fill-opacity:1;"/>
<defs>
<radialGradient id="paint0_radial_4419_6820" cx="0" cy="0" r="1" gradientUnits="userSpaceOnUse" gradientTransform="translate(56.1377 54.3901) scale(64.6383 64.6383)">
<stop stop-color="#0F1FEA" style="stop-color:#0F1FEA;stop-color:color(display-p3 0.0588 0.1216 0.9176);stop-opacity:1;"/>
<stop offset="0.758958" stop-color="#8EB6FF" style="stop-color:#8EB6FF;stop-color:color(display-p3 0.5569 0.7137 1.0000);stop-opacity:1;"/>
</radialGradient>
<radialGradient id="paint1_radial_4419_6820" cx="0" cy="0" r="1" gradientUnits="userSpaceOnUse" gradientTransform="translate(20.2206 63.6953) rotate(90) scale(94.9131 103.262)">
<stop stop-color="#F65F19" style="stop-color:#F65F19;stop-color:color(display-p3 0.9647 0.3725 0.0980);stop-opacity:1;"/>
<stop offset="0.758958" stop-color="#F87D39" style="stop-color:#F87D39;stop-color:color(display-p3 0.9725 0.4902 0.2235);stop-opacity:1;"/>
</radialGradient>
</defs>
</svg>
