<svg width="308" height="25" viewBox="0 0 308 25" fill="none" xmlns="http://www.w3.org/2000/svg">
<path d="M107.489 16.1784C107.489 17.8425 107.094 19.3031 106.294 20.5617C105.499 21.8203 104.364 22.8008 102.888 23.5047C101.418 24.2085 99.7033 24.5597 97.7458 24.5597C96.0369 24.5597 94.4599 24.2691 93.024 23.6802C91.5881 23.0851 90.3654 22.2538 89.3652 21.1646L91.6295 18.9116L93.2648 17.2878C93.6054 17.7882 94.0932 18.2139 94.7145 18.5588C94.8342 18.6272 94.9615 18.694 95.095 18.7546C95.9034 19.14 96.7517 19.3295 97.64 19.3295C98.3947 19.3295 99.062 19.1944 99.6434 18.9302C100.225 18.6661 100.679 18.2807 101.012 17.7866C101.339 17.2925 101.506 16.6974 101.506 16.0013C101.506 15.3051 101.332 14.7162 100.992 14.2159C100.651 13.7218 100.163 13.3504 99.5422 13.0925C98.9148 12.8361 98.1661 12.7134 97.2979 12.7134C96.8438 12.7134 96.3698 12.7398 95.8819 12.7942C95.3941 12.8548 95.0075 12.9433 94.713 13.0505C94.713 13.0505 94.7084 13.0526 94.6992 13.0568V9.66166L94.713 9.64768L98.8196 5.15713H94.713V0H106.979V3.36092L101.704 9.04169C102.652 9.13647 103.52 9.41305 104.309 9.88697C105.29 10.4759 106.065 11.3072 106.633 12.3824C107.206 13.4577 107.487 14.7225 107.487 16.1768L107.489 16.1784Z" fill="#FF6700"/>
<path d="M124.745 11.7609C124.004 10.5256 123.011 9.54357 121.769 8.81639C120.526 8.0892 119.141 7.7256 117.613 7.7256C117.582 7.7256 117.556 7.72871 117.527 7.72871L123.324 0H116.484L109.541 9.90717C108.172 11.9396 107.488 13.9595 107.488 15.9686C107.488 17.5862 107.893 19.0467 108.703 20.3504C109.512 21.6556 110.607 22.6827 111.986 23.4332C113.365 24.1837 114.921 24.5597 116.654 24.5597C118.388 24.5597 119.977 24.179 121.356 23.4161C122.735 22.6547 123.829 21.6276 124.639 20.3333C125.448 19.0405 125.853 17.5737 125.853 15.9344C125.853 14.3884 125.481 12.9962 124.742 11.7609H124.745ZM119.581 17.6157C119.296 18.158 118.903 18.5806 118.402 18.8805C117.9 19.1804 117.319 19.3311 116.657 19.3311C115.996 19.3311 115.449 19.1804 114.947 18.8805C114.445 18.5806 114.053 18.1595 113.767 17.6157C113.482 17.0734 113.339 16.4674 113.339 15.7977C113.339 15.128 113.482 14.5282 113.767 13.9968C114.053 13.4654 114.445 13.0443 114.947 12.732C115.449 12.4197 116.018 12.2643 116.657 12.2643C117.297 12.2643 117.9 12.415 118.402 12.7149C118.903 13.0148 119.296 13.4375 119.581 13.9797C119.867 14.5236 120.009 15.1296 120.009 15.7993C120.009 16.469 119.867 17.0749 119.581 17.6172V17.6157Z" fill="#FF6700"/>
<path d="M141.333 12.0033C140.695 10.768 139.755 9.77509 138.512 9.0246C137.269 8.2741 135.725 7.89963 133.878 7.89963C133.147 7.89963 132.515 7.95712 131.98 8.0721C131.834 8.10318 131.692 8.14047 131.55 8.18243L131.931 5.1618H140.957V0H127.037L125.841 11.2932L128.235 13.5105C128.76 13.1174 129.346 12.8113 129.996 12.5922C130.647 12.3731 131.359 12.2628 132.133 12.2628C132.999 12.2628 133.741 12.4135 134.356 12.7134C134.971 13.0133 135.445 13.4297 135.775 13.9611C136.105 14.4925 136.271 15.1156 136.271 15.8319C136.271 16.5482 136.105 17.1666 135.775 17.6856C135.444 18.2046 134.988 18.6086 134.407 18.8976C133.825 19.1866 133.135 19.3311 132.337 19.3311C131.448 19.3311 130.598 19.14 129.789 18.7593C128.979 18.3786 128.37 17.8876 127.959 17.2863L124.06 21.1662C125.04 22.2523 126.287 23.0882 127.804 23.6771C129.32 24.266 130.911 24.5597 132.575 24.5597C134.559 24.5597 136.274 24.2008 137.722 23.486C139.17 22.7697 140.293 21.7706 141.091 20.4887C141.888 19.2068 142.287 17.7353 142.287 16.0712C142.287 14.5935 141.968 13.237 141.33 12.0017L141.333 12.0033Z" fill="#FF6700"/>
<path d="M64.9109 12.7305C64.4093 12.2255 63.8141 11.8075 63.1314 11.4657C63.5993 11.1999 64.0212 10.897 64.3802 10.5473C65.4847 9.4752 66.0416 8.11561 66.0416 6.47633C66.0416 5.25502 65.7424 4.15647 65.1518 3.18689C64.5566 2.2173 63.7098 1.4435 62.6037 0.867033C61.4992 0.289011 60.1906 0 58.6857 0H47.6758V24.5628H58.4495C60.137 24.5628 61.6004 24.2505 62.8446 23.6274C64.0841 23.0043 65.0459 22.1528 65.7347 21.0807C66.4174 20.0039 66.7595 18.7779 66.7595 17.3888C66.7595 15.5211 66.1443 13.9673 64.9125 12.732L64.9109 12.7305ZM53.6954 4.60863H57.2176C58.0154 4.60863 58.6689 4.80908 59.1828 5.21152C59.6967 5.61707 59.9498 6.24481 59.9498 7.09941C59.9498 7.95401 59.6967 8.58642 59.1828 8.9873C58.6689 9.39285 58.0138 9.5933 57.2176 9.5933H53.6954V4.60863ZM59.867 19.14C59.3101 19.6823 58.5507 19.9511 57.5935 19.9511H53.6954V14.0636H57.5935C58.2301 14.0636 58.7824 14.1833 59.2518 14.4272C59.7197 14.6712 60.0787 15.0161 60.3318 15.4652C60.5803 15.9173 60.7076 16.4301 60.7076 17.0081C60.7076 17.8876 60.43 18.5977 59.8685 19.14H59.867Z" fill="#0F1FEA"/>
<path d="M67.8184 24.5578V7.20312H73.8043V24.5578H67.8184Z" fill="#0F1FEA"/>
<path d="M75.6152 24.5597V0H81.5659V24.5597H75.6152Z" fill="#0F1FEA"/>
<path d="M83.4131 24.5597V0H89.3637V24.5597H83.4131Z" fill="#0F1FEA"/>
<path d="M70.8103 6.06301C72.4633 6.06301 73.8033 4.70576 73.8033 3.03151C73.8033 1.35725 72.4633 0 70.8103 0C69.1574 0 67.8174 1.35725 67.8174 3.03151C67.8174 4.70576 69.1574 6.06301 70.8103 6.06301Z" fill="#FF6700"/>
<path d="M27.7358 0L23.5033 14.449L19.323 0H14.4324L10.269 14.3915L6.0534 0H0L7.69485 24.5597H12.6529L16.8639 9.94291L21.101 24.5597H26.0269L33.7555 0H27.7358Z" fill="#0F1FEA"/>
<path d="M43.0208 16.3027C42.9871 16.6336 42.9134 16.9522 42.7999 17.2629C42.6127 17.7912 42.3121 18.2714 41.8979 18.6893C40.8363 19.7584 39.3268 20.0893 37.9845 19.6776L41.3241 16.3027L46.3528 11.2232C46.026 10.6949 45.6379 10.2024 45.1915 9.74243C44.7374 9.2825 44.2496 8.89093 43.7295 8.55842C43.2693 8.26008 42.7815 8.00992 42.2799 7.81414C39.2087 6.57574 35.5622 7.21281 33.0709 9.73466C31.5614 11.2636 30.7269 13.2245 30.5873 15.2274C30.5336 15.8971 30.5612 16.5808 30.667 17.2505C30.848 18.3941 31.2546 19.516 31.8897 20.5244C32.2241 21.0527 32.6107 21.5453 33.0586 22.0052C33.5127 22.4589 34.0005 22.8567 34.5144 23.1892C37.8265 25.3335 42.2814 24.9481 45.1792 22.0192C46.5016 20.6798 47.3024 19.0094 47.5831 17.2707C47.6368 16.9459 47.6629 16.6274 47.6767 16.3042H43.0223L43.0208 16.3027ZM35.2477 15.2336C35.3751 14.435 35.7417 13.6705 36.3492 13.0552C37.4046 11.9861 38.9203 11.6552 40.2564 12.0669L35.3612 17.0112C35.194 16.4363 35.1541 15.821 35.2477 15.2321V15.2336Z" fill="#0F1FEA"/>
<g opacity="0.5">
<path d="M153.365 17.4578L151 9.59949H152.617L154.192 15.3704H154.271L155.851 9.59949H157.468L159.038 15.3448H159.116L160.681 9.59949H162.298L159.938 17.4578H158.342L156.709 11.7841H156.589L154.956 17.4578H153.365Z" fill="black"/>
<path d="M163.488 17.4578V9.59949H165.053V17.4578H163.488ZM164.278 8.38698C164.006 8.38698 163.772 8.29831 163.577 8.12095C163.385 7.94018 163.289 7.72531 163.289 7.47632C163.289 7.22393 163.385 7.00906 163.577 6.8317C163.772 6.65093 164.006 6.56055 164.278 6.56055C164.55 6.56055 164.782 6.65093 164.974 6.8317C165.169 7.00906 165.267 7.22393 165.267 7.47632C165.267 7.72531 165.169 7.94018 164.974 8.12095C164.782 8.29831 164.55 8.38698 164.278 8.38698Z" fill="black"/>
<path d="M170.615 9.59949V10.8274H166.224V9.59949H170.615ZM167.402 7.71678H168.966V15.1504C168.966 15.4472 169.012 15.6706 169.102 15.8206C169.193 15.9673 169.31 16.0679 169.453 16.1225C169.6 16.1736 169.758 16.1992 169.929 16.1992C170.055 16.1992 170.165 16.1907 170.259 16.1736C170.353 16.1566 170.426 16.143 170.479 16.1327L170.761 17.3964C170.671 17.4305 170.541 17.4646 170.374 17.4987C170.207 17.5362 169.997 17.5567 169.746 17.5601C169.334 17.5669 168.951 17.4953 168.595 17.3452C168.239 17.1952 167.951 16.9632 167.731 16.6494C167.512 16.3357 167.402 15.9417 167.402 15.4676V7.71678Z" fill="black"/>
<path d="M173.788 12.7919V17.4578H172.223V6.98006H173.767V10.8785H173.867C174.055 10.4556 174.343 10.1196 174.73 9.87065C175.117 9.62166 175.623 9.49717 176.248 9.49717C176.799 9.49717 177.28 9.60802 177.692 9.82972C178.107 10.0514 178.428 10.3823 178.655 10.8222C178.885 11.2588 179 11.8045 179 12.4594V17.4578H177.435V12.6436C177.435 12.0671 177.284 11.6203 176.98 11.3031C176.677 10.9825 176.254 10.8222 175.714 10.8222C175.344 10.8222 175.013 10.899 174.72 11.0525C174.43 11.2059 174.201 11.431 174.034 11.7278C173.87 12.0211 173.788 12.3758 173.788 12.7919Z" fill="black"/>
</g>
<path d="M185.092 0H209.5V24.4078H185.092V0Z" fill="#008CCE"/>
<path d="M185.092 0L191.232 6.08915L197.321 0H185.092Z" fill="#008CCE"/>
<path d="M185.092 0V12.2295L191.232 6.08915L185.092 0Z" fill="#0098D6"/>
<path d="M197.321 12.2302L191.232 6.08984L185.092 12.2302H197.321Z" fill="#008CCE"/>
<path d="M197.322 12.2295V0L191.232 6.08915L197.322 12.2295Z" fill="#007AC5"/>
<path d="M197.321 0V12.2295L203.41 6.08915L197.321 0Z" fill="#0067B5"/>
<path d="M209.551 12.2302L203.41 6.08984L197.321 12.2302H209.551Z" fill="#004293"/>
<path d="M185.092 12.2285L191.232 18.3177L197.321 12.2285H185.092Z" fill="#007AC5"/>
<path d="M185.092 12.2285V24.4068L191.232 18.3177L185.092 12.2285Z" fill="#0067B5"/>
<path d="M197.321 24.4075L191.232 18.3184L185.092 24.4075H197.321Z" fill="#0055A6"/>
<path d="M197.322 24.4068V12.2285L191.232 18.3177L197.322 24.4068Z" fill="#004898"/>
<path d="M197.321 12.2285L203.41 18.3177L209.551 12.2285H197.321Z" fill="#0B2C85"/>
<path d="M197.321 12.2285V24.4068L203.41 18.3177L197.321 12.2285Z" fill="#004293"/>
<path d="M209.551 24.4068L203.41 18.3177L197.321 24.4068H209.551ZM209.551 24.4068V12.2285L203.41 18.3177L209.551 24.4068Z" fill="#0B2C85"/>
<path d="M197.321 0L203.41 6.08915L209.551 0H197.321Z" fill="#0055A6"/>
<path d="M209.55 12.2295V0L203.41 6.08915L209.55 12.2295Z" fill="#004898"/>
<path d="M209.551 15.2477L201.722 7.82812L189.851 19.6994L194.149 24.0488L201.722 16.6292L209.551 24.407V15.2477Z" fill="white"/>
<path d="M248.337 12.5364C248.337 8.64757 250.64 6.24262 253.966 6.24262C255.756 6.24262 257.292 6.65197 258.468 7.52185V5.2704C257.65 4.70754 256.012 4.09351 253.71 4.09351C248.593 4.09351 245.062 7.41951 245.062 12.5364C245.062 17.6534 248.593 20.9794 253.71 20.9794C256.012 20.9794 257.599 20.4677 258.468 19.8025V17.551C257.292 18.4209 255.756 18.8303 253.966 18.8303C250.64 18.8303 248.337 16.4253 248.337 12.5364ZM234.47 6.19145H236.773C238.768 6.19145 240.047 7.62419 240.047 9.97798C240.047 12.3829 238.768 13.7645 236.773 13.7645H234.47V6.19145ZM234.47 15.7089H236.824C240.201 15.7089 243.169 13.7133 243.169 10.0291C243.169 6.34496 240.252 4.34935 236.824 4.34935H231.298V20.7747H234.47V15.7089ZM220.091 6.19145H222.394C224.39 6.19145 225.669 7.62419 225.669 9.97798C225.669 12.3829 224.39 13.7645 222.394 13.7645H220.091V6.19145ZM220.091 15.7089H222.445C225.822 15.7089 228.79 13.7133 228.79 10.0291C228.79 6.34496 225.874 4.34935 222.445 4.34935H216.919V20.7747H220.091V15.7089Z" fill="#021D49"/>
<path d="M283.797 10.7446C283.132 10.1306 282.159 9.82355 280.829 9.82355C280.215 9.82355 279.601 9.92589 278.987 10.0794C278.373 10.2329 277.759 10.4376 277.247 10.7446L276.94 10.8981L277.759 12.8937L278.168 12.689C278.578 12.4844 278.987 12.3308 279.448 12.1773C279.857 12.0238 280.317 11.9727 280.829 11.9727C281.443 11.9727 281.852 12.1262 282.108 12.382C282.364 12.689 282.518 13.1496 282.518 13.7636V13.9683L281.238 14.0194C277.81 14.1218 276.07 15.3498 276.07 17.6013C276.07 18.6758 276.377 19.4945 277.043 20.1086C277.657 20.6714 278.526 20.9785 279.652 20.9785C280.471 20.9785 281.136 20.8761 281.699 20.6203C282.108 20.4668 282.467 20.1597 282.825 19.8016L283.029 20.8249H284.974V13.5589C284.82 12.3308 284.462 11.3586 283.797 10.7446ZM282.364 15.9127V16.3732C282.364 17.1408 282.159 17.7548 281.699 18.1641C281.238 18.5735 280.624 18.7782 279.806 18.7782C279.345 18.7782 278.987 18.6758 278.731 18.4712C278.526 18.2665 278.373 18.0106 278.373 17.6013C278.373 17.0384 278.578 16.6802 278.987 16.4244C279.448 16.1685 280.215 15.9639 281.29 15.9639L282.364 15.9127ZM295.31 10.8469C294.645 10.1817 293.621 9.82355 292.291 9.82355C291.575 9.82355 290.858 9.97706 290.244 10.2841C289.886 10.4376 289.579 10.6934 289.323 10.9493L289.17 10.0282H287.072V20.8249H289.528V15.1963C289.528 14.0194 289.733 13.2007 290.142 12.689C290.5 12.2285 291.165 11.9727 292.035 11.9727C292.7 11.9727 293.161 12.1262 293.417 12.4332C293.724 12.7402 293.826 13.2519 293.826 13.9683V20.7738H296.282V13.8659C296.333 12.5355 295.975 11.5121 295.31 10.8469ZM303.395 14.6846L307.846 9.97706H304.776L301.45 13.5077L300.99 14.0706L301.041 5.83234H298.585V20.7738H301.041V16.8849L301.655 16.322L304.981 20.7738H308L303.395 14.6846ZM269.725 11.9727C271.209 11.461 272.181 10.0282 272.181 8.69782C272.181 5.5765 269.521 4.24609 266.348 4.24609H261.129V20.6714H267.218C270.851 20.6714 273.921 19.4434 273.921 16.0662C273.921 13.9171 272.028 12.382 269.725 11.9727ZM264.25 6.13936H266.348C267.934 6.13936 269.111 7.31625 269.111 8.80016C269.111 10.2841 267.986 11.5121 266.348 11.5121H264.25V6.13936ZM267.269 18.9317H264.25V13.3031H266.348C268.497 13.3031 270.544 14.0194 270.544 16.1174C270.544 18.0106 269.06 18.9317 267.269 18.9317Z" fill="#004898"/>
</svg>
