<svg width="183" height="33" viewBox="0 0 183 33" fill="none" xmlns="http://www.w3.org/2000/svg">
<path d="M137.513 21.4851C137.513 23.6141 137.009 25.4827 135.984 27.0928C134.967 28.703 133.515 29.9573 131.627 30.8578C129.747 31.7583 127.553 32.2076 125.049 32.2076C122.862 32.2076 120.845 31.8358 119.008 31.0824C117.171 30.3211 115.607 29.2576 114.327 27.8641L117.224 24.9817L119.316 22.9044C119.752 23.5445 120.376 24.0892 121.171 24.5305C121.324 24.6179 121.487 24.7034 121.657 24.781C122.692 25.2739 123.777 25.5165 124.913 25.5165C125.879 25.5165 126.733 25.3435 127.476 25.0056C128.22 24.6676 128.801 24.1747 129.227 23.5425C129.645 22.9104 129.859 22.149 129.859 21.2585C129.859 20.3679 129.637 19.6145 129.201 18.9744C128.766 18.3423 128.142 17.8672 127.347 17.5372C126.544 17.2092 125.586 17.0522 124.476 17.0522C123.895 17.0522 123.288 17.086 122.664 17.1556C122.04 17.2331 121.545 17.3464 121.169 17.4836C121.169 17.4836 121.163 17.4862 121.151 17.4915V13.1481L121.169 13.1302L126.422 7.38527H121.169V0.787598H136.861V5.08732L130.112 12.3549C131.325 12.4762 132.436 12.83 133.445 13.4363C134.701 14.1897 135.692 15.2532 136.418 16.6288C137.152 18.0044 137.511 19.6225 137.511 21.4831L137.513 21.4851Z" fill="#FF6700"/>
<path d="M159.59 15.8336C158.642 14.2533 157.372 12.997 155.782 12.0667C154.193 11.1363 152.42 10.6712 150.466 10.6712C150.426 10.6712 150.393 10.6752 150.356 10.6752L157.772 0.787598H149.021L140.139 13.4621C138.388 16.0622 137.513 18.6464 137.513 21.2167C137.513 23.2861 138.031 25.1547 139.067 26.8225C140.101 28.4923 141.503 29.8062 143.267 30.7664C145.031 31.7265 147.021 32.2076 149.239 32.2076C151.457 32.2076 153.49 31.7205 155.254 30.7445C157.019 29.7705 158.418 28.4565 159.454 26.8006C160.488 25.1467 161.007 23.2702 161.007 21.173C161.007 19.1951 160.532 17.414 159.586 15.8336H159.59ZM152.984 23.3239C152.619 24.0176 152.116 24.5583 151.474 24.942C150.833 25.3256 150.089 25.5184 149.243 25.5184C148.397 25.5184 147.696 25.3256 147.055 24.942C146.413 24.5583 145.911 24.0196 145.545 23.3239C145.18 22.6301 144.998 21.8548 144.998 20.9981C144.998 20.1413 145.18 19.374 145.545 18.6942C145.911 18.0143 146.413 17.4756 147.055 17.076C147.696 16.6765 148.425 16.4777 149.243 16.4777C150.061 16.4777 150.833 16.6705 151.474 17.0542C152.116 17.4378 152.619 17.9785 152.984 18.6723C153.349 19.368 153.531 20.1433 153.531 21.0001C153.531 21.8568 153.349 22.6321 152.984 23.3258V23.3239Z" fill="#FF6700"/>
<path d="M180.811 16.1439C179.995 14.5635 178.792 13.2933 177.202 12.3332C175.613 11.373 173.636 10.894 171.273 10.894C170.339 10.894 169.531 10.9675 168.846 11.1146C168.659 11.1544 168.477 11.2021 168.296 11.2557L168.783 7.39136H180.331V0.78772H162.522L160.991 15.2354L164.055 18.0721C164.726 17.5692 165.476 17.1775 166.308 16.8973C167.14 16.617 168.051 16.4758 169.042 16.4758C170.149 16.4758 171.099 16.6687 171.886 17.0523C172.673 17.436 173.279 17.9687 173.701 18.6486C174.123 19.3284 174.335 20.1255 174.335 21.0419C174.335 21.9583 174.123 22.7495 173.701 23.4134C173.277 24.0774 172.694 24.5942 171.95 24.964C171.207 25.3337 170.323 25.5186 169.303 25.5186C168.165 25.5186 167.077 25.2741 166.043 24.787C165.007 24.3 164.228 23.6719 163.702 22.9026L158.713 27.8662C159.967 29.2557 161.563 30.3252 163.504 31.0786C165.443 31.832 167.478 32.2077 169.607 32.2077C172.145 32.2077 174.339 31.7485 176.192 30.8341C178.044 29.9177 179.481 28.6395 180.501 26.9995C181.522 25.3595 182.032 23.477 182.032 21.3481C182.032 19.4576 181.624 17.7222 180.807 16.1419L180.811 16.1439Z" fill="#FF6700"/>
<path d="M83.0426 17.0742C82.4009 16.4281 81.6394 15.8934 80.766 15.4561C81.3646 15.1161 81.9043 14.7285 82.3636 14.2812C83.7766 12.9096 84.489 11.1703 84.489 9.07308C84.489 7.51063 84.1063 6.10522 83.3507 4.8648C82.5893 3.62438 81.5059 2.63443 80.0909 1.89694C78.6779 1.15746 77.0038 0.78772 75.0785 0.78772H60.9932V32.2117H74.7763C76.9351 32.2117 78.8074 31.8121 80.399 31.015C81.9848 30.2178 83.2153 29.1285 84.0965 27.7569C84.9699 26.3793 85.4075 24.8109 85.4075 23.0338C85.4075 20.6444 84.6205 18.6565 83.0446 17.0762L83.0426 17.0742ZM68.6943 6.68368H73.2003C74.2209 6.68368 75.0569 6.94012 75.7144 7.45497C76.3719 7.9738 76.6957 8.77689 76.6957 9.87021C76.6957 10.9635 76.3719 11.7726 75.7144 12.2854C75.0569 12.8043 74.2189 13.0607 73.2003 13.0607H68.6943V6.68368ZM76.5897 25.2741C75.8773 25.9678 74.9058 26.3117 73.6812 26.3117H68.6943V18.7798H73.6812C74.4956 18.7798 75.2022 18.9328 75.8027 19.2449C76.4013 19.557 76.8605 19.9983 77.1844 20.5728C77.5023 21.1513 77.6652 21.8072 77.6652 22.5467C77.6652 23.6719 77.31 24.5803 76.5917 25.2741H76.5897Z" fill="#0F1FEA"/>
<path d="M86.7617 32.2052V10.0029H94.4197V32.2052H86.7617Z" fill="#0F1FEA"/>
<path d="M96.7363 32.2076V0.787598H104.349V32.2076H96.7363Z" fill="#0F1FEA"/>
<path d="M106.713 32.2077V0.78772H114.326V32.2077H106.713Z" fill="#0F1FEA"/>
<path d="M90.5897 8.54431C92.7044 8.54431 94.4187 6.80794 94.4187 4.66602C94.4187 2.52409 92.7044 0.78772 90.5897 0.78772C88.475 0.78772 86.7607 2.52409 86.7607 4.66602C86.7607 6.80794 88.475 8.54431 90.5897 8.54431Z" fill="#FF6700"/>
<path d="M35.4832 0.787598L30.0685 19.2726L24.7205 0.787598H18.4638L13.1374 19.1991L7.7443 0.787598H0L9.84425 32.2076H16.1873L21.5745 13.5079L26.9951 32.2076H33.2969L43.1844 0.787598H35.4832Z" fill="#0F1FEA"/>
<path d="M55.0375 21.6443C54.9943 22.0677 54.9001 22.4752 54.7549 22.8728C54.5154 23.5487 54.1308 24.1629 53.6009 24.6976C52.2428 26.0653 50.3116 26.4887 48.5943 25.9619L52.8669 21.6443L59.3002 15.146C58.8821 14.4701 58.3856 13.84 57.8145 13.2516C57.2336 12.6632 56.6095 12.1623 55.9442 11.7369C55.3554 11.3552 54.7313 11.0351 54.0895 10.7847C50.1605 9.20035 45.4955 10.0154 42.3082 13.2417C40.3771 15.1977 39.3094 17.7064 39.1308 20.2687C39.0622 21.1255 39.0975 22.0001 39.2329 22.8569C39.4645 24.3199 39.9846 25.7552 40.7971 27.0453C41.2249 27.7212 41.7195 28.3513 42.2925 28.9397C42.8735 29.5202 43.4976 30.029 44.155 30.4545C48.3922 33.1977 54.0915 32.7047 57.7988 28.9576C59.4905 27.2441 60.515 25.1071 60.8741 22.8827C60.9428 22.4673 60.9762 22.0598 60.9939 21.6463H55.0394L55.0375 21.6443ZM45.0931 20.2767C45.256 19.2549 45.7251 18.2769 46.5023 17.4897C47.8525 16.122 49.7915 15.6986 51.5009 16.2254L45.2384 22.5508C45.0244 21.8153 44.9734 21.0281 45.0931 20.2747V20.2767Z" fill="#0F1FEA"/>
</svg>
