<svg width="18" height="18"  fill="none" xmlns="http://www.w3.org/2000/svg" viewBox="0 0 18 18"><path fill="#333333" d="M3.60888 17H14.3911C15.2497 17 15.8992 16.7748 16.3395 16.3243C16.7798 15.8795 17 15.2235 17 14.3564V4.65203C17 3.78491 16.7798 3.12613 16.3395 2.67568C15.8992 2.22523 15.2497 2 14.3911 2L3.60888 2C2.75576 2 2.1063 2.22523 1.66047 2.67568C1.22016 3.1205 1 3.77928 1 4.65203L1 14.3564C1 15.2292 1.22016 15.888 1.66047 16.3328C2.1063 16.7776 2.75576 17 3.60888 17ZM3.63364 15.3193C3.31441 15.3193 3.07224 15.2348 2.90712 15.0659C2.742 14.897 2.65944 14.6408 2.65944 14.2973L2.65944 6.99155C2.65944 6.64809 2.742 6.39471 2.90712 6.23142C3.07224 6.0625 3.31441 5.97804 3.63364 5.97804L14.3581 5.97804C14.6773 5.97804 14.9223 6.0625 15.0929 6.23142C15.2635 6.39471 15.3488 6.64809 15.3488 6.99155L15.3488 14.2973C15.3488 14.6408 15.2635 14.897 15.0929 15.0659C14.9223 15.2348 14.6773 15.3193 14.3581 15.3193L3.63364 15.3193ZM7.50568 8.69764H7.95975C8.10285 8.69764 8.20193 8.6723 8.25697 8.62162C8.31201 8.57095 8.33953 8.47241 8.33953 8.32601V7.86149C8.33953 7.71509 8.31201 7.61655 8.25697 7.56588C8.20193 7.5152 8.10285 7.48986 7.95975 7.48986H7.50568C7.36808 7.48986 7.26901 7.5152 7.20846 7.56588C7.15342 7.61655 7.1259 7.71509 7.1259 7.86149V8.32601C7.1259 8.47241 7.15342 8.57095 7.20846 8.62162C7.26901 8.6723 7.36808 8.69764 7.50568 8.69764ZM10.0402 8.69764H10.5026C10.6457 8.69764 10.7448 8.6723 10.7998 8.62162C10.8548 8.57095 10.8824 8.47241 10.8824 8.32601V7.86149C10.8824 7.71509 10.8548 7.61655 10.7998 7.56588C10.7448 7.5152 10.6457 7.48986 10.5026 7.48986H10.0402C9.89714 7.48986 9.79807 7.5152 9.74303 7.56588C9.6935 7.61655 9.66873 7.71509 9.66873 7.86149V8.32601C9.66873 8.47241 9.6935 8.57095 9.74303 8.62162C9.79807 8.6723 9.89714 8.69764 10.0402 8.69764ZM12.5748 8.69764H13.0372C13.1803 8.69764 13.2793 8.6723 13.3344 8.62162C13.3894 8.57095 13.4169 8.47241 13.4169 8.32601V7.86149C13.4169 7.71509 13.3894 7.61655 13.3344 7.56588C13.2793 7.5152 13.1803 7.48986 13.0372 7.48986H12.5748C12.4317 7.48986 12.3326 7.5152 12.2776 7.56588C12.2281 7.61655 12.2033 7.71509 12.2033 7.86149V8.32601C12.2033 8.47241 12.2281 8.57095 12.2776 8.62162C12.3326 8.6723 12.4317 8.69764 12.5748 8.69764ZM4.9711 11.2568H5.42518C5.56828 11.2568 5.66735 11.2314 5.72239 11.1807C5.77743 11.1244 5.80495 11.0259 5.80495 10.8851V10.4122C5.80495 10.2658 5.77743 10.1672 5.72239 10.1166C5.66735 10.0659 5.56828 10.0405 5.42518 10.0405H4.9711C4.828 10.0405 4.72893 10.0659 4.67389 10.1166C4.61885 10.1672 4.59133 10.2658 4.59133 10.4122V10.8851C4.59133 11.0259 4.61885 11.1244 4.67389 11.1807C4.72893 11.2314 4.828 11.2568 4.9711 11.2568ZM7.50568 11.2568H7.95975C8.10285 11.2568 8.20193 11.2314 8.25697 11.1807C8.31201 11.1244 8.33953 11.0259 8.33953 10.8851V10.4122C8.33953 10.2658 8.31201 10.1672 8.25697 10.1166C8.20193 10.0659 8.10285 10.0405 7.95975 10.0405H7.50568C7.36808 10.0405 7.26901 10.0659 7.20846 10.1166C7.15342 10.1672 7.1259 10.2658 7.1259 10.4122V10.8851C7.1259 11.0259 7.15342 11.1244 7.20846 11.1807C7.26901 11.2314 7.36808 11.2568 7.50568 11.2568ZM10.0402 11.2568H10.5026C10.6457 11.2568 10.7448 11.2314 10.7998 11.1807C10.8548 11.1244 10.8824 11.0259 10.8824 10.8851V10.4122C10.8824 10.2658 10.8548 10.1672 10.7998 10.1166C10.7448 10.0659 10.6457 10.0405 10.5026 10.0405H10.0402C9.89714 10.0405 9.79807 10.0659 9.74303 10.1166C9.6935 10.1672 9.66873 10.2658 9.66873 10.4122V10.8851C9.66873 11.0259 9.6935 11.1244 9.74303 11.1807C9.79807 11.2314 9.89714 11.2568 10.0402 11.2568ZM12.5748 11.2568H13.0372C13.1803 11.2568 13.2793 11.2314 13.3344 11.1807C13.3894 11.1244 13.4169 11.0259 13.4169 10.8851V10.4122C13.4169 10.2658 13.3894 10.1672 13.3344 10.1166C13.2793 10.0659 13.1803 10.0405 13.0372 10.0405H12.5748C12.4317 10.0405 12.3326 10.0659 12.2776 10.1166C12.2281 10.1672 12.2033 10.2658 12.2033 10.4122V10.8851C12.2033 11.0259 12.2281 11.1244 12.2776 11.1807C12.3326 11.2314 12.4317 11.2568 12.5748 11.2568ZM4.9711 13.8074H5.42518C5.56828 13.8074 5.66735 13.7821 5.72239 13.7314C5.77743 13.6751 5.80495 13.5766 5.80495 13.4358V12.9713C5.80495 12.8249 5.77743 12.7264 5.72239 12.6757C5.66735 12.6194 5.56828 12.5912 5.42518 12.5912H4.9711C4.828 12.5912 4.72893 12.6194 4.67389 12.6757C4.61885 12.7264 4.59133 12.8249 4.59133 12.9713V13.4358C4.59133 13.5766 4.61885 13.6751 4.67389 13.7314C4.72893 13.7821 4.828 13.8074 4.9711 13.8074ZM7.50568 13.8074H7.95975C8.10285 13.8074 8.20193 13.7821 8.25697 13.7314C8.31201 13.6751 8.33953 13.5766 8.33953 13.4358V12.9713C8.33953 12.8249 8.31201 12.7264 8.25697 12.6757C8.20193 12.6194 8.10285 12.5912 7.95975 12.5912H7.50568C7.36808 12.5912 7.26901 12.6194 7.20846 12.6757C7.15342 12.7264 7.1259 12.8249 7.1259 12.9713V13.4358C7.1259 13.5766 7.15342 13.6751 7.20846 13.7314C7.26901 13.7821 7.36808 13.8074 7.50568 13.8074ZM10.0402 13.8074H10.5026C10.6457 13.8074 10.7448 13.7821 10.7998 13.7314C10.8548 13.6751 10.8824 13.5766 10.8824 13.4358V12.9713C10.8824 12.8249 10.8548 12.7264 10.7998 12.6757C10.7448 12.6194 10.6457 12.5912 10.5026 12.5912H10.0402C9.89714 12.5912 9.79807 12.6194 9.74303 12.6757C9.6935 12.7264 9.66873 12.8249 9.66873 12.9713V13.4358C9.66873 13.5766 9.6935 13.6751 9.74303 13.7314C9.79807 13.7821 9.89714 13.8074 10.0402 13.8074Z" /></svg>