<svg width="11" height="15" viewBox="0 0 11 15" fill="none" xmlns="http://www.w3.org/2000/svg">
<path d="M10.9492 7.53613C10.9492 7.28548 10.8672 7.0804 10.7031 6.9209C10.5436 6.76139 10.3454 6.68164 10.1084 6.68164C9.97624 6.68164 9.85775 6.70671 9.75293 6.75684C9.64811 6.80697 9.55469 6.87305 9.47266 6.95508L8.0166 8.4043L6.0752 10.626L6.58789 10.9473L6.68359 8.58887V1.21973C6.68359 0.946289 6.60156 0.72526 6.4375 0.556641C6.27344 0.388021 6.05924 0.303711 5.79492 0.303711C5.5306 0.303711 5.31641 0.388021 5.15234 0.556641C4.99284 0.72526 4.91309 0.946289 4.91309 1.21973V8.58887L5.00879 10.9473L5.52148 10.626L3.58008 8.4043L2.11719 6.95508C2.03971 6.87305 1.94857 6.80697 1.84375 6.75684C1.73893 6.70671 1.62044 6.68164 1.48828 6.68164C1.24674 6.68164 1.04622 6.76139 0.886719 6.9209C0.727214 7.0804 0.647461 7.28548 0.647461 7.53613C0.647461 7.77311 0.738607 7.98503 0.920898 8.17188L5.14551 12.3965C5.2321 12.4785 5.33236 12.5446 5.44629 12.5947C5.56022 12.6449 5.67643 12.6699 5.79492 12.6699C5.91797 12.6699 6.03646 12.6449 6.15039 12.5947C6.26888 12.5446 6.36914 12.4785 6.45117 12.3965L10.6689 8.17188C10.8558 7.98503 10.9492 7.77311 10.9492 7.53613ZM10.9492 13.5244C10.9492 13.2829 10.8672 13.0801 10.7031 12.916C10.5436 12.752 10.3431 12.6699 10.1016 12.6699H1.50195C1.26042 12.6699 1.05762 12.752 0.893555 12.916C0.729492 13.0801 0.647461 13.2829 0.647461 13.5244C0.647461 13.766 0.729492 13.9688 0.893555 14.1328C1.05762 14.2969 1.26042 14.3789 1.50195 14.3789H10.1016C10.3431 14.3789 10.5436 14.2969 10.7031 14.1328C10.8672 13.9688 10.9492 13.766 10.9492 13.5244Z" fill="#1E5CFE"/>
</svg>
