<svg width="18" height="18" viewBox="0 0 18 18" fill="none" xmlns="http://www.w3.org/2000/svg">
<path d="M8.87994 13.497C9.00848 13.497 9.12988 13.4732 9.24414 13.4256C9.3584 13.3732 9.46313 13.2947 9.55835 13.1899L14.6714 7.96979C14.838 7.80316 14.9213 7.60321 14.9213 7.36993C14.9213 7.20807 14.8809 7.06287 14.7999 6.93433C14.7238 6.80103 14.6214 6.69629 14.4929 6.62012C14.3643 6.54395 14.2191 6.50586 14.0573 6.50586C13.824 6.50586 13.6169 6.59393 13.436 6.77008L8.56573 11.7689H9.20129L4.32391 6.77008C4.14777 6.59393 3.94067 6.50586 3.70264 6.50586C3.54077 6.50586 3.39557 6.54395 3.26703 6.62012C3.13849 6.69629 3.03613 6.80103 2.95996 6.93433C2.88379 7.06287 2.8457 7.20807 2.8457 7.36993C2.8457 7.48895 2.86713 7.59845 2.90997 7.69843C2.95282 7.79364 3.01471 7.88409 3.09564 7.96979L8.20154 13.1971C8.40625 13.397 8.63239 13.497 8.87994 13.497Z" fill="#808080"/>
</svg>
