<svg width="103" height="20" viewBox="0 0 103 20" fill="none" xmlns="http://www.w3.org/2000/svg">
<g clip-path="url(#clip0_781_14127)">
<path fill-rule="evenodd" clip-rule="evenodd" d="M0 20V0H20.6V19.9779L20.5991 12.5008L14.005 6.40375L3.99683 16.1458L7.64775 19.6875L14.005 13.6096L20.6 19.9779V20H0ZM52.5695 10.4163C52.5695 7.32625 54.4913 5.445 57.2152 5.445C58.5349 5.3937 59.838 5.74485 60.9417 6.44917V4.66083C60.2846 4.20542 58.9246 3.75 57.0191 3.75C52.7836 3.75 49.8803 6.385 49.8803 10.4167C49.8803 14.4483 52.7836 17.0833 57.0191 17.0833C58.9229 17.0833 60.2511 16.6592 60.9417 16.1729V14.3854C59.8379 15.0895 58.5348 15.4404 57.2152 15.3888C54.4913 15.3888 52.5695 13.5067 52.5695 10.4163ZM41.1 5.42958H42.9883C44.6295 5.42958 45.6942 6.54125 45.6942 8.42375C45.6942 10.3063 44.629 11.42 42.9883 11.42H41.1V5.42958ZM41.1 12.9254H43.0519C45.8595 12.9254 48.2877 11.3421 48.2877 8.42542C48.2877 5.50875 45.8599 3.92542 43.0519 3.92542H38.4761V16.9092H41.1009L41.1 12.9254ZM29.2335 5.42958H31.1193C32.7622 5.42958 33.8286 6.54125 33.8286 8.42375C33.8286 10.3063 32.7622 11.42 31.1193 11.42H29.2335V5.42958ZM29.2335 12.9254H31.1867C33.993 12.9254 36.4225 11.3421 36.4225 8.42542C36.4225 5.50875 33.993 3.92542 31.1867 3.92542H26.6083V16.9092H29.234L29.2335 12.9254ZM72.1776 8.9711C71.8117 9.44266 71.3074 9.79557 70.7309 9.98333C72.6643 10.32 74.2458 11.5442 74.2458 13.3333C74.2458 16.1029 71.6639 17.0833 68.6318 17.0833H63.5166V3.75H67.8821C70.5318 3.75 72.7802 4.81208 72.7802 7.34167C72.7535 7.93144 72.5434 8.49953 72.1776 8.9711ZM67.8971 5.23H66.1474V9.56417H67.8971C68.198 9.57318 68.4977 9.52298 68.7782 9.41659C69.0586 9.3102 69.314 9.14982 69.5289 8.9451C69.7438 8.74038 69.9138 8.49555 70.0287 8.22537C70.1436 7.95518 70.201 7.66521 70.1974 7.37292C70.2 7.0831 70.1415 6.79584 70.0256 6.52876C69.9097 6.26167 69.7388 6.0204 69.5234 5.81974C69.308 5.61908 69.0526 5.46326 68.7729 5.36185C68.4933 5.26044 68.1953 5.21557 67.8971 5.23ZM66.1474 15.605H68.6653V15.6029C70.1794 15.6029 71.43 14.8604 71.43 13.3325C71.43 11.6242 69.6816 11.0446 67.8971 11.0446H66.1474V15.605ZM102.878 8.05634L99.2303 11.9884L103.001 17.0809H100.534L97.817 13.3551L97.2806 13.833V17.083H95.2764V4.58301H97.2806L97.2647 11.4722L97.6509 10.9959L100.38 8.05634H102.878ZM89.7595 7.91719C90.8736 7.91719 91.7242 8.20177 92.2847 8.76177C92.8443 9.32052 93.1293 10.1797 93.1289 11.3168V17.0839H91.083V11.4139C91.1239 10.9596 90.995 10.5063 90.72 10.1368C90.5664 9.99588 90.3835 9.88861 90.1836 9.82219C89.9837 9.75578 89.7715 9.73176 89.5612 9.75178C89.2675 9.72344 88.9711 9.76134 88.695 9.86252C88.4189 9.9637 88.1706 10.1254 87.9694 10.3351C87.6334 10.7414 87.4643 11.4426 87.4643 12.4222V17.0859H85.4043V8.06927H87.1437L87.2802 8.82928C87.5116 8.60969 87.7772 8.42689 88.0673 8.28761C88.594 8.03807 89.1734 7.91124 89.7595 7.91719ZM82.3735 8.66407C81.7984 8.16866 80.9332 7.91699 79.8015 7.91699C79.2565 7.91851 78.7137 7.98498 78.1853 8.11491C77.6632 8.23837 77.1579 8.42101 76.6798 8.65908L76.3926 8.80366L77.0905 10.4287L77.4359 10.2787C77.7957 10.1181 78.1649 9.97814 78.5415 9.85949C78.9228 9.74099 79.3209 9.68178 79.7213 9.68408C79.9176 9.66441 80.116 9.68363 80.3045 9.74057C80.493 9.79751 80.6676 9.89098 80.8178 10.0153C81.0705 10.3453 81.1891 10.7541 81.1508 11.1637V11.3187L80.035 11.3562C77.0484 11.4457 75.5339 12.4395 75.5339 14.3145C75.5137 14.6938 75.5785 15.0729 75.7239 15.4255C75.8692 15.7782 76.0917 16.096 76.3759 16.357C77.0036 16.8653 77.8059 17.1248 78.6222 17.0837C79.2256 17.1002 79.8262 16.9971 80.3873 16.7807C80.7585 16.6144 81.0953 16.3835 81.3808 16.0995L81.5796 16.9328H83.2602V11.0066C83.2585 9.95616 82.961 9.16782 82.3735 8.66407ZM81.1341 12.9374V13.3228C81.1528 13.594 81.1121 13.8659 81.0145 14.1206C80.9169 14.3753 80.7647 14.607 80.568 14.8003C80.1136 15.1659 79.5331 15.3502 78.944 15.3162C78.6134 15.3398 78.2849 15.2479 78.0179 15.057C77.9152 14.9653 77.8355 14.8518 77.7851 14.7255C77.7346 14.5991 77.7147 14.4632 77.7269 14.3282C77.7108 14.1386 77.7501 13.9484 77.8404 13.7796C77.9307 13.6107 78.0682 13.47 78.2372 13.3737C78.8621 13.0928 79.5458 12.9567 80.2341 12.9762L81.1341 12.9374Z" fill="#B7B7B7"/>
</g>
<defs>
<clipPath id="clip0_781_14127">
<rect width="103" height="20" fill="white"/>
</clipPath>
</defs>
</svg>
