<svg width="106" height="105" viewBox="0 0 106 105" fill="none" xmlns="http://www.w3.org/2000/svg">
<path d="M32.7908 104.739H29.1475V101.128H32.7908V104.739Z" fill="black"/>
<path d="M36.4343 104.739H32.791V101.128H36.4343V104.739Z" fill="black"/>
<path d="M40.0769 104.739H36.4336V101.128H40.0769V104.739Z" fill="black"/>
<path d="M58.2956 104.739H54.6523V101.128H58.2956V104.739Z" fill="black"/>
<path d="M61.9372 104.739H58.2939V101.128H61.9372V104.739Z" fill="black"/>
<path d="M65.5788 104.739H61.9355V101.128H65.5788V104.739Z" fill="black"/>
<path d="M40.0779 101.127H36.4346V97.5153H40.0779V101.127Z" fill="black"/>
<path d="M43.7205 101.127H40.0771V97.5153H43.7205V101.127Z" fill="black"/>
<path d="M47.364 101.127H43.7207V97.5153H47.364V101.127Z" fill="black"/>
<path d="M51.0066 101.127H47.3633V97.5153H51.0066V101.127Z" fill="black"/>
<path d="M54.6492 101.127H51.0059V97.5153H54.6492V101.127Z" fill="black"/>
<path d="M61.9372 101.127H58.2939V97.5153H61.9372V101.127Z" fill="black"/>
<path d="M65.5788 101.127H61.9355V97.5153H65.5788V101.127Z" fill="black"/>
<path d="M76.5095 101.127H72.8662V97.5153H76.5095V101.127Z" fill="black"/>
<path d="M32.7908 97.5156H29.1475V93.9039H32.7908V97.5156Z" fill="black"/>
<path d="M40.0779 97.5156H36.4346V93.9039H40.0779V97.5156Z" fill="black"/>
<path d="M43.7205 97.5156H40.0771V93.9039H43.7205V97.5156Z" fill="black"/>
<path d="M54.6492 97.5156H51.0059V93.9039H54.6492V97.5156Z" fill="black"/>
<path d="M58.2956 97.5156H54.6523V93.9039H58.2956V97.5156Z" fill="black"/>
<path d="M61.9372 97.5156H58.2939V93.9039H61.9372V97.5156Z" fill="black"/>
<path d="M65.5788 97.5156H61.9355V93.9039H65.5788V97.5156Z" fill="black"/>
<path d="M76.5095 97.5156H72.8662V93.9039H76.5095V97.5156Z" fill="black"/>
<path d="M36.4343 93.9053H32.791V90.2936H36.4343V93.9053Z" fill="black"/>
<path d="M40.0779 93.9053H36.4346V90.2936H40.0779V93.9053Z" fill="black"/>
<path d="M47.364 93.9053H43.7207V90.2936H47.364V93.9053Z" fill="black"/>
<path d="M54.6492 93.9053H51.0059V90.2936H54.6492V93.9053Z" fill="black"/>
<path d="M65.5788 93.9053H61.9355V90.2936H65.5788V93.9053Z" fill="black"/>
<path d="M72.8669 93.9053H69.2236V90.2936H72.8669V93.9053Z" fill="black"/>
<path d="M36.4343 90.292H32.791V86.6803H36.4343V90.292Z" fill="black"/>
<path d="M40.0769 90.292H36.4336V86.6803H40.0769V90.292Z" fill="black"/>
<path d="M43.7205 90.292H40.0771V86.6803H43.7205V90.292Z" fill="black"/>
<path d="M51.0066 90.292H47.3633V86.6803H51.0066V90.292Z" fill="black"/>
<path d="M54.6492 90.292H51.0059V86.6803H54.6492V90.292Z" fill="black"/>
<path d="M58.2956 90.292H54.6523V86.6803H58.2956V90.292Z" fill="black"/>
<path d="M69.2224 90.292H65.5791V86.6803H69.2224V90.292Z" fill="black"/>
<path d="M32.7908 86.6797H29.1475V83.068H32.7908V86.6797Z" fill="black"/>
<path d="M40.0779 86.6797H36.4346V83.068H40.0779V86.6797Z" fill="black"/>
<path d="M43.7205 86.6797H40.0771V83.068H43.7205V86.6797Z" fill="black"/>
<path d="M47.364 86.6797H43.7207V83.068H47.364V86.6797Z" fill="black"/>
<path d="M58.2956 86.6797H54.6523V83.068H58.2956V86.6797Z" fill="black"/>
<path d="M65.5788 86.6797H61.9355V83.068H65.5788V86.6797Z" fill="black"/>
<path d="M69.2234 86.6797H65.5801V83.068H69.2234V86.6797Z" fill="black"/>
<path d="M32.7908 83.0693H29.1475V79.4576H32.7908V83.0693Z" fill="black"/>
<path d="M40.0779 83.0693H36.4346V79.4576H40.0779V83.0693Z" fill="black"/>
<path d="M47.364 83.0693H43.7207V79.4576H47.364V83.0693Z" fill="black"/>
<path d="M54.6492 83.0693H51.0059V79.4576H54.6492V83.0693Z" fill="black"/>
<path d="M61.9372 83.0693H58.2939V79.4576H61.9372V83.0693Z" fill="black"/>
<path d="M69.2234 83.0693H65.5801V79.4576H69.2234V83.0693Z" fill="black"/>
<path d="M76.5095 83.0693H72.8662V79.4576H76.5095V83.0693Z" fill="black"/>
<path d="M36.4343 79.458H32.791V75.8463H36.4343V79.458Z" fill="black"/>
<path d="M43.7205 79.458H40.0771V75.8463H43.7205V79.458Z" fill="black"/>
<path d="M47.364 79.458H43.7207V75.8463H47.364V79.458Z" fill="black"/>
<path d="M54.6492 79.458H51.0059V75.8463H54.6492V79.458Z" fill="black"/>
<path d="M58.2956 79.458H54.6523V75.8463H58.2956V79.458Z" fill="black"/>
<path d="M61.9372 79.457H58.2939V75.8453H61.9372V79.457Z" fill="black"/>
<path d="M72.8669 79.457H69.2236V75.8453H72.8669V79.457Z" fill="black"/>
<path d="M76.5095 79.458H72.8662V75.8463H76.5095V79.458Z" fill="black"/>
<path d="M3.6433 75.8457H0V72.234H3.6433V75.8457Z" fill="black"/>
<path d="M10.9304 75.8457H7.28711V72.234H10.9304V75.8457Z" fill="black"/>
<path d="M25.5037 75.8457H21.8604V72.234H25.5037V75.8457Z" fill="black"/>
<path d="M29.1482 75.8457H25.5049V72.234H29.1482V75.8457Z" fill="black"/>
<path d="M51.0066 75.8457H47.3633V72.234H51.0066V75.8457Z" fill="black"/>
<path d="M54.6492 75.8457H51.0059V72.234H54.6492V75.8457Z" fill="black"/>
<path d="M76.5095 75.8457H72.8662V72.234H76.5095V75.8457Z" fill="black"/>
<path d="M87.4412 75.8457H83.7979V72.234H87.4412V75.8457Z" fill="black"/>
<path d="M98.3718 75.8457H94.7285V72.234H98.3718V75.8457Z" fill="black"/>
<path d="M105.657 75.8457H102.014V72.234H105.657V75.8457Z" fill="black"/>
<path d="M3.6433 72.2334H0V68.6217H3.6433V72.2334Z" fill="black"/>
<path d="M7.28783 72.2334H3.64453V68.6217H7.28783V72.2334Z" fill="black"/>
<path d="M10.9304 72.2344H7.28711V68.6227H10.9304V72.2344Z" fill="black"/>
<path d="M14.574 72.2334H10.9307V68.6217H14.574V72.2334Z" fill="black"/>
<path d="M21.8611 72.2344H18.2178V68.6227H21.8611V72.2344Z" fill="black"/>
<path d="M29.1482 72.2344H25.5049V68.6227H29.1482V72.2344Z" fill="black"/>
<path d="M36.4343 72.2334H32.791V68.6217H36.4343V72.2334Z" fill="black"/>
<path d="M51.0066 72.2344H47.3633V68.6227H51.0066V72.2344Z" fill="black"/>
<path d="M54.6492 72.2334H51.0059V68.6217H54.6492V72.2334Z" fill="black"/>
<path d="M72.8669 72.2344H69.2236V68.6227H72.8669V72.2344Z" fill="black"/>
<path d="M76.5095 72.2334H72.8662V68.6217H76.5095V72.2334Z" fill="black"/>
<path d="M83.7966 72.2344H80.1533V68.6227H83.7966V72.2344Z" fill="black"/>
<path d="M87.4412 72.2334H83.7979V68.6217H87.4412V72.2334Z" fill="black"/>
<path d="M102.013 72.2344H98.3701V68.6227H102.013V72.2344Z" fill="black"/>
<path d="M105.657 72.2334H102.014V68.6217H105.657V72.2334Z" fill="black"/>
<path d="M7.28783 68.6221H3.64453V65.0104H7.28783V68.6221Z" fill="black"/>
<path d="M10.9304 68.6221H7.28711V65.0104H10.9304V68.6221Z" fill="black"/>
<path d="M14.574 68.6221H10.9307V65.0104H14.574V68.6221Z" fill="black"/>
<path d="M18.2185 68.6221H14.5752V65.0104H18.2185V68.6221Z" fill="black"/>
<path d="M25.5037 68.6221H21.8604V65.0104H25.5037V68.6221Z" fill="black"/>
<path d="M29.1482 68.6221H25.5049V65.0104H29.1482V68.6221Z" fill="black"/>
<path d="M43.7205 68.6221H40.0771V65.0104H43.7205V68.6221Z" fill="black"/>
<path d="M47.364 68.6221H43.7207V65.0104H47.364V68.6221Z" fill="black"/>
<path d="M58.2956 68.6221H54.6523V65.0104H58.2956V68.6221Z" fill="black"/>
<path d="M69.2234 68.6221H65.5801V65.0104H69.2234V68.6221Z" fill="black"/>
<path d="M72.8669 68.6221H69.2236V65.0104H72.8669V68.6221Z" fill="black"/>
<path d="M87.4412 68.6221H83.7979V65.0104H87.4412V68.6221Z" fill="black"/>
<path d="M94.7273 68.6221H91.084V65.0104H94.7273V68.6221Z" fill="black"/>
<path d="M98.3718 68.6221H94.7285V65.0104H98.3718V68.6221Z" fill="black"/>
<path d="M105.657 68.6221H102.014V65.0104H105.657V68.6221Z" fill="black"/>
<path d="M3.6433 65.0098H0V61.3981H3.6433V65.0098Z" fill="black"/>
<path d="M18.2185 65.0098H14.5752V61.3981H18.2185V65.0098Z" fill="black"/>
<path d="M29.1482 65.0098H25.5049V61.3981H29.1482V65.0098Z" fill="black"/>
<path d="M32.7908 65.0098H29.1475V61.3981H32.7908V65.0098Z" fill="black"/>
<path d="M36.4343 65.0098H32.791V61.3981H36.4343V65.0098Z" fill="black"/>
<path d="M40.0769 65.0098H36.4336V61.3981H40.0769V65.0098Z" fill="black"/>
<path d="M43.7205 65.0098H40.0771V61.3981H43.7205V65.0098Z" fill="black"/>
<path d="M47.364 65.0098H43.7207V61.3981H47.364V65.0098Z" fill="black"/>
<path d="M51.0066 65.0098H47.3633V61.3981H51.0066V65.0098Z" fill="black"/>
<path d="M69.2224 65.0098H65.5791V61.3981H69.2224V65.0098Z" fill="black"/>
<path d="M80.154 65.0098H76.5107V61.3981H80.154V65.0098Z" fill="black"/>
<path d="M87.4412 65.0098H83.7979V61.3981H87.4412V65.0098Z" fill="black"/>
<path d="M91.0828 65.0098H87.4395V61.3981H91.0828V65.0098Z" fill="black"/>
<path d="M94.7273 65.0098H91.084V61.3981H94.7273V65.0098Z" fill="black"/>
<path d="M18.2185 61.3984H14.5752V57.7867H18.2185V61.3984Z" fill="black"/>
<path d="M21.8611 61.3984H18.2178V57.7867H21.8611V61.3984Z" fill="black"/>
<path d="M25.5037 61.3984H21.8604V57.7867H25.5037V61.3984Z" fill="black"/>
<path d="M29.1482 61.3984H25.5049V57.7867H29.1482V61.3984Z" fill="black"/>
<path d="M36.4343 61.3984H32.791V57.7867H36.4343V61.3984Z" fill="black"/>
<path d="M40.0769 61.3984H36.4336V57.7867H40.0769V61.3984Z" fill="black"/>
<path d="M51.0066 61.3984H47.3633V57.7867H51.0066V61.3984Z" fill="black"/>
<path d="M58.2956 61.3984H54.6523V57.7867H58.2956V61.3984Z" fill="black"/>
<path d="M61.9372 61.3984H58.2939V57.7867H61.9372V61.3984Z" fill="black"/>
<path d="M76.5095 61.3984H72.8662V57.7867H76.5095V61.3984Z" fill="black"/>
<path d="M83.7966 61.3984H80.1533V57.7867H83.7966V61.3984Z" fill="black"/>
<path d="M87.4412 61.3984H83.7979V57.7867H87.4412V61.3984Z" fill="black"/>
<path d="M105.657 61.3984H102.014V57.7867H105.657V61.3984Z" fill="black"/>
<path d="M14.574 57.7861H10.9307V54.1744H14.574V57.7861Z" fill="black"/>
<path d="M18.2185 57.7861H14.5752V54.1744H18.2185V57.7861Z" fill="black"/>
<path d="M36.4343 57.7861H32.791V54.1744H36.4343V57.7861Z" fill="black"/>
<path d="M43.7205 57.7861H40.0771V54.1744H43.7205V57.7861Z" fill="black"/>
<path d="M61.9372 57.7861H58.2939V54.1744H61.9372V57.7861Z" fill="black"/>
<path d="M65.5788 57.7861H61.9355V54.1744H65.5788V57.7861Z" fill="black"/>
<path d="M72.8669 57.7861H69.2236V54.1744H72.8669V57.7861Z" fill="black"/>
<path d="M76.5095 57.7861H72.8662V54.1744H76.5095V57.7861Z" fill="black"/>
<path d="M83.7966 57.7861H80.1533V54.1744H83.7966V57.7861Z" fill="black"/>
<path d="M102.014 57.7861H98.3711V54.1744H102.014V57.7861Z" fill="black"/>
<path d="M105.657 57.7861H102.014V54.1744H105.657V57.7861Z" fill="black"/>
<path d="M3.6433 54.1758H0V50.5641H3.6433V54.1758Z" fill="black"/>
<path d="M7.28783 54.1758H3.64453V50.5641H7.28783V54.1758Z" fill="black"/>
<path d="M18.2185 54.1758H14.5752V50.5641H18.2185V54.1758Z" fill="black"/>
<path d="M25.5037 54.1758H21.8604V50.5641H25.5037V54.1758Z" fill="black"/>
<path d="M36.4343 54.1758H32.791V50.5641H36.4343V54.1758Z" fill="black"/>
<path d="M47.364 54.1758H43.7207V50.5641H47.364V54.1758Z" fill="black"/>
<path d="M51.0066 54.1758H47.3633V50.5641H51.0066V54.1758Z" fill="black"/>
<path d="M54.6492 54.1758H51.0059V50.5641H54.6492V54.1758Z" fill="black"/>
<path d="M61.9372 54.1758H58.2939V50.5641H61.9372V54.1758Z" fill="black"/>
<path d="M72.8669 54.1758H69.2236V50.5641H72.8669V54.1758Z" fill="black"/>
<path d="M76.5095 54.1758H72.8662V50.5641H76.5095V54.1758Z" fill="black"/>
<path d="M83.7966 54.1758H80.1533V50.5641H83.7966V54.1758Z" fill="black"/>
<path d="M105.657 54.1758H102.014V50.5641H105.657V54.1758Z" fill="black"/>
<path d="M14.574 50.5645H10.9307V46.9528H14.574V50.5645Z" fill="black"/>
<path d="M21.8611 50.5635H18.2178V46.9518H21.8611V50.5635Z" fill="black"/>
<path d="M32.7908 50.5635H29.1475V46.9518H32.7908V50.5635Z" fill="black"/>
<path d="M54.6492 50.5645H51.0059V46.9528H54.6492V50.5645Z" fill="black"/>
<path d="M58.2956 50.5645H54.6523V46.9528H58.2956V50.5645Z" fill="black"/>
<path d="M61.9372 50.5635H58.2939V46.9518H61.9372V50.5635Z" fill="black"/>
<path d="M69.2224 50.5635H65.5791V46.9518H69.2224V50.5635Z" fill="black"/>
<path d="M76.5095 50.5645H72.8662V46.9528H76.5095V50.5645Z" fill="black"/>
<path d="M80.154 50.5635H76.5107V46.9518H80.154V50.5635Z" fill="black"/>
<path d="M87.4412 50.5645H83.7979V46.9528H87.4412V50.5645Z" fill="black"/>
<path d="M3.6433 46.9521H0V43.3405H3.6433V46.9521Z" fill="black"/>
<path d="M7.28783 46.9521H3.64453V43.3405H7.28783V46.9521Z" fill="black"/>
<path d="M10.9304 46.9521H7.28711V43.3405H10.9304V46.9521Z" fill="black"/>
<path d="M18.2185 46.9521H14.5752V43.3405H18.2185V46.9521Z" fill="black"/>
<path d="M21.8611 46.9521H18.2178V43.3405H21.8611V46.9521Z" fill="black"/>
<path d="M25.5037 46.9521H21.8604V43.3405H25.5037V46.9521Z" fill="black"/>
<path d="M29.1482 46.9521H25.5049V43.3405H29.1482V46.9521Z" fill="black"/>
<path d="M36.4343 46.9521H32.791V43.3405H36.4343V46.9521Z" fill="black"/>
<path d="M40.0769 46.9521H36.4336V43.3405H40.0769V46.9521Z" fill="black"/>
<path d="M43.7205 46.9521H40.0771V43.3405H43.7205V46.9521Z" fill="black"/>
<path d="M47.364 46.9521H43.7207V43.3405H47.364V46.9521Z" fill="black"/>
<path d="M51.0066 46.9521H47.3633V43.3405H51.0066V46.9521Z" fill="black"/>
<path d="M54.6492 46.9521H51.0059V43.3405H54.6492V46.9521Z" fill="black"/>
<path d="M61.9372 46.9521H58.2939V43.3405H61.9372V46.9521Z" fill="black"/>
<path d="M76.5095 46.9521H72.8662V43.3405H76.5095V46.9521Z" fill="black"/>
<path d="M83.7966 46.9521H80.1533V43.3405H83.7966V46.9521Z" fill="black"/>
<path d="M105.657 46.9521H102.014V43.3405H105.657V46.9521Z" fill="black"/>
<path d="M7.28783 43.3398H3.64453V39.7282H7.28783V43.3398Z" fill="black"/>
<path d="M18.2185 43.3398H14.5752V39.7282H18.2185V43.3398Z" fill="black"/>
<path d="M29.1482 43.3408H25.5049V39.7291H29.1482V43.3408Z" fill="black"/>
<path d="M32.7908 43.3408H29.1475V39.7291H32.7908V43.3408Z" fill="black"/>
<path d="M36.4343 43.3398H32.791V39.7282H36.4343V43.3398Z" fill="black"/>
<path d="M43.7205 43.3398H40.0771V39.7282H43.7205V43.3398Z" fill="black"/>
<path d="M51.0066 43.3408H47.3633V39.7291H51.0066V43.3408Z" fill="black"/>
<path d="M54.6492 43.3398H51.0059V39.7282H54.6492V43.3398Z" fill="black"/>
<path d="M65.5788 43.3398H61.9355V39.7282H65.5788V43.3398Z" fill="black"/>
<path d="M72.8669 43.3408H69.2236V39.7291H72.8669V43.3408Z" fill="black"/>
<path d="M76.5095 43.3398H72.8662V39.7282H76.5095V43.3398Z" fill="black"/>
<path d="M83.7966 43.3408H80.1533V39.7291H83.7966V43.3408Z" fill="black"/>
<path d="M87.4412 43.3398H83.7979V39.7282H87.4412V43.3398Z" fill="black"/>
<path d="M98.3718 43.3398H94.7285V39.7282H98.3718V43.3398Z" fill="black"/>
<path d="M102.013 43.3408H98.3701V39.7291H102.013V43.3408Z" fill="black"/>
<path d="M105.657 43.3398H102.014V39.7282H105.657V43.3398Z" fill="black"/>
<path d="M3.6433 39.7285H0V36.1168H3.6433V39.7285Z" fill="black"/>
<path d="M7.28783 39.7285H3.64453V36.1168H7.28783V39.7285Z" fill="black"/>
<path d="M18.2185 39.7285H14.5752V36.1168H18.2185V39.7285Z" fill="black"/>
<path d="M21.8611 39.7285H18.2178V36.1168H21.8611V39.7285Z" fill="black"/>
<path d="M25.5037 39.7285H21.8604V36.1168H25.5037V39.7285Z" fill="black"/>
<path d="M29.1482 39.7285H25.5049V36.1168H29.1482V39.7285Z" fill="black"/>
<path d="M36.4343 39.7285H32.791V36.1168H36.4343V39.7285Z" fill="black"/>
<path d="M40.0779 39.7285H36.4346V36.1168H40.0779V39.7285Z" fill="black"/>
<path d="M43.7205 39.7285H40.0771V36.1168H43.7205V39.7285Z" fill="black"/>
<path d="M58.2956 39.7285H54.6523V36.1168H58.2956V39.7285Z" fill="black"/>
<path d="M61.9372 39.7285H58.2939V36.1168H61.9372V39.7285Z" fill="black"/>
<path d="M65.5788 39.7285H61.9355V36.1168H65.5788V39.7285Z" fill="black"/>
<path d="M72.8669 39.7285H69.2236V36.1168H72.8669V39.7285Z" fill="black"/>
<path d="M94.7273 39.7285H91.084V36.1168H94.7273V39.7285Z" fill="black"/>
<path d="M105.657 39.7285H102.014V36.1168H105.657V39.7285Z" fill="black"/>
<path d="M18.2185 36.1182H14.5752V32.5065H18.2185V36.1182Z" fill="black"/>
<path d="M21.8611 36.1182H18.2178V32.5065H21.8611V36.1182Z" fill="black"/>
<path d="M36.4343 36.1182H32.791V32.5065H36.4343V36.1182Z" fill="black"/>
<path d="M40.0779 36.1182H36.4346V32.5065H40.0779V36.1182Z" fill="black"/>
<path d="M47.364 36.1182H43.7207V32.5065H47.364V36.1182Z" fill="black"/>
<path d="M51.0066 36.1182H47.3633V32.5065H51.0066V36.1182Z" fill="black"/>
<path d="M61.9372 36.1182H58.2939V32.5065H61.9372V36.1182Z" fill="black"/>
<path d="M69.2234 36.1182H65.5801V32.5065H69.2234V36.1182Z" fill="black"/>
<path d="M80.154 36.1182H76.5107V32.5065H80.154V36.1182Z" fill="black"/>
<path d="M87.4412 36.1182H83.7979V32.5065H87.4412V36.1182Z" fill="black"/>
<path d="M3.6433 32.5059H0V28.8942H3.6433V32.5059Z" fill="black"/>
<path d="M7.28783 32.5059H3.64453V28.8942H7.28783V32.5059Z" fill="black"/>
<path d="M14.574 32.5059H10.9307V28.8942H14.574V32.5059Z" fill="black"/>
<path d="M18.2185 32.5059H14.5752V28.8942H18.2185V32.5059Z" fill="black"/>
<path d="M25.5037 32.5059H21.8604V28.8942H25.5037V32.5059Z" fill="black"/>
<path d="M29.1482 32.5059H25.5049V28.8942H29.1482V32.5059Z" fill="black"/>
<path d="M40.0769 32.5059H36.4336V28.8942H40.0769V32.5059Z" fill="black"/>
<path d="M43.7205 32.5059H40.0771V28.8942H43.7205V32.5059Z" fill="black"/>
<path d="M51.0066 32.5059H47.3633V28.8942H51.0066V32.5059Z" fill="black"/>
<path d="M58.2956 32.5059H54.6523V28.8942H58.2956V32.5059Z" fill="black"/>
<path d="M69.2224 32.5059H65.5791V28.8942H69.2224V32.5059Z" fill="black"/>
<path d="M76.5095 32.5059H72.8662V28.8942H76.5095V32.5059Z" fill="black"/>
<path d="M80.154 32.5059H76.5107V28.8942H80.154V32.5059Z" fill="black"/>
<path d="M83.7966 32.5059H80.1533V28.8942H83.7966V32.5059Z" fill="black"/>
<path d="M87.4412 32.5059H83.7979V28.8942H87.4412V32.5059Z" fill="black"/>
<path d="M91.0828 32.5059H87.4395V28.8942H91.0828V32.5059Z" fill="black"/>
<path d="M94.7273 32.5059H91.084V28.8942H94.7273V32.5059Z" fill="black"/>
<path d="M102.013 32.5059H98.3701V28.8942H102.013V32.5059Z" fill="black"/>
<path d="M32.7908 28.8945H29.1475V25.2828H32.7908V28.8945Z" fill="black"/>
<path d="M36.4343 28.8945H32.791V25.2828H36.4343V28.8945Z" fill="black"/>
<path d="M40.0769 28.8945H36.4336V25.2828H40.0769V28.8945Z" fill="black"/>
<path d="M43.7205 28.8945H40.0771V25.2828H43.7205V28.8945Z" fill="black"/>
<path d="M47.364 28.8945H43.7207V25.2828H47.364V28.8945Z" fill="black"/>
<path d="M58.2956 28.8945H54.6523V25.2828H58.2956V28.8945Z" fill="black"/>
<path d="M65.5788 28.8945H61.9355V25.2828H65.5788V28.8945Z" fill="black"/>
<path d="M72.8669 28.8945H69.2236V25.2828H72.8669V28.8945Z" fill="black"/>
<path d="M76.5095 28.8945H72.8662V25.2828H76.5095V28.8945Z" fill="black"/>
<path d="M91.0828 28.8945H87.4395V25.2828H91.0828V28.8945Z" fill="black"/>
<path d="M94.7273 28.8945H91.084V25.2828H94.7273V28.8945Z" fill="black"/>
<path d="M98.3718 28.8945H94.7285V25.2828H98.3718V28.8945Z" fill="black"/>
<path d="M105.657 28.8945H102.014V25.2828H105.657V28.8945Z" fill="black"/>
<path d="M32.7908 25.2822H29.1475V21.6705H32.7908V25.2822Z" fill="black"/>
<path d="M36.4343 25.2822H32.791V21.6705H36.4343V25.2822Z" fill="black"/>
<path d="M40.0779 25.2822H36.4346V21.6705H40.0779V25.2822Z" fill="black"/>
<path d="M43.7205 25.2822H40.0771V21.6705H43.7205V25.2822Z" fill="black"/>
<path d="M47.364 25.2822H43.7207V21.6705H47.364V25.2822Z" fill="black"/>
<path d="M51.0066 25.2822H47.3633V21.6705H51.0066V25.2822Z" fill="black"/>
<path d="M54.6492 25.2822H51.0059V21.6705H54.6492V25.2822Z" fill="black"/>
<path d="M58.2956 25.2822H54.6523V21.6705H58.2956V25.2822Z" fill="black"/>
<path d="M76.5095 25.2822H72.8662V21.6705H76.5095V25.2822Z" fill="black"/>
<path d="M83.7966 25.2822H80.1533V21.6705H83.7966V25.2822Z" fill="black"/>
<path d="M91.0837 25.2822H87.4404V21.6705H91.0837V25.2822Z" fill="black"/>
<path d="M105.657 25.2822H102.014V21.6705H105.657V25.2822Z" fill="black"/>
<path d="M40.0769 21.6699H36.4336V18.0582H40.0769V21.6699Z" fill="black"/>
<path d="M43.7205 21.6709H40.0771V18.0592H43.7205V21.6709Z" fill="black"/>
<path d="M47.364 21.6709H43.7207V18.0592H47.364V21.6709Z" fill="black"/>
<path d="M54.6492 21.6709H51.0059V18.0592H54.6492V21.6709Z" fill="black"/>
<path d="M58.2956 21.6709H54.6523V18.0592H58.2956V21.6709Z" fill="black"/>
<path d="M69.2224 21.6699H65.5791V18.0582H69.2224V21.6699Z" fill="black"/>
<path d="M72.8669 21.6699H69.2236V18.0582H72.8669V21.6699Z" fill="black"/>
<path d="M76.5095 21.6709H72.8662V18.0592H76.5095V21.6709Z" fill="black"/>
<path d="M91.0828 21.6699H87.4395V18.0582H91.0828V21.6699Z" fill="black"/>
<path d="M36.4343 18.0586H32.791V14.4469H36.4343V18.0586Z" fill="black"/>
<path d="M40.0769 18.0586H36.4336V14.4469H40.0769V18.0586Z" fill="black"/>
<path d="M43.7205 18.0586H40.0771V14.4469H43.7205V18.0586Z" fill="black"/>
<path d="M47.364 18.0586H43.7207V14.4469H47.364V18.0586Z" fill="black"/>
<path d="M51.0066 18.0586H47.3633V14.4469H51.0066V18.0586Z" fill="black"/>
<path d="M54.6492 18.0586H51.0059V14.4469H54.6492V18.0586Z" fill="black"/>
<path d="M58.2956 18.0586H54.6523V14.4469H58.2956V18.0586Z" fill="black"/>
<path d="M69.2224 18.0586H65.5791V14.4469H69.2224V18.0586Z" fill="black"/>
<path d="M72.8669 18.0586H69.2236V14.4469H72.8669V18.0586Z" fill="black"/>
<path d="M76.5095 18.0586H72.8662V14.4469H76.5095V18.0586Z" fill="black"/>
<path d="M80.154 18.0586H76.5107V14.4469H80.154V18.0586Z" fill="black"/>
<path d="M83.7966 18.0586H80.1533V14.4469H83.7966V18.0586Z" fill="black"/>
<path d="M87.4412 18.0586H83.7979V14.4469H87.4412V18.0586Z" fill="black"/>
<path d="M91.0828 18.0586H87.4395V14.4469H91.0828V18.0586Z" fill="black"/>
<path d="M94.7273 18.0586H91.084V14.4469H94.7273V18.0586Z" fill="black"/>
<path d="M102.013 18.0586H98.3701V14.4469H102.013V18.0586Z" fill="black"/>
<path d="M105.657 18.0586H102.014V14.4469H105.657V18.0586Z" fill="black"/>
<path d="M36.4343 14.4463H32.791V10.8346H36.4343V14.4463Z" fill="black"/>
<path d="M40.0769 14.4473H36.4336V10.8356H40.0769V14.4473Z" fill="black"/>
<path d="M43.7205 14.4463H40.0771V10.8346H43.7205V14.4463Z" fill="black"/>
<path d="M47.364 14.4463H43.7207V10.8346H47.364V14.4463Z" fill="black"/>
<path d="M51.0066 14.4473H47.3633V10.8356H51.0066V14.4473Z" fill="black"/>
<path d="M54.6492 14.4463H51.0059V10.8346H54.6492V14.4463Z" fill="black"/>
<path d="M58.2956 14.4463H54.6523V10.8346H58.2956V14.4463Z" fill="black"/>
<path d="M69.2224 14.4473H65.5791V10.8356H69.2224V14.4473Z" fill="black"/>
<path d="M76.5095 14.4463H72.8662V10.8346H76.5095V14.4463Z" fill="black"/>
<path d="M80.154 14.4473H76.5107V10.8356H80.154V14.4473Z" fill="black"/>
<path d="M87.4412 14.4463H83.7979V10.8346H87.4412V14.4463Z" fill="black"/>
<path d="M91.0828 14.4473H87.4395V10.8356H91.0828V14.4473Z" fill="black"/>
<path d="M94.7253 14.4463H91.082V10.8346H94.7253V14.4463Z" fill="black"/>
<path d="M98.3718 14.4463H94.7285V10.8346H98.3718V14.4463Z" fill="black"/>
<path d="M105.657 14.4463H102.014V10.8346H105.657V14.4463Z" fill="black"/>
<path d="M32.7908 10.835H29.1475V7.22327H32.7908V10.835Z" fill="black"/>
<path d="M36.4343 10.835H32.791V7.22327H36.4343V10.835Z" fill="black"/>
<path d="M40.0779 10.835H36.4346V7.22327H40.0779V10.835Z" fill="black"/>
<path d="M58.2956 10.835H54.6523V7.22327H58.2956V10.835Z" fill="black"/>
<path d="M69.2234 10.835H65.5801V7.22327H69.2234V10.835Z" fill="black"/>
<path d="M72.8669 10.835H69.2236V7.22327H72.8669V10.835Z" fill="black"/>
<path d="M76.5095 10.835H72.8662V7.22327H76.5095V10.835Z" fill="black"/>
<path d="M80.154 10.835H76.5107V7.22327H80.154V10.835Z" fill="black"/>
<path d="M91.0837 10.835H87.4404V7.22327H91.0837V10.835Z" fill="black"/>
<path d="M102.014 10.835H98.3711V7.22327H102.014V10.835Z" fill="black"/>
<path d="M105.657 10.835H102.014V7.22327H105.657V10.835Z" fill="black"/>
<path d="M36.4343 7.22461H32.791V3.61292H36.4343V7.22461Z" fill="black"/>
<path d="M43.7205 7.22461H40.0771V3.61292H43.7205V7.22461Z" fill="black"/>
<path d="M47.364 7.22461H43.7207V3.61292H47.364V7.22461Z" fill="black"/>
<path d="M54.6492 7.22461H51.0059V3.61292H54.6492V7.22461Z" fill="black"/>
<path d="M61.9372 7.22461H58.2939V3.61292H61.9372V7.22461Z" fill="black"/>
<path d="M72.8669 7.22461H69.2236V3.61292H72.8669V7.22461Z" fill="black"/>
<path d="M76.5095 7.22461H72.8662V3.61292H76.5095V7.22461Z" fill="black"/>
<path d="M80.154 7.22461H76.5107V3.61292H80.154V7.22461Z" fill="black"/>
<path d="M83.7966 7.22461H80.1533V3.61292H83.7966V7.22461Z" fill="black"/>
<path d="M87.4412 7.22461H83.7979V3.61292H87.4412V7.22461Z" fill="black"/>
<path d="M91.0837 7.22461H87.4404V3.61292H91.0837V7.22461Z" fill="black"/>
<path d="M94.7273 7.22461H91.084V3.61292H94.7273V7.22461Z" fill="black"/>
<path d="M32.7908 3.6123H29.1475V0.000616312H32.7908V3.6123Z" fill="black"/>
<path d="M36.4343 3.6123H32.791V0.000616312H36.4343V3.6123Z" fill="black"/>
<path d="M40.0769 3.6123H36.4336V0.000616312H40.0769V3.6123Z" fill="black"/>
<path d="M47.364 3.6123H43.7207V0.000616312H47.364V3.6123Z" fill="black"/>
<path d="M54.6492 3.6123H51.0059V0.000616312H54.6492V3.6123Z" fill="black"/>
<path d="M58.2956 3.6123H54.6523V0.000616312H58.2956V3.6123Z" fill="black"/>
<path d="M69.2224 3.6123H65.5791V0.000616312H69.2224V3.6123Z" fill="black"/>
<path d="M76.5095 3.6123H72.8662V0.000616312H76.5095V3.6123Z" fill="black"/>
<path d="M91.0828 3.6123H87.4395V0.000616312H91.0828V3.6123Z" fill="black"/>
<path d="M105.657 3.6123H102.014V0.000616312H105.657V3.6123Z" fill="black"/>
<path d="M21.6777 104.739H3.82547H0V100.947V83.2497V79.4574H3.82547H21.6777H25.5031V83.2497V100.947V104.739H21.6777ZM21.6777 83.2497H3.82547V100.947H21.6777V83.2497Z" fill="black"/>
<path d="M101.831 104.739H83.9788H80.1533V100.947V83.2497V79.4574H83.9788H101.831H105.656V83.2497V100.947V104.739H101.831ZM101.831 83.2497H83.9788V100.947H101.831V83.2497Z" fill="black"/>
<path d="M21.6777 25.2822H3.82547H0V21.49V3.79268V0.000406861H3.82547H21.6777H25.5031V3.79268V21.49V25.2822H21.6777ZM21.6777 3.79268H3.82547V21.49H21.6777V3.79268Z" fill="black"/>
<path d="M18.217 97.5156H7.28711V86.6806H18.217V97.5156Z" fill="black"/>
<path d="M98.3703 97.5156H87.4404V86.6806H98.3703V97.5156Z" fill="black"/>
<path d="M18.217 18.0586H7.28711V7.22353H18.217V18.0586Z" fill="black"/>
</svg>
