<svg width="92" height="85" viewBox="0 0 92 85" fill="none" xmlns="http://www.w3.org/2000/svg">
<path opacity="0.3" d="M11.5155 78.7472H49.8498C49.7993 78.4693 49.7614 78.1914 49.7362 77.9135C49.7109 77.6609 49.673 77.383 49.6225 77.0798L45.9482 38.7294C45.7714 36.7841 46.0492 35.0282 46.7815 33.4619C47.5391 31.8703 48.6503 30.6071 50.115 29.6723C51.5797 28.7123 53.2842 28.2323 55.2287 28.2323H64.926C64.8755 27.3228 64.7492 26.5901 64.5472 26.0343C64.3451 25.4533 64.0042 24.8469 63.5244 24.2153L56.5167 14.8551V8.90548C56.5167 6.05068 55.7086 3.85273 54.0924 2.31164C52.4761 0.770545 50.1907 0 47.2361 0H17.8414C14.8615 0 12.5635 0.770545 10.9473 2.31164C9.35631 3.85273 8.56083 6.05068 8.56083 8.90548V14.8551L1.55307 24.2153C0.972248 24.9985 0.568197 25.7817 0.340918 26.5649C0.113639 27.348 0 28.4218 0 29.786V67.3406C0 71.1049 0.972248 73.9471 2.91674 75.8671C4.86124 77.7872 7.72748 78.7472 11.5155 78.7472ZM22.9552 14.3625C22.2733 14.3625 21.6799 14.1225 21.1748 13.6424C20.695 13.1372 20.4551 12.5308 20.4551 11.8235C20.4551 11.1413 20.695 10.5476 21.1748 10.0424C21.6799 9.53708 22.2733 9.28444 22.9552 9.28444H42.0845C42.7663 9.28444 43.3471 9.53708 43.8269 10.0424C44.332 10.5476 44.5845 11.1413 44.5845 11.8235C44.5845 12.5308 44.332 13.1372 43.8269 13.6424C43.3471 14.1225 42.7663 14.3625 42.0845 14.3625H22.9552ZM63.4865 85H79.737C82.4138 85 84.4341 84.3179 85.7977 82.9536C87.1614 81.5894 87.9948 79.4546 88.2978 76.5493L91.9721 38.2367C92.0984 36.8472 91.7954 35.7356 91.063 34.9019C90.3307 34.0682 89.3079 33.6514 87.9948 33.6514H55.2287C53.9156 33.6514 52.8928 34.0808 52.1605 34.9398C51.4281 35.7735 51.1377 36.8725 51.2892 38.2367L54.9636 76.5493C55.2414 79.4546 56.0621 81.5894 57.4258 82.9536C58.8147 84.3179 60.835 85 63.4865 85ZM68.9412 35.8872H75.002L75.2672 32.0976C75.3177 31.2639 75.4692 30.5944 75.7217 30.0892C75.9742 29.5839 76.4035 29.1165 77.0096 28.687L89.0175 20.0847C89.8256 19.4784 90.2549 18.7836 90.3054 18.0004C90.3559 17.2173 90.1413 16.5099 89.6615 15.8783C89.2069 15.2214 88.5882 14.8046 87.8054 14.6277C87.0225 14.4256 86.1892 14.6404 85.3053 15.272L73.752 23.609C72.3125 24.6448 71.2393 25.7943 70.5322 27.0575C69.8503 28.3207 69.4337 29.8744 69.2822 31.7187L68.9412 35.8872Z" fill="black"/>
</svg>
