<svg width="8" height="8" viewBox="0 0 8 8" fill="none" xmlns="http://www.w3.org/2000/svg">
<path d="M3.07617 7.48828C3.39551 7.48828 3.63721 7.3667 3.80127 7.12354L7.65527 1.27441C7.7168 1.18359 7.76074 1.0957 7.78711 1.01074C7.81348 0.922852 7.82666 0.839355 7.82666 0.760254C7.82666 0.543457 7.75195 0.363281 7.60254 0.219727C7.45605 0.0732422 7.27002 0 7.04443 0C6.89209 0 6.76318 0.0307617 6.65771 0.0922852C6.55225 0.153809 6.45117 0.257812 6.35449 0.404297L3.05859 5.59424L1.39746 3.57275C1.2334 3.37939 1.02832 3.28271 0.782227 3.28271C0.556641 3.28271 0.369141 3.35596 0.219727 3.50244C0.0732422 3.646 0 3.82764 0 4.04736C0 4.14697 0.0161133 4.24072 0.0483398 4.32861C0.0834961 4.4165 0.143555 4.50879 0.228516 4.60547L2.36865 7.16309C2.55615 7.37988 2.79199 7.48828 3.07617 7.48828Z" fill="#FDFDFD"/>
</svg>