<svg width="30" height="30" viewBox="0 0 30 30" fill="none" xmlns="http://www.w3.org/2000/svg">
<path d="M14.5714 27.6429C21.7906 27.6429 27.6429 21.7906 27.6429 14.5714C27.6429 7.35228 21.7906 1.5 14.5714 1.5C7.35228 1.5 1.5 7.35228 1.5 14.5714C1.5 21.7906 7.35228 27.6429 14.5714 27.6429Z" fill="black" stroke="white" stroke-width="3"/>
<path d="M13.6688 22.8373V20.8248C12.3464 20.693 11.3606 20.3038 10.7114 19.6569C10.0622 19.0101 9.69548 18.2135 9.61133 17.2672H11.7753C11.8715 17.7583 12.118 18.1656 12.5147 18.489C12.9114 18.8124 13.5967 18.9741 14.5705 18.9741C15.5804 18.9741 16.2957 18.8124 16.7165 18.489C17.1493 18.1536 17.3657 17.7463 17.3657 17.2672C17.3657 16.8719 17.2455 16.5484 17.005 16.2969C16.7646 16.0453 16.3919 15.8297 15.8869 15.6501C15.394 15.4584 14.7629 15.2847 13.9934 15.129C13.1278 14.9373 12.3945 14.6977 11.7934 14.4103C11.1923 14.1108 10.7354 13.7155 10.4228 13.2244C10.1223 12.7332 9.972 12.1044 9.972 11.3377C9.972 10.4992 10.2846 9.76253 10.9097 9.12766C11.5349 8.49279 12.4546 8.10348 13.6688 7.95974V6.30664H15.4722V7.95974C16.6383 8.09151 17.522 8.46883 18.1231 9.09172C18.7362 9.70264 19.0849 10.4513 19.169 11.3377H17.005C16.9088 10.8825 16.6624 10.5172 16.2657 10.2417C15.8809 9.95419 15.3159 9.81045 14.5705 9.81045C13.7049 9.81045 13.0798 9.96018 12.695 10.2596C12.3223 10.5591 12.136 10.9185 12.136 11.3377C12.136 11.9127 12.3764 12.3439 12.8573 12.6314C13.3382 12.9189 14.0776 13.1645 15.0754 13.3681C15.8208 13.5238 16.47 13.7095 17.0231 13.9251C17.5761 14.1288 18.0389 14.3803 18.4116 14.6798C18.7843 14.9673 19.0608 15.3266 19.2412 15.7579C19.4335 16.1771 19.5297 16.6802 19.5297 17.2672C19.5297 18.2015 19.1931 18.9981 18.5198 19.6569C17.8466 20.3157 16.8307 20.705 15.4722 20.8248V22.8373H13.6688Z" fill="white"/>
</svg>
