<svg width="96" height="17" viewBox="0 0 96 17" fill="none" xmlns="http://www.w3.org/2000/svg">
<g clip-path="url(#clip0_2294_9446)">
<path d="M71.6128 11.1978C71.6128 12.3497 71.3501 13.3606 70.8166 14.2317C70.2872 15.1029 69.5309 15.7815 68.5477 16.2687C67.5686 16.7559 66.4259 16.9989 65.1218 16.9989C63.9832 16.9989 62.9326 16.7978 61.9759 16.3902C61.0193 15.9783 60.2047 15.4029 59.5383 14.649L61.0469 13.0896L62.1364 11.9657C62.3633 12.312 62.6883 12.6067 63.1022 12.8454C63.1819 12.8928 63.2668 12.939 63.3557 12.981C63.8943 13.2477 64.4595 13.3789 65.0513 13.3789C65.5541 13.3789 65.9987 13.2853 66.3861 13.1025C66.7734 12.9197 67.0759 12.6529 67.2977 12.3109C67.5154 11.9689 67.6268 11.557 67.6268 11.0752C67.6268 10.5934 67.5113 10.1858 67.2844 9.8395C67.0575 9.4975 66.7325 9.24046 66.3186 9.06193C65.9006 8.88448 65.4018 8.79952 64.8233 8.79952C64.5208 8.79952 64.205 8.8178 63.88 8.85544C63.555 8.89739 63.2974 8.95869 63.1012 9.0329C63.1012 9.0329 63.0981 9.03433 63.092 9.0372V6.68729L63.1012 6.67761L65.8372 3.56949H63.1012V0H71.2735V2.32625L67.7587 6.25818C68.3903 6.32378 68.9688 6.51521 69.4941 6.84323C70.1482 7.25084 70.6643 7.82622 71.0425 8.57044C71.4248 9.31467 71.6118 10.1901 71.6118 11.1967L71.6128 11.1978Z" fill="#FF6700"/>
<path d="M83.1098 8.14025C82.6162 7.28525 81.9549 6.60555 81.127 6.10223C80.2992 5.59891 79.3763 5.34725 78.3583 5.34725C78.3379 5.34725 78.3205 5.3494 78.3011 5.3494L82.1634 0H77.6061L72.9803 6.85721C72.0686 8.26393 71.6128 9.66205 71.6128 11.0526C71.6128 12.1722 71.8826 13.1831 72.4223 14.0855C72.9609 14.9889 73.6906 15.6998 74.6094 16.2192C75.5283 16.7387 76.5646 16.9989 77.7195 16.9989C78.8744 16.9989 79.9333 16.7354 80.8521 16.2074C81.7709 15.6804 82.4997 14.9695 83.0393 14.0736C83.5779 13.1788 83.8477 12.1636 83.8477 11.029C83.8477 9.95888 83.6004 8.99526 83.1078 8.14025H83.1098ZM79.6696 12.1926C79.4795 12.568 79.2179 12.8605 78.8836 13.0681C78.5494 13.2756 78.1621 13.38 77.7216 13.38C77.2811 13.38 76.9162 13.2756 76.582 13.0681C76.2478 12.8605 75.9861 12.5691 75.796 12.1926C75.6059 11.8173 75.5109 11.3979 75.5109 10.9343C75.5109 10.4708 75.6059 10.0557 75.796 9.68786C75.9861 9.32005 76.2478 9.02859 76.582 8.81243C76.9162 8.59626 77.2954 8.48871 77.7216 8.48871C78.1478 8.48871 78.5494 8.59303 78.8836 8.8006C79.2179 9.00816 79.4795 9.30069 79.6696 9.67603C79.8597 10.0524 79.9548 10.4719 79.9548 10.9354C79.9548 11.3989 79.8597 11.8184 79.6696 12.1937V12.1926Z" fill="#FF6700"/>
<path d="M94.1613 8.30803C93.7362 7.45303 93.1097 6.7658 92.2818 6.24635C91.4539 5.72689 90.4247 5.4677 89.1942 5.4677C88.7077 5.4677 88.2866 5.5075 87.9299 5.58708C87.8328 5.60859 87.7378 5.6344 87.6437 5.66344L87.8972 3.57272H93.9109V0H84.6369L83.8397 7.81654L85.4351 9.35124C85.7846 9.07914 86.1751 8.86727 86.6084 8.71563C87.0418 8.56399 87.516 8.48763 88.0321 8.48763C88.6086 8.48763 89.1032 8.59195 89.5131 8.79952C89.9229 9.00709 90.2387 9.29531 90.4585 9.66312C90.6782 10.0309 90.7886 10.4622 90.7886 10.958C90.7886 11.4538 90.6782 11.8818 90.4585 12.241C90.2377 12.6002 89.9342 12.8799 89.5468 13.0799C89.1594 13.2799 88.6995 13.38 88.168 13.38C87.5753 13.38 87.009 13.2477 86.4704 12.9842C85.9308 12.7207 85.525 12.3808 85.2511 11.9646L82.6531 14.6501C83.3062 15.4018 84.1371 15.9805 85.1479 16.3881C86.1577 16.7957 87.2175 16.9989 88.3265 16.9989C89.648 16.9989 90.7906 16.7505 91.7554 16.2558C92.7203 15.76 93.4684 15.0685 93.9999 14.1812C94.5313 13.2939 94.7971 12.2754 94.7971 11.1236C94.7971 10.1008 94.5845 9.16195 94.1593 8.30695L94.1613 8.30803Z" fill="#FF6700"/>
<path d="M43.2459 8.81135C42.9117 8.46182 42.5151 8.17252 42.0603 7.93591C42.372 7.75201 42.6531 7.54229 42.8923 7.30031C43.6281 6.55823 43.9991 5.61719 43.9991 4.48257C43.9991 3.63725 43.7999 2.87689 43.4064 2.20579C43.0098 1.5347 42.4456 0.999114 41.7087 0.600114C40.9729 0.200038 40.1011 0 39.0984 0H31.7632V17.0011H38.941C40.0653 17.0011 41.0403 16.7849 41.8692 16.3536C42.695 15.9224 43.3358 15.333 43.7947 14.5909C44.2496 13.8456 44.4775 12.9971 44.4775 12.0356C44.4775 10.7429 44.0676 9.66743 43.2469 8.81242L43.2459 8.81135ZM35.7737 3.18985H38.1203C38.6518 3.18985 39.0872 3.32859 39.4296 3.60714C39.772 3.88783 39.9406 4.32232 39.9406 4.91384C39.9406 5.50534 39.772 5.94306 39.4296 6.22053C39.0872 6.50123 38.6508 6.63997 38.1203 6.63997H35.7737V3.18985ZM39.8854 13.2477C39.5144 13.623 39.0085 13.8091 38.3707 13.8091H35.7737V9.7341H38.3707C38.7949 9.7341 39.1628 9.81692 39.4756 9.98576C39.7873 10.1546 40.0264 10.3934 40.1951 10.7042C40.3607 11.0171 40.4455 11.372 40.4455 11.7721C40.4455 12.3808 40.2605 12.8723 39.8864 13.2477H39.8854Z" fill="#0F1FEA"/>
<path d="M45.1826 16.9983V4.98633H49.1707V16.9983H45.1826Z" fill="#0F1FEA"/>
<path d="M50.3777 16.9989V0H54.3422V16.9989H50.3777Z" fill="#0F1FEA"/>
<path d="M55.5728 16.9989V0H59.5373V16.9989H55.5728Z" fill="#0F1FEA"/>
<path d="M47.1766 4.1965C48.2779 4.1965 49.1707 3.25708 49.1707 2.09825C49.1707 0.939417 48.2779 0 47.1766 0C46.0754 0 45.1826 0.939417 45.1826 2.09825C45.1826 3.25708 46.0754 4.1965 47.1766 4.1965Z" fill="#FF6700"/>
<path d="M18.4786 0L15.6588 10.0008L12.8737 0H9.61543L6.84159 9.96103L4.033 0H0L5.1266 16.9989H8.42986L11.2354 6.88195L14.0583 16.9989H17.3401L22.4892 0H18.4786Z" fill="#0F1FEA"/>
<path d="M28.6623 11.282C28.6398 11.5111 28.5908 11.7315 28.5152 11.9466C28.3905 12.3123 28.1901 12.6446 27.9142 12.9339C27.2069 13.6738 26.2012 13.9029 25.3069 13.6179L27.5319 11.282L30.8822 7.76627C30.6645 7.40061 30.4059 7.05968 30.1085 6.74134C29.806 6.423 29.481 6.15199 29.1345 5.92183C28.8279 5.71534 28.5029 5.54219 28.1687 5.40668C26.1225 4.54953 23.6931 4.99047 22.0333 6.73597C21.0276 7.79423 20.4716 9.15148 20.3786 10.5378C20.3429 11.0013 20.3613 11.4745 20.4318 11.938C20.5524 12.7296 20.8232 13.5061 21.2464 14.2041C21.4692 14.5697 21.7267 14.9106 22.0252 15.229C22.3277 15.543 22.6527 15.8183 22.9951 16.0485C25.2017 17.5326 28.1697 17.2659 30.1004 15.2387C30.9814 14.3116 31.5149 13.1555 31.7019 11.952C31.7377 11.7272 31.7551 11.5068 31.7643 11.2831H28.6634L28.6623 11.282ZM23.4836 10.5421C23.5684 9.98927 23.8127 9.46014 24.2174 9.03425C24.9206 8.29433 25.9304 8.06525 26.8206 8.35025L23.5592 11.7724C23.4478 11.3745 23.4213 10.9486 23.4836 10.541V10.5421Z" fill="#0F1FEA"/>
</g>
<defs>
<clipPath id="clip0_2294_9446">
<rect width="96" height="17" fill="white"/>
</clipPath>
</defs>
</svg>
